{
.appVersion = "3340";
DisplayStrings = (
"IJ/IJacute"
);
classes = (
{
automatic = 1;
code = "A Aacute Abreve Abreveacute Abrevedotbelow Abrevegrave Abrevehookabove Abrevetilde Acircumflex Acircumflexacute Acircumflexdotbelow Acircumflexgrave Acircumflexhookabove Acircumflextilde Adieresis Adotbelow Agrave Ahookabove Amacron Aogonek Aring Atilde AE AEmacron B C Cacute Ccaron Ccedilla Ccircumflex Cdotaccent D Dcaron Dcroat Ddotbelow Eth E Eacute Ecaron Ecircumflex Ecircumflexacute Ecircumflexdotbelow Ecircumflexgrave Ecircumflexhookabove Ecircumflextilde Edieresis Edotaccent Edotbelow Egrave Ehookabove Emacron Eogonek Etilde Schwa F G Gbreve Gcircumflex Gcommaaccent Gdotaccent Gmacron H Hbar Hbrevebelow Hcircumflex Hdotbelow I IJ Iacute Icircumflex Idieresis Idotaccent Idotbelow Igrave Ihookabove Imacron Iogonek Itilde J Jacute Jcircumflex K Kcommaaccent Kmacronbelow L Lacute Lcaron Lcommaaccent Ldotbelow Ldotbelowmacron Lmacronbelow Lslash M Mdotaccent Mdotbelow N Nacute Ncaron Ncommaaccent Ndotaccent Ndotbelow Nmacronbelow Ntilde Eng O Oacute Ocircumflex Ocircumflexacute Ocircumflexdotbelow Ocircumflexgrave Ocircumflexhookabove Ocircumflextilde Odieresis Odotbelow Ograve Ohookabove Ohorn Ohornacute Ohorndotbelow Ohorngrave Ohornhookabove Ohorntilde Ohungarumlaut Omacron Oslash Otilde OE P Thorn Q R Racute Rcaron Rcommaaccent Rdotbelowmacron Rmacronbelow S Sacute Scaron Scedilla Scircumflex Scommaaccent Sdotbelow Germandbls T Tcaron Tcedilla Tcommaaccent Tdotbelow Tmacronbelow U Uacute Ubreve Ucircumflex Udieresis Udotbelow Ugrave Uhookabove Uhorn Uhornacute Uhorndotbelow Uhorngrave Uhornhookabove Uhorntilde Uhungarumlaut Umacron Uogonek Uring Utilde V W Wacute Wcircumflex Wdieresis Wgrave X Y Yacute Ycircumflex Ydieresis Ydotaccent Ydotbelow Ygrave Yhookabove Ytilde Z Zacute Zcaron Zdotaccent Zdotbelow Zmacronbelow Saltillo Lcommaaccent.loclMAH Ncommaaccent.loclMAH C.ss01 Cacute.ss01 Ccaron.ss01 Ccedilla.ss01 Cdotaccent.ss01";
name = Uppercase;
}
);

glyphs = (
{
glyphname = A;
lastChange = "2021-10-27 00:01:40 +0000";
layers = (
{
anchors = (
{
name = bottom;
position = "{333, 0}";
},
{
name = ogonek;
position = "{521, 0}";
},
{
name = top;
position = "{327, 700}";
},
{
name = top_ring;
position = "{327, 619}";
}
);
background = {
paths = (
{
closed = 1;
nodes = (
"312 440 OFFCURVE",
"322 468 OFFCURVE",
"330 503 CURVE",
"326 503 LINE",
"334 468 OFFCURVE",
"341 440 OFFCURVE",
"362 388 CURVE SMOOTH",
"433 216 LINE",
"448 168 LINE",
"515 0 LINE",
"666 0 LINE",
"379 700 LINE",
"277 700 LINE",
"-10 0 LINE",
"139 0 LINE",
"206 168 LINE",
"222 216 LINE",
"291 388 LINE SMOOTH"
);
}
);
};
layerId = "1B5AC656-48C3-4864-953F-2CD31E7BA751";
paths = (
{
closed = 1;
nodes = (
"133 0 LINE",
"193 166 LINE",
"208 207 LINE",
"302 445 LINE SMOOTH",
"319 488 OFFCURVE",
"331 537 OFFCURVE",
"337 581 CURVE",
"316 581 LINE",
"322 537 OFFCURVE",
"335 489 OFFCURVE",
"352 445 CURVE SMOOTH",
"446 207 LINE",
"461 166 LINE",
"521 0 LINE",
"673 0 LINE",
"388 700 LINE",
"267 700 LINE",
"-19 0 LINE"
);
},
{
closed = 1;
nodes = (
"510 133 LINE",
"510 254 LINE",
"131 254 LINE",
"131 133 LINE"
);
}
);
width = 654;
}
);
leftKerningGroup = A;
rightKerningGroup = A;
unicode = 0041;
},
{
glyphname = Aogonek;
lastChange = "2021-10-21 03:56:05 +0000";
layers = (
{
anchors = (
{
name = _ogonek;
position = "{578, 0}";
}
);
background = {
paths = (
{
closed = 1;
nodes = (
"686 -213 OFFCURVE",
"755 -144 OFFCURVE",
"755 -59 CURVE SMOOTH",
"755 27 OFFCURVE",
"686 96 OFFCURVE",
"602 96 CURVE SMOOTH",
"515 96 OFFCURVE",
"446 27 OFFCURVE",
"446 -59 CURVE SMOOTH",
"446 -144 OFFCURVE",
"515 -213 OFFCURVE",
"602 -213 CURVE SMOOTH"
);
},
{
closed = 1;
nodes = (
"634 -119 OFFCURVE",
"662 -92 OFFCURVE",
"662 -59 CURVE SMOOTH",
"662 -25 OFFCURVE",
"634 3 OFFCURVE",
"602 3 CURVE SMOOTH",
"567 3 OFFCURVE",
"540 -25 OFFCURVE",
"540 -59 CURVE SMOOTH",
"540 -92 OFFCURVE",
"567 -119 OFFCURVE",
"602 -119 CURVE SMOOTH"
);
},
{
closed = 1;
nodes = (
"516 -232 OFFCURVE",
"630 -206 CURVE",
"630 -121 LINE",
"577 -139 OFFCURVE",
"539 -110 OFFCURVE",
"539 -66 CURVE SMOOTH",
"539 -22 OFFCURVE",
"564 0 OFFCURVE",
"606 0 CURVE",
"569 6 LINE",
"521 0 LINE",
"482 -9 OFFCURVE",
"446 -43 OFFCURVE",
"446 -106 CURVE SMOOTH",
"446 -163 OFFCURVE"
);
}
);
};
components = (
{
name = A;
},
{
name = ogonekcomb;
transform = "{1, 0, 0, 1, 521, 0}";
}
);
layerId = "1B5AC656-48C3-4864-953F-2CD31E7BA751";
width = 654;
}
);
leftKerningGroup = A;
rightKerningGroup = A;
unicode = 0104;
},
{
glyphname = AE;
lastChange = "2021-10-31 18:25:21 +0000";
layers = (
{
anchors = (
{
name = bottom;
position = "{590, 0}";
},
{
name = ogonek;
position = "{917, 0}";
},
{
name = top;
position = "{590, 700}";
}
);
background = {
paths = (
{
closed = 1;
nodes = (
"103 0 LINE",
"163 166 LINE",
"178 207 LINE",
"272 445 LINE SMOOTH",
"289 488 OFFCURVE",
"301 537 OFFCURVE",
"307 581 CURVE",
"286 581 LINE",
"292 537 OFFCURVE",
"315 398 OFFCURVE",
"322 445 CURVE SMOOTH",
"358 700 LINE",
"237 700 LINE",
"-49 0 LINE"
);
},
{
closed = 1;
nodes = (
"480 133 LINE",
"480 254 LINE",
"101 254 LINE",
"101 133 LINE"
);
},
{
closed = 1;
nodes = (
"932 0 LINE",
"932 126 LINE",
"615 126 LINE",
"660 81 LINE",
"660 339 LINE",
"615 295 LINE",
"925 295 LINE",
"925 417 LINE",
"615 417 LINE",
"660 373 LINE",
"660 619 LINE",
"615 574 LINE",
"930 574 LINE",
"930 700 LINE",
"520 700 LINE",
"520 0 LINE"
);
}
);
};
layerId = "1B5AC656-48C3-4864-953F-2CD31E7BA751";
paths = (
{
closed = 1;
nodes = (
"132 0 LINE",
"236 166 LINE",
"256 207 LINE",
"416 445 LINE SMOOTH",
"444 487 OFFCURVE",
"481 537 OFFCURVE",
"500 582 CURVE",
"473 572 LINE",
"520 572 LINE",
"520 0 LINE",
"932 0 LINE",
"932 126 LINE",
"633 126 LINE",
"660 81 LINE",
"660 339 LINE",
"615 295 LINE",
"925 295 LINE",
"925 417 LINE",
"615 417 LINE",
"660 373 LINE",
"660 619 LINE",
"615 574 LINE",
"930 574 LINE",
"930 700 LINE",
"442 700 LINE",
"-30 0 LINE"
);
},
{
closed = 1;
nodes = (
"612 139 LINE",
"612 249 LINE",
"179 249 LINE",
"179 139 LINE"
);
}
);
width = 971;
}
);
leftKerningGroup = AE;
rightKerningGroup = E;
rightMetricsKey = E;
unicode = 00C6;
},
{
glyphname = B;
lastChange = "2021-10-25 02:30:42 +0000";
layers = (
{
anchors = (
{
name = bottom;
position = "{297, 0}";
},
{
name = ogonek;
position = "{301, 0}";
},
{
name = top;
position = "{293, 700}";
}
);
background = {
paths = (
{
closed = 1;
nodes = (
"796 278 LINE SMOOTH",
"953 278 OFFCURVE",
"1049 350 OFFCURVE",
"1049 488 CURVE SMOOTH",
"1049 625 OFFCURVE",
"953 702 OFFCURVE",
"796 701 CURVE SMOOTH",
"640 700 LINE",
"640 278 LINE"
);
},
{
closed = 1;
nodes = (
"690 0 LINE",
"690 700 LINE",
"550 700 LINE",
"550 0 LINE"
);
},
{
closed = 1;
nodes = (
"690 575 LINE",
"788 575 LINE SMOOTH",
"864 575 OFFCURVE",
"907 543 OFFCURVE",
"907 487 CURVE SMOOTH",
"907 430 OFFCURVE",
"864 398 OFFCURVE",
"788 398 CURVE SMOOTH",
"690 398 LINE"
);
},
{
closed = 1;
nodes = (
"1078 0 LINE",
"895 339 LINE",
"738 339 LINE",
"921 0 LINE"
);
},
{
closed = 1;
nodes = (
"296 293 LINE SMOOTH",
"453 293 OFFCURVE",
"549 355 OFFCURVE",
"549 488 CURVE SMOOTH",
"549 625 OFFCURVE",
"453 702 OFFCURVE",
"296 701 CURVE SMOOTH",
"140 700 LINE",
"140 293 LINE"
);
},
{
closed = 1;
nodes = (
"190 0 LINE",
"190 700 LINE",
"50 700 LINE",
"50 0 LINE"
);
},
{
closed = 1;
nodes = (
"167 575 LINE",
"288 575 LINE SMOOTH",
"364 575 OFFCURVE",
"407 543 OFFCURVE",
"407 487 CURVE SMOOTH",
"407 435 OFFCURVE",
"364 408 OFFCURVE",
"288 408 CURVE SMOOTH",
"167 408 LINE"
);
},
{
closed = 1;
nodes = (
"103 1 LINE",
"296 0 LINE SMOOTH",
"453 -1 OFFCURVE",
"549 76 OFFCURVE",
"549 213 CURVE SMOOTH",
"549 346 OFFCURVE",
"453 408 OFFCURVE",
"296 408 CURVE SMOOTH",
"103 408 LINE"
);
},
{
closed = 1;
nodes = (
"288 293 LINE SMOOTH",
"364 293 OFFCURVE",
"407 266 OFFCURVE",
"407 214 CURVE SMOOTH",
"407 158 OFFCURVE",
"364 126 OFFCURVE",
"288 126 CURVE SMOOTH",
"181 126 LINE",
"181 293 LINE"
);
}
);
};
layerId = "1B5AC656-48C3-4864-953F-2CD31E7BA751";
paths = (
{
closed = 1;
nodes = (
"311 0 LINE SMOOTH",
"463 0 OFFCURVE",
"559 76 OFFCURVE",
"559 193 CURVE SMOOTH",
"559 289 OFFCURVE",
"513 355 OFFCURVE",
"367 376 CURVE",
"332 348 LINE",
"478 378 OFFCURVE",
"520 433 OFFCURVE",
"520 516 CURVE SMOOTH",
"520 625 OFFCURVE",
"438 700 OFFCURVE",
"286 700 CURVE SMOOTH",
"50 700 LINE",
"50 0 LINE"
);
},
{
closed = 1;
nodes = (
"190 297 LINE",
"298 297 LINE SMOOTH",
"374 297 OFFCURVE",
"417 266 OFFCURVE",
"417 215 CURVE SMOOTH",
"417 154 OFFCURVE",
"374 126 OFFCURVE",
"298 126 CURVE SMOOTH",
"190 126 LINE"
);
},
{
closed = 1;
nodes = (
"190 575 LINE",
"273 575 LINE SMOOTH",
"349 575 OFFCURVE",
"378 542 OFFCURVE",
"378 494 CURVE SMOOTH",
"378 438 OFFCURVE",
"349 411 OFFCURVE",
"273 411 CURVE SMOOTH",
"190 411 LINE"
);
}
);
width = 574;
}
);
leftKerningGroup = H;
leftMetricsKey = H;
rightKerningGroup = B;
unicode = 0042;
},
{
glyphname = C;
lastChange = "2021-10-25 02:35:28 +0000";
layers = (
{
anchors = (
{
name = bottom;
position = "{390, 0}";
},
{
name = ogonek;
position = "{499, 0}";
},
{
name = top;
position = "{390, 700}";
}
);
background = {
paths = (
{
closed = 1;
nodes = (
"597 -13 OFFCURVE",
"753 149 OFFCURVE",
"753 349 CURVE SMOOTH",
"753 550 OFFCURVE",
"597 713 OFFCURVE",
"390 713 CURVE SMOOTH",
"182 713 OFFCURVE",
"25 550 OFFCURVE",
"25 349 CURVE SMOOTH",
"25 149 OFFCURVE",
"182 -13 OFFCURVE",
"390 -13 CURVE SMOOTH"
);
},
{
closed = 1;
nodes = (
"254 116 OFFCURVE",
"170 222 OFFCURVE",
"170 349 CURVE SMOOTH",
"170 476 OFFCURVE",
"254 583 OFFCURVE",
"390 583 CURVE SMOOTH",
"525 583 OFFCURVE",
"608 476 OFFCURVE",
"608 349 CURVE SMOOTH",
"608 222 OFFCURVE",
"525 116 OFFCURVE",
"390 116 CURVE SMOOTH"
);
}
);
};
layerId = "1B5AC656-48C3-4864-953F-2CD31E7BA751";
paths = (
{
closed = 1;
nodes = (
"512 -13 OFFCURVE",
"602 34 OFFCURVE",
"655 98 CURVE",
"553 185 LINE",
"512 140 OFFCURVE",
"461 117 OFFCURVE",
"393 117 CURVE SMOOTH",
"255 117 OFFCURVE",
"170 221 OFFCURVE",
"170 349 CURVE SMOOTH",
"170 477 OFFCURVE",
"255 583 OFFCURVE",
"390 583 CURVE SMOOTH",
"453 583 OFFCURVE",
"505 561 OFFCURVE",
"547 517 CURVE",
"646 603 LINE",
"583 678 OFFCURVE",
"504 713 OFFCURVE",
"390 713 CURVE SMOOTH",
"174 713 OFFCURVE",
"25 550 OFFCURVE",
"25 349 CURVE SMOOTH",
"25 149 OFFCURVE",
"182 -13 OFFCURVE",
"390 -13 CURVE SMOOTH"
);
}
);
width = 662;
}
);
leftKerningGroup = O;
leftMetricsKey = O;
rightKerningGroup = C;
unicode = 0043;
},
{
glyphname = D;
lastChange = "2021-10-06 05:30:15 +0000";
layers = (
{
anchors = (
{
name = bottom;
position = "{309, 0}";
},
{
name = center;
position = "{338, 349}";
},
{
name = ogonek;
position = "{321, 0}";
},
{
name = top;
position = "{327, 700}";
}
);
background = {
paths = (
{
closed = 1;
nodes = (
"508 -13 OFFCURVE",
"664 149 OFFCURVE",
"664 349 CURVE SMOOTH",
"664 550 OFFCURVE",
"508 713 OFFCURVE",
"301 713 CURVE SMOOTH",
"93 713 OFFCURVE",
"-64 550 OFFCURVE",
"-64 349 CURVE SMOOTH",
"-64 149 OFFCURVE",
"93 -13 OFFCURVE",
"301 -13 CURVE SMOOTH"
);
},
{
closed = 1;
nodes = (
"169 116 OFFCURVE",
"85 222 OFFCURVE",
"85 349 CURVE SMOOTH",
"85 476 OFFCURVE",
"169 583 OFFCURVE",
"301 583 CURVE SMOOTH",
"432 583 OFFCURVE",
"515 476 OFFCURVE",
"515 349 CURVE SMOOTH",
"515 222 OFFCURVE",
"432 116 OFFCURVE",
"301 116 CURVE SMOOTH"
);
}
);
};
layerId = "1B5AC656-48C3-4864-953F-2CD31E7BA751";
paths = (
{
closed = 1;
nodes = (
"300 0 LINE SMOOTH",
"542 0 OFFCURVE",
"659 149 OFFCURVE",
"659 349 CURVE SMOOTH",
"659 550 OFFCURVE",
"542 700 OFFCURVE",
"300 700 CURVE SMOOTH",
"121 700 LINE",
"125 574 LINE",
"283 574 LINE SMOOTH",
"449 574 OFFCURVE",
"514 476 OFFCURVE",
"514 349 CURVE SMOOTH",
"514 222 OFFCURVE",
"449 126 OFFCURVE",
"283 126 CURVE SMOOTH",
"150 126 LINE",
"155 0 LINE"
);
},
{
closed = 1;
nodes = (
"190 0 LINE",
"190 700 LINE",
"50 700 LINE",
"50 0 LINE"
);
}
);
width = 684;
}
);
leftKerningGroup = H;
leftMetricsKey = H;
rightKerningGroup = O;
rightMetricsKey = O;
unicode = 0044;
},
{
glyphname = E;
lastChange = "2021-10-21 04:05:28 +0000";
layers = (
{
anchors = (
{
name = bottom;
position = "{270, 0}";
},
{
name = ogonek;
position = "{359, 0}";
},
{
name = top;
position = "{260, 700}";
}
);
layerId = "1B5AC656-48C3-4864-953F-2CD31E7BA751";
paths = (
{
closed = 1;
nodes = (
"462 0 LINE",
"462 126 LINE",
"145 126 LINE",
"190 81 LINE",
"190 339 LINE",
"145 295 LINE",
"455 295 LINE",
"455 417 LINE",
"145 417 LINE",
"190 373 LINE",
"190 619 LINE",
"145 574 LINE",
"460 574 LINE",
"460 700 LINE",
"50 700 LINE",
"50 0 LINE"
);
}
);
width = 501;
}
);
leftKerningGroup = H;
leftMetricsKey = H;
rightKerningGroup = E;
unicode = 0045;
},
{
glyphname = Schwa;
lastChange = "2021-10-27 02:25:09 +0000";
layers = (
{
background = {
paths = (
{
closed = 1;
nodes = (
"577 -13 OFFCURVE",
"733 149 OFFCURVE",
"733 349 CURVE SMOOTH",
"733 550 OFFCURVE",
"577 713 OFFCURVE",
"370 713 CURVE SMOOTH",
"162 713 OFFCURVE",
"5 550 OFFCURVE",
"5 349 CURVE SMOOTH",
"5 149 OFFCURVE",
"162 -13 OFFCURVE",
"370 -13 CURVE SMOOTH"
);
},
{
closed = 1;
nodes = (
"234 117 OFFCURVE",
"150 222 OFFCURVE",
"150 349 CURVE SMOOTH",
"150 476 OFFCURVE",
"234 583 OFFCURVE",
"370 583 CURVE SMOOTH",
"505 583 OFFCURVE",
"588 476 OFFCURVE",
"588 349 CURVE SMOOTH",
"588 222 OFFCURVE",
"505 117 OFFCURVE",
"370 117 CURVE SMOOTH"
);
}
);
};
layerId = "1B5AC656-48C3-4864-953F-2CD31E7BA751";
paths = (
{
closed = 1;
nodes = (
"582 -17 OFFCURVE",
"730 148 OFFCURVE",
"730 348 CURVE SMOOTH",
"730 548 OFFCURVE",
"614 711 OFFCURVE",
"361 711 CURVE SMOOTH",
"237 711 OFFCURVE",
"121 652 OFFCURVE",
"65 566 CURVE",
"185 476 LINE",
"221 537 OFFCURVE",
"289 579 OFFCURVE",
"362 579 CURVE SMOOTH",
"499 579 OFFCURVE",
"559 501 OFFCURVE",
"573 394 CURVE",
"576 348 LINE SMOOTH",
"582 212 OFFCURVE",
"503 110 OFFCURVE",
"380 110 CURVE SMOOTH",
"250 110 OFFCURVE",
"164 229 OFFCURVE",
"177 348 CURVE",
"126 278 LINE",
"617 287 LINE",
"617 403 LINE",
"27 403 LINE",
"23 381 OFFCURVE",
"22 368 OFFCURVE",
"22 348 CURVE SMOOTH",
"22 148 OFFCURVE",
"166 -17 OFFCURVE",
"374 -17 CURVE SMOOTH"
);
}
);
width = 755;
}
);
leftKerningGroup = O;
leftMetricsKey = "=O-3";
rightKerningGroup = O;
rightMetricsKey = O;
unicode = 018F;
},
{
glyphname = F;
lastChange = "2021-09-17 05:51:06 +0000";
layers = (
{
anchors = (
{
name = bottom;
position = "{121, 0}";
},
{
name = ogonek;
position = "{190, 0}";
},
{
name = top;
position = "{275, 700}";
}
);
layerId = "1B5AC656-48C3-4864-953F-2CD31E7BA751";
paths = (
{
closed = 1;
nodes = (
"190 0 LINE",
"190 330 LINE",
"145 286 LINE",
"456 286 LINE",
"456 410 LINE",
"145 410 LINE",
"190 366 LINE",
"190 619 LINE",
"145 574 LINE",
"461 574 LINE",
"461 700 LINE",
"50 700 LINE",
"50 0 LINE"
);
}
);
width = 496;
}
);
leftKerningGroup = H;
leftMetricsKey = H;
unicode = 0046;
},
{
glyphname = G;
lastChange = "2021-10-26 23:56:33 +0000";
layers = (
{
anchors = (
{
name = bottom;
position = "{390, 0}";
},
{
name = ogonek;
position = "{521, 9}";
},
{
name = top;
position = "{390, 700}";
}
);
background = {
paths = (
{
closed = 1;
nodes = (
"182 -13 OFFCURVE",
"25 149 OFFCURVE",
"25 349 CURVE SMOOTH",
"25 550 OFFCURVE",
"174 713 OFFCURVE",
"390 713 CURVE SMOOTH",
"504 713 OFFCURVE",
"583 678 OFFCURVE",
"646 603 CURVE",
"547 517 LINE",
"505 561 OFFCURVE",
"453 583 OFFCURVE",
"390 583 CURVE SMOOTH",
"254 583 OFFCURVE",
"170 477 OFFCURVE",
"170 349 CURVE SMOOTH",
"170 221 OFFCURVE",
"255 116 OFFCURVE",
"393 116 CURVE SMOOTH",
"461 116 OFFCURVE",
"512 140 OFFCURVE",
"553 185 CURVE",
"655 98 LINE",
"602 34 OFFCURVE",
"512 -13 OFFCURVE",
"390 -13 CURVE SMOOTH"
);
},
{
closed = 1;
nodes = (
"597 -13 OFFCURVE",
"753 149 OFFCURVE",
"753 349 CURVE SMOOTH",
"753 550 OFFCURVE",
"597 713 OFFCURVE",
"390 713 CURVE SMOOTH",
"182 713 OFFCURVE",
"25 550 OFFCURVE",
"25 349 CURVE SMOOTH",
"25 149 OFFCURVE",
"182 -13 OFFCURVE",
"390 -13 CURVE SMOOTH"
);
},
{
closed = 1;
nodes = (
"254 116 OFFCURVE",
"170 222 OFFCURVE",
"170 349 CURVE SMOOTH",
"170 476 OFFCURVE",
"254 583 OFFCURVE",
"390 583 CURVE SMOOTH",
"525 583 OFFCURVE",
"608 476 OFFCURVE",
"608 349 CURVE SMOOTH",
"608 222 OFFCURVE",
"525 116 OFFCURVE",
"390 116 CURVE SMOOTH"
);
}
);
};
layerId = "1B5AC656-48C3-4864-953F-2CD31E7BA751";
paths = (
{
closed = 1;
nodes = (
"600 -13 OFFCURVE",
"727 128 OFFCURVE",
"727 322 CURVE SMOOTH",
"727 344 OFFCURVE",
"725 379 OFFCURVE",
"722 400 CURVE",
"588 285 LINE",
"575 170 OFFCURVE",
"504 115 OFFCURVE",
"390 115 CURVE SMOOTH",
"255 115 OFFCURVE",
"170 221 OFFCURVE",
"170 349 CURVE SMOOTH",
"170 477 OFFCURVE",
"255 583 OFFCURVE",
"390 583 CURVE SMOOTH",
"455 583 OFFCURVE",
"509 558 OFFCURVE",
"547 517 CURVE",
"647 603 LINE",
"589 674 OFFCURVE",
"509 713 OFFCURVE",
"390 713 CURVE SMOOTH",
"182 713 OFFCURVE",
"25 550 OFFCURVE",
"25 349 CURVE SMOOTH",
"25 149 OFFCURVE",
"182 -13 OFFCURVE",
"390 -13 CURVE SMOOTH"
);
},
{
closed = 1;
nodes = (
"666 277 LINE",
"722 400 LINE",
"357 400 LINE",
"357 274 LINE"
);
}
);
width = 752;
}
);
leftKerningGroup = O;
leftMetricsKey = O;
rightKerningGroup = G;
unicode = 0047;
},
{
glyphname = H;
lastChange = "2021-10-07 05:08:06 +0000";
layers = (
{
anchors = (
{
name = bottom;
position = "{335, 0}";
},
{
name = ogonek;
position = "{620, 0}";
},
{
name = top;
position = "{335, 700}";
}
);
background = {
paths = (
{
closed = 1;
nodes = (
"462 0 LINE",
"462 126 LINE",
"145 126 LINE",
"190 81 LINE",
"190 335 LINE",
"145 290 LINE",
"455 290 LINE",
"455 416 LINE",
"145 416 LINE",
"190 371 LINE",
"190 619 LINE",
"145 574 LINE",
"460 574 LINE",
"460 700 LINE",
"50 700 LINE",
"50 0 LINE"
);
}
);
};
layerId = "1B5AC656-48C3-4864-953F-2CD31E7BA751";
paths = (
{
closed = 1;
nodes = (
"190 0 LINE",
"190 337 LINE",
"145 292 LINE",
"525 292 LINE",
"480 337 LINE",
"480 0 LINE",
"620 0 LINE",
"620 700 LINE",
"480 700 LINE",
"480 373 LINE",
"525 418 LINE",
"145 418 LINE",
"190 373 LINE",
"190 700 LINE",
"50 700 LINE",
"50 0 LINE"
);
}
);
width = 670;
}
);
leftKerningGroup = H;
rightKerningGroup = H;
unicode = 0048;
},
{
glyphname = Hbar;
lastChange = "2021-10-07 05:57:22 +0000";
layers = (
{
components = (
{
name = H;
}
);
layerId = "1B5AC656-48C3-4864-953F-2CD31E7BA751";
paths = (
{
closed = 1;
nodes = (
"666 511 LINE",
"666 605 LINE",
"4 605 LINE",
"4 511 LINE"
);
}
);
width = 670;
}
);
leftKerningGroup = H;
rightKerningGroup = H;
unicode = 0126;
},
{
glyphname = I;
lastChange = "2021-10-21 04:05:35 +0000";
layers = (
{
anchors = (
{
name = bottom;
position = "{120, 0}";
},
{
name = ogonek;
position = "{98, 0}";
},
{
name = top;
position = "{120, 700}";
}
);
layerId = "1B5AC656-48C3-4864-953F-2CD31E7BA751";
paths = (
{
closed = 1;
nodes = (
"190 0 LINE",
"190 700 LINE",
"50 700 LINE",
"50 0 LINE"
);
}
);
width = 240;
}
);
leftKerningGroup = H;
leftMetricsKey = H;
rightKerningGroup = H;
rightMetricsKey = H;
unicode = 0049;
},
{
glyphname = J;
lastChange = "2021-10-27 03:03:00 +0000";
layers = (
{
anchors = (
{
name = bottom;
position = "{143, 0}";
},
{
name = ogonek;
position = "{206, 0}";
},
{
name = top;
position = "{271, 700}";
}
);
background = {
paths = (
{
closed = 1;
nodes = (
"398 1299 OFFCURVE",
"286 1187 OFFCURVE",
"115 1187 CURVE SMOOTH",
"-56 1187 OFFCURVE",
"-168 1299 OFFCURVE",
"-168 1459 CURVE SMOOTH",
"-168 1900 LINE",
"-27 1900 LINE",
"-27 1464 LINE SMOOTH",
"-27 1375 OFFCURVE",
"19 1315 OFFCURVE",
"115 1315 CURVE SMOOTH",
"211 1315 OFFCURVE",
"257 1375 OFFCURVE",
"257 1464 CURVE SMOOTH",
"257 1900 LINE",
"398 1900 LINE",
"398 1459 LINE SMOOTH"
);
},
{
closed = 1;
nodes = (
"244 1187 OFFCURVE",
"341 1252 OFFCURVE",
"341 1410 CURVE SMOOTH",
"341 1900 LINE",
"201 1900 LINE",
"201 1406 LINE SMOOTH",
"201 1344 OFFCURVE",
"168 1315 OFFCURVE",
"116 1315 CURVE SMOOTH",
"87 1315 OFFCURVE",
"56 1328 OFFCURVE",
"37 1347 CURVE",
"-50 1249 LINE",
"-6 1203 OFFCURVE",
"39 1187 OFFCURVE",
"118 1187 CURVE SMOOTH"
);
},
{
closed = 1;
nodes = (
"265 -12 OFFCURVE",
"341 52 OFFCURVE",
"341 192 CURVE SMOOTH",
"341 700 LINE",
"201 700 LINE",
"201 190 LINE SMOOTH",
"201 136 OFFCURVE",
"166 115 OFFCURVE",
"112 115 CURVE SMOOTH",
"80 115 OFFCURVE",
"49 123 OFFCURVE",
"22 146 CURVE",
"-54 44 LINE",
"-9 4 OFFCURVE",
"54 -12 OFFCURVE",
"127 -12 CURVE SMOOTH"
);
},
{
closed = 1;
nodes = (
"254 -12 OFFCURVE",
"341 52 OFFCURVE",
"341 184 CURVE SMOOTH",
"341 700 LINE",
"201 700 LINE",
"201 184 LINE SMOOTH",
"201 139 OFFCURVE",
"167 109 OFFCURVE",
"112 109 CURVE SMOOTH",
"74 109 OFFCURVE",
"49 120 OFFCURVE",
"24 142 CURVE",
"-54 44 LINE",
"-12 7 OFFCURVE",
"48 -12 OFFCURVE",
"149 -12 CURVE SMOOTH"
);
},
{
closed = 1;
nodes = (
"24 142 LINE",
"49 120 OFFCURVE",
"74 109 OFFCURVE",
"112 109 CURVE SMOOTH",
"167 109 OFFCURVE",
"201 139 OFFCURVE",
"201 184 CURVE SMOOTH",
"201 700 LINE",
"341 700 LINE",
"341 157 LINE SMOOTH",
"341 55 OFFCURVE",
"264 -13 OFFCURVE",
"140 -13 CURVE SMOOTH",
"53 -13 OFFCURVE",
"-4 10 OFFCURVE",
"-55 42 CURVE"
);
}
);
};
layerId = "1B5AC656-48C3-4864-953F-2CD31E7BA751";
paths = (
{
closed = 1;
nodes = (
"255 -11 OFFCURVE",
"341 50 OFFCURVE",
"341 186 CURVE SMOOTH",
"341 700 LINE",
"201 700 LINE",
"201 191 LINE SMOOTH",
"201 136 OFFCURVE",
"166 115 OFFCURVE",
"119 115 CURVE SMOOTH",
"92 115 OFFCURVE",
"69 121 OFFCURVE",
"55 131 CURVE",
"2 16 LINE",
"30 -1 OFFCURVE",
"83 -11 OFFCURVE",
"138 -11 CURVE SMOOTH"
);
}
);
width = 386;
}
);
leftKerningGroup = J;
rightKerningGroup = U;
unicode = 004A;
},
{
glyphname = K;
lastChange = "2021-10-26 23:56:45 +0000";
layers = (
{
anchors = (
{
name = bottom;
position = "{303, 0}";
},
{
name = ogonek;
position = "{611, 0}";
},
{
name = top;
position = "{293, 701}";
}
);
background = {
paths = (
{
closed = 1;
nodes = (
"50 0 LINE",
"235 0 LINE",
"235 700 LINE",
"50 700 LINE"
);
},
{
closed = 1;
nodes = (
"478 0 LINE",
"693 0 LINE",
"409 363 LINE",
"194 363 LINE"
);
},
{
closed = 1;
nodes = (
"411 371 LINE",
"683 700 LINE",
"448 700 LINE",
"220 384 LINE"
);
},
{
closed = 1;
nodes = (
"296 278 LINE SMOOTH",
"453 278 OFFCURVE",
"549 350 OFFCURVE",
"549 488 CURVE SMOOTH",
"549 625 OFFCURVE",
"453 702 OFFCURVE",
"296 701 CURVE SMOOTH",
"140 700 LINE",
"140 278 LINE"
);
},
{
closed = 1;
nodes = (
"190 0 LINE",
"190 700 LINE",
"50 700 LINE",
"50 0 LINE"
);
},
{
closed = 1;
nodes = (
"190 575 LINE",
"288 575 LINE SMOOTH",
"364 575 OFFCURVE",
"407 543 OFFCURVE",
"407 487 CURVE SMOOTH",
"407 430 OFFCURVE",
"364 398 OFFCURVE",
"288 398 CURVE SMOOTH",
"190 398 LINE"
);
},
{
closed = 1;
nodes = (
"578 0 LINE",
"395 339 LINE",
"238 339 LINE",
"421 0 LINE"
);
}
);
};
layerId = "1B5AC656-48C3-4864-953F-2CD31E7BA751";
paths = (
{
closed = 1;
nodes = (
"611 0 LINE",
"297 401 LINE",
"286 331 LINE",
"591 700 LINE",
"408 700 LINE",
"151 359 LINE",
"432 0 LINE"
);
},
{
closed = 1;
nodes = (
"190 0 LINE",
"190 700 LINE",
"50 700 LINE",
"50 0 LINE"
);
}
);
width = 588;
}
);
leftKerningGroup = H;
leftMetricsKey = H;
rightKerningGroup = K;
unicode = 004B;
},
{
glyphname = L;
lastChange = "2021-10-27 22:29:46 +0000";
layers = (
{
anchors = (
{
name = bottom;
position = "{263, 0}";
},
{
name = center;
position = "{288, 370}";
},
{
name = ogonek;
position = "{451, 0}";
},
{
name = top;
position = "{116, 700}";
},
{
name = topright;
position = "{278, 700}";
}
);
background = {
paths = (
{
closed = 1;
nodes = (
"491 0 LINE",
"491 126 LINE",
"145 126 LINE",
"190 81 LINE",
"190 700 LINE",
"50 700 LINE",
"50 0 LINE"
);
}
);
};
layerId = "1B5AC656-48C3-4864-953F-2CD31E7BA751";
paths = (
{
closed = 1;
nodes = (
"451 0 LINE",
"451 126 LINE",
"145 126 LINE",
"190 81 LINE",
"190 700 LINE",
"50 700 LINE",
"50 0 LINE"
);
}
);
width = 476;
}
);
leftKerningGroup = H;
leftMetricsKey = H;
rightKerningGroup = L;
unicode = 004C;
},
{
glyphname = Lslash;
lastChange = "2021-10-31 18:46:17 +0000";
layers = (
{
background = {
paths = (
{
closed = 1;
nodes = (
"333 464 LINE",
"283 535 LINE",
"-47 305 LINE",
"3 234 LINE"
);
},
{
closed = 0;
nodes = (
"114 448 LINE",
"114 279 LINE"
);
},
{
closed = 0;
nodes = (
"124 448 LINE",
"124 279 LINE"
);
},
{
closed = 1;
nodes = (
"102 283 LINE",
"112 283 LINE",
"241 373 LINE",
"241 499 LINE",
"112 397 LINE",
"102 409 LINE",
"-24 321 LINE",
"-24 195 LINE"
);
},
{
closed = 1;
nodes = (
"114 283 LINE",
"124 283 LINE",
"283 394 LINE",
"283 528 LINE",
"124 417 LINE",
"114 417 LINE",
"3 340 LINE",
"3 206 LINE"
);
}
);
};
components = (
{
name = L;
}
);
layerId = "1B5AC656-48C3-4864-953F-2CD31E7BA751";
paths = (
{
closed = 1;
nodes = (
"102 283 LINE",
"112 276 LINE",
"283 395 LINE",
"283 528 LINE",
"122 407 LINE",
"102 409 LINE",
"-24 321 LINE",
"-24 195 LINE"
);
}
);
width = 476;
}
);
leftKerningGroup = lslash;
rightKerningGroup = L;
unicode = 0141;
},
{
glyphname = M;
lastChange = "2021-10-25 02:44:53 +0000";
layers = (
{
anchors = (
{
name = bottom;
position = "{444, 0}";
},
{
name = ogonek;
position = "{813, 0}";
},
{
name = top;
position = "{443, 700}";
}
);
background = {
paths = (
{
closed = 1;
nodes = (
"195 0 LINE",
"195 469 LINE",
"175 464 LINE",
"401 0 LINE",
"484 0 LINE",
"709 462 LINE",
"689 467 LINE",
"689 0 LINE",
"817 0 LINE",
"817 700 LINE",
"687 700 LINE",
"419 138 LINE",
"471 139 LINE",
"202 700 LINE",
"67 700 LINE",
"67 0 LINE"
);
}
);
};
layerId = "1B5AC656-48C3-4864-953F-2CD31E7BA751";
paths = (
{
closed = 1;
nodes = (
"187 0 LINE",
"187 283 LINE SMOOTH",
"187 402 OFFCURVE",
"183 446 OFFCURVE",
"171 536 CURVE",
"153 537 LINE",
"410 0 LINE",
"478 0 LINE",
"735 537 LINE",
"717 536 LINE",
"705 446 OFFCURVE",
"701 402 OFFCURVE",
"701 283 CURVE SMOOTH",
"701 0 LINE",
"838 0 LINE",
"838 700 LINE",
"670 700 LINE",
"524 391 LINE SMOOTH",
"452 238 OFFCURVE",
"448 211 OFFCURVE",
"437 162 CURVE",
"457 162 LINE",
"446 211 OFFCURVE",
"441 238 OFFCURVE",
"369 391 CURVE SMOOTH",
"224 700 LINE",
"50 700 LINE",
"50 0 LINE"
);
}
);
width = 888;
}
);
leftKerningGroup = H;
leftMetricsKey = H;
rightKerningGroup = H;
rightMetricsKey = H;
unicode = 004D;
},
{
glyphname = N;
lastChange = "2021-08-31 21:52:02 +0000";
layers = (
{
anchors = (
{
name = bottom;
position = "{385, 0}";
},
{
name = ogonek;
position = "{666, 0}";
},
{
name = top;
position = "{376, 700}";
}
);
background = {
paths = (
{
closed = 1;
nodes = (
"50 0 LINE",
"178 0 LINE",
"178 700 LINE",
"50 700 LINE"
);
},
{
closed = 1;
nodes = (
"540 0 LINE",
"668 0 LINE",
"668 700 LINE",
"540 700 LINE"
);
},
{
closed = 1;
nodes = (
"579 -3 LINE",
"677 79 LINE",
"169 688 LINE",
"71 605 LINE"
);
}
);
};
layerId = "1B5AC656-48C3-4864-953F-2CD31E7BA751";
paths = (
{
closed = 1;
nodes = (
"180 0 LINE",
"180 365 LINE SMOOTH",
"180 415 OFFCURVE",
"179 467 OFFCURVE",
"172 496 CURVE",
"165 495 LINE",
"181 468 OFFCURVE",
"201 444 OFFCURVE",
"221 421 CURVE SMOOTH",
"575 0 LINE",
"666 0 LINE",
"666 700 LINE",
"538 700 LINE",
"538 351 LINE SMOOTH",
"538 301 OFFCURVE",
"539 249 OFFCURVE",
"546 220 CURVE",
"553 221 LINE",
"537 248 OFFCURVE",
"517 272 OFFCURVE",
"497 295 CURVE SMOOTH",
"156 700 LINE",
"50 700 LINE",
"50 0 LINE"
);
}
);
width = 716;
}
);
leftKerningGroup = H;
leftMetricsKey = H;
rightKerningGroup = H;
rightMetricsKey = H;
unicode = 004E;
},
{
glyphname = Eng;
lastChange = "2021-10-07 05:40:57 +0000";
layers = (
{
components = (
{
name = N;
}
);
layerId = "1B5AC656-48C3-4864-953F-2CD31E7BA751";
paths = (
{
closed = 1;
nodes = (
"507 -200 LINE SMOOTH",
"610 -200 OFFCURVE",
"666 -152 OFFCURVE",
"666 -39 CURVE SMOOTH",
"666 124 LINE",
"545 120 LINE",
"545 -32 LINE SMOOTH",
"545 -65 OFFCURVE",
"529 -80 OFFCURVE",
"503 -80 CURVE SMOOTH",
"463 -80 LINE",
"463 -200 LINE"
);
}
);
width = 716;
}
);
leftKerningGroup = H;
leftMetricsKey = H;
rightKerningGroup = H;
rightMetricsKey = H;
unicode = 014A;
},
{
glyphname = O;
lastChange = "2021-10-26 23:55:08 +0000";
layers = (
{
anchors = (
{
name = bottom;
position = "{390, 0}";
},
{
name = center;
position = "{383, 338}";
},
{
name = ogonek;
position = "{490, 0}";
},
{
name = top;
position = "{390, 700}";
},
{
name = topleft;
position = "{8, 700}";
},
{
name = topright;
position = "{484, 700}";
}
);
background = {
paths = (
{
closed = 1;
nodes = (
"203 0 LINE",
"203 526 LINE",
"149 522 LINE",
"617 0 LINE",
"722 0 LINE",
"722 700 LINE",
"581 700 LINE",
"581 183 LINE",
"636 193 LINE",
"181 700 LINE",
"62 700 LINE",
"62 0 LINE"
);
},
{
closed = 1;
nodes = (
"597 -13 OFFCURVE",
"753 149 OFFCURVE",
"753 349 CURVE SMOOTH",
"753 550 OFFCURVE",
"597 713 OFFCURVE",
"390 713 CURVE SMOOTH",
"182 713 OFFCURVE",
"25 550 OFFCURVE",
"25 349 CURVE SMOOTH",
"25 149 OFFCURVE",
"182 -13 OFFCURVE",
"390 -13 CURVE SMOOTH"
);
},
{
closed = 1;
nodes = (
"258 116 OFFCURVE",
"174 222 OFFCURVE",
"174 349 CURVE SMOOTH",
"174 476 OFFCURVE",
"258 583 OFFCURVE",
"390 583 CURVE SMOOTH",
"521 583 OFFCURVE",
"604 476 OFFCURVE",
"604 349 CURVE SMOOTH",
"604 222 OFFCURVE",
"521 116 OFFCURVE",
"390 116 CURVE SMOOTH"
);
}
);
};
layerId = "1B5AC656-48C3-4864-953F-2CD31E7BA751";
paths = (
{
closed = 1;
nodes = (
"597 -13 OFFCURVE",
"753 149 OFFCURVE",
"753 349 CURVE SMOOTH",
"753 550 OFFCURVE",
"597 713 OFFCURVE",
"390 713 CURVE SMOOTH",
"182 713 OFFCURVE",
"25 550 OFFCURVE",
"25 349 CURVE SMOOTH",
"25 149 OFFCURVE",
"182 -13 OFFCURVE",
"390 -13 CURVE SMOOTH"
);
},
{
closed = 1;
nodes = (
"254 117 OFFCURVE",
"170 222 OFFCURVE",
"170 349 CURVE SMOOTH",
"170 476 OFFCURVE",
"254 583 OFFCURVE",
"390 583 CURVE SMOOTH",
"525 583 OFFCURVE",
"608 476 OFFCURVE",
"608 349 CURVE SMOOTH",
"608 222 OFFCURVE",
"525 117 OFFCURVE",
"390 117 CURVE SMOOTH"
);
}
);
width = 778;
}
);
leftKerningGroup = O;
rightKerningGroup = O;
unicode = 004F;
},
{
glyphname = OE;
lastChange = "2021-09-19 22:26:02 +0000";
layers = (
{
anchors = (
{
name = bottom;
position = "{605, 0}";
},
{
name = ogonek;
position = "{993, 0}";
},
{
name = top;
position = "{577, 700}";
}
);
background = {
paths = (
{
closed = 1;
nodes = (
"572 -13 OFFCURVE",
"728 149 OFFCURVE",
"728 349 CURVE SMOOTH",
"728 550 OFFCURVE",
"572 713 OFFCURVE",
"365 713 CURVE SMOOTH",
"157 713 OFFCURVE",
"0 550 OFFCURVE",
"0 349 CURVE SMOOTH",
"0 149 OFFCURVE",
"157 -13 OFFCURVE",
"365 -13 CURVE SMOOTH"
);
},
{
closed = 1;
nodes = (
"229 117 OFFCURVE",
"145 222 OFFCURVE",
"145 349 CURVE SMOOTH",
"145 476 OFFCURVE",
"229 583 OFFCURVE",
"365 583 CURVE SMOOTH",
"500 583 OFFCURVE",
"583 476 OFFCURVE",
"583 349 CURVE SMOOTH",
"583 222 OFFCURVE",
"500 117 OFFCURVE",
"365 117 CURVE SMOOTH"
);
},
{
closed = 1;
nodes = (
"997 0 LINE",
"997 126 LINE",
"680 126 LINE",
"725 81 LINE",
"725 339 LINE",
"680 295 LINE",
"990 295 LINE",
"990 417 LINE",
"680 417 LINE",
"725 373 LINE",
"725 619 LINE",
"680 574 LINE",
"995 574 LINE",
"995 700 LINE",
"585 700 LINE",
"585 0 LINE"
);
}
);
};
layerId = "1B5AC656-48C3-4864-953F-2CD31E7BA751";
paths = (
{
closed = 1;
nodes = (
"597 -13 OFFCURVE",
"679 149 OFFCURVE",
"679 349 CURVE SMOOTH",
"679 550 OFFCURVE",
"597 713 OFFCURVE",
"380 713 CURVE SMOOTH",
"182 713 OFFCURVE",
"25 550 OFFCURVE",
"25 349 CURVE SMOOTH",
"25 149 OFFCURVE",
"182 -13 OFFCURVE",
"380 -13 CURVE SMOOTH"
);
},
{
closed = 1;
nodes = (
"254 117 OFFCURVE",
"170 222 OFFCURVE",
"170 349 CURVE SMOOTH",
"170 476 OFFCURVE",
"254 583 OFFCURVE",
"390 583 CURVE SMOOTH",
"532 583 OFFCURVE",
"601 476 OFFCURVE",
"601 349 CURVE SMOOTH",
"601 222 OFFCURVE",
"532 117 OFFCURVE",
"390 117 CURVE SMOOTH"
);
},
{
closed = 1;
nodes = (
"993 0 LINE",
"993 126 LINE",
"694 126 LINE",
"721 81 LINE",
"721 339 LINE",
"676 295 LINE",
"986 295 LINE",
"986 417 LINE",
"676 417 LINE",
"721 373 LINE",
"721 619 LINE",
"676 574 LINE",
"991 574 LINE",
"991 700 LINE",
"605 700 LINE",
"605 0 LINE"
);
}
);
width = 1032;
}
);
leftKerningGroup = O;
leftMetricsKey = O;
rightKerningGroup = E;
rightMetricsKey = E;
unicode = 0152;
},
{
glyphname = P;
lastChange = "2021-09-17 05:55:43 +0000";
layers = (
{
anchors = (
{
name = bottom;
position = "{120, 0}";
},
{
name = ogonek;
position = "{190, 0}";
},
{
name = top;
position = "{285, 700}";
}
);
layerId = "1B5AC656-48C3-4864-953F-2CD31E7BA751";
paths = (
{
closed = 1;
nodes = (
"190 0 LINE",
"190 254 LINE",
"286 254 LINE SMOOTH",
"443 254 OFFCURVE",
"539 331 OFFCURVE",
"539 479 CURVE SMOOTH",
"539 626 OFFCURVE",
"443 700 OFFCURVE",
"286 700 CURVE SMOOTH",
"50 700 LINE",
"50 0 LINE"
);
},
{
closed = 1;
nodes = (
"190 575 LINE",
"278 575 LINE SMOOTH",
"354 575 OFFCURVE",
"397 544 OFFCURVE",
"397 478 CURVE SMOOTH",
"397 411 OFFCURVE",
"354 380 OFFCURVE",
"278 380 CURVE SMOOTH",
"190 380 LINE"
);
}
);
width = 549;
}
);
leftKerningGroup = H;
leftMetricsKey = H;
rightKerningGroup = P;
unicode = 0050;
},
{
glyphname = Thorn;
lastChange = "2021-10-31 18:19:31 +0000";
layers = (
{
anchors = (
{
name = bottom;
position = "{120, 0}";
},
{
name = ogonek;
position = "{190, 0}";
},
{
name = top;
position = "{120, 700}";
}
);
layerId = "1B5AC656-48C3-4864-953F-2CD31E7BA751";
paths = (
{
closed = 1;
nodes = (
"190 0 LINE",
"190 119 LINE",
"287 119 LINE SMOOTH",
"444 119 OFFCURVE",
"540 204 OFFCURVE",
"540 352 CURVE SMOOTH",
"540 499 OFFCURVE",
"444 582 OFFCURVE",
"287 582 CURVE SMOOTH",
"188 582 LINE",
"188 700 LINE",
"50 700 LINE",
"50 0 LINE"
);
},
{
closed = 1;
nodes = (
"190 456 LINE",
"279 456 LINE SMOOTH",
"355 456 OFFCURVE",
"398 422 OFFCURVE",
"398 351 CURVE SMOOTH",
"398 279 OFFCURVE",
"355 245 OFFCURVE",
"279 245 CURVE SMOOTH",
"190 245 LINE"
);
}
);
width = 553;
}
);
leftKerningGroup = H;
rightKerningGroup = Thorn;
unicode = 00DE;
},
{
glyphname = Q;
lastChange = "2021-09-15 03:09:21 +0000";
layers = (
{
anchors = (
{
name = bottom;
position = "{390, 0}";
},
{
name = ogonek;
position = "{740, -57}";
},
{
name = top;
position = "{390, 700}";
}
);
background = {
paths = (
{
closed = 1;
nodes = (
"753 -93 LINE",
"899 -93 LINE",
"899 480 LINE",
"753 480 LINE"
);
}
);
};
components = (
{
name = O;
}
);
layerId = "1B5AC656-48C3-4864-953F-2CD31E7BA751";
paths = (
{
closed = 1;
nodes = (
"740 -57 LINE",
"602 150 LINE",
"597 172 LINE",
"539 258 LINE",
"387 258 LINE",
"498 91 LINE",
"501 71 LINE",
"588 -57 LINE"
);
}
);
width = 778;
}
);
leftKerningGroup = O;
leftMetricsKey = O;
rightKerningGroup = O;
unicode = 0051;
},
{
glyphname = R;
lastChange = "2025-02-13 14:20:19 +0000";
layers = (
{
anchors = (
{
name = bottom;
position = "{305, 0}";
},
{
name = ogonek;
position = "{557, 0}";
},
{
name = top;
position = "{280, 700}";
}
);
background = {
paths = (
{
closed = 1;
nodes = (
"578 0 LINE",
"424 339 LINE",
"257 339 LINE",
"411 0 LINE"
);
},
{
closed = 1;
nodes = (
"296 272 LINE SMOOTH",
"453 272 OFFCURVE",
"549 350 OFFCURVE",
"549 488 CURVE SMOOTH",
"549 625 OFFCURVE",
"453 702 OFFCURVE",
"296 701 CURVE SMOOTH",
"140 700 LINE",
"140 272 LINE"
);
},
{
closed = 1;
nodes = (
"190 0 LINE",
"190 700 LINE",
"50 700 LINE",
"50 0 LINE"
);
},
{
closed = 1;
nodes = (
"190 575 LINE",
"288 575 LINE SMOOTH",
"364 575 OFFCURVE",
"407 543 OFFCURVE",
"407 487 CURVE SMOOTH",
"407 430 OFFCURVE",
"364 398 OFFCURVE",
"288 398 CURVE SMOOTH",
"190 398 LINE"
);
},
{
closed = 1;
nodes = (
"578 0 LINE",
"395 339 LINE",
"238 339 LINE",
"421 0 LINE"
);
}
);
};
layerId = "1B5AC656-48C3-4864-953F-2CD31E7BA751";
paths = (
{
closed = 1;
nodes = (
"190 0 LINE",
"190 273 LINE",
"271 273 LINE",
"276 278 LINE",
"433 278 OFFCURVE",
"529 350 OFFCURVE",
"529 488 CURVE SMOOTH",
"529 625 OFFCURVE",
"433 700 OFFCURVE",
"276 700 CURVE SMOOTH",
"50 700 LINE",
"50 0 LINE"
);
},
{
closed = 1;
nodes = (
"557 0 LINE",
"325 339 LINE",
"164 339 LINE",
"210 288 LINE",
"222 258 OFFCURVE",
"231 240 OFFCURVE",
"243 222 CURVE SMOOTH",
"392 0 LINE"
);
},
{
closed = 1;
nodes = (
"190 574 LINE",
"268 574 LINE SMOOTH",
"344 574 OFFCURVE",
"387 543 OFFCURVE",
"387 487 CURVE SMOOTH",
"387 430 OFFCURVE",
"344 399 OFFCURVE",
"268 399 CURVE SMOOTH",
"190 399 LINE"
);
}
);
width = 551;
}
);
leftKerningGroup = H;
rightKerningGroup = R;
unicode = 0052;
},
{
glyphname = S;
lastChange = "2021-10-27 03:03:20 +0000";
layers = (
{
anchors = (
{
name = bottom;
position = "{282, 0}";
},
{
name = ogonek;
position = "{382, 0}";
},
{
name = top;
position = "{299, 700}";
}
);
background = {
paths = (
{
closed = 1;
nodes = (
"57 2726 OFFCURVE",
"150 2812 OFFCURVE",
"294 2812 CURVE SMOOTH",
"422 2812 OFFCURVE",
"490 2764 OFFCURVE",
"542 2682 CURVE",
"422 2608 LINE",
"388 2662 OFFCURVE",
"358 2687 OFFCURVE",
"297 2687 CURVE SMOOTH",
"239 2687 OFFCURVE",
"202 2660 OFFCURVE",
"202 2614 CURVE SMOOTH",
"202 2574 OFFCURVE",
"227 2555 OFFCURVE",
"277 2539 CURVE SMOOTH",
"365 2511 LINE SMOOTH",
"459 2481 OFFCURVE",
"537 2427 OFFCURVE",
"537 2300 CURVE SMOOTH",
"537 2168 OFFCURVE",
"437 2087 OFFCURVE",
"286 2087 CURVE SMOOTH",
"156 2087 OFFCURVE",
"73 2132 OFFCURVE",
"6 2238 CURVE",
"131 2318 LINE",
"169 2249 OFFCURVE",
"221 2212 OFFCURVE",
"294 2212 CURVE SMOOTH",
"353 2212 OFFCURVE",
"392 2244 OFFCURVE",
"392 2293 CURVE SMOOTH",
"392 2341 OFFCURVE",
"349 2371 OFFCURVE",
"294 2388 CURVE SMOOTH",
"206 2415 LINE SMOOTH",
"129 2439 OFFCURVE",
"57 2494 OFFCURVE",
"57 2608 CURVE SMOOTH"
);
},
{
closed = 1;
nodes = (
"430 1287 OFFCURVE",
"531 1360 OFFCURVE",
"531 1499 CURVE SMOOTH",
"531 1660 OFFCURVE",
"395 1695 OFFCURVE",
"313 1722 CURVE SMOOTH",
"252 1742 OFFCURVE",
"207 1765 OFFCURVE",
"207 1816 CURVE SMOOTH",
"207 1858 OFFCURVE",
"237 1887 OFFCURVE",
"299 1887 CURVE SMOOTH",
"357 1887 OFFCURVE",
"388 1862 OFFCURVE",
"422 1808 CURVE",
"542 1882 LINE",
"490 1964 OFFCURVE",
"422 2012 OFFCURVE",
"307 2012 CURVE SMOOTH",
"155 2012 OFFCURVE",
"62 1929 OFFCURVE",
"62 1806 CURVE SMOOTH",
"62 1686 OFFCURVE",
"150 1634 OFFCURVE",
"236 1604 CURVE SMOOTH",
"316 1576 OFFCURVE",
"386 1557 OFFCURVE",
"386 1489 CURVE SMOOTH",
"386 1441 OFFCURVE",
"352 1412 OFFCURVE",
"288 1412 CURVE SMOOTH",
"221 1412 OFFCURVE",
"167 1443 OFFCURVE",
"131 1515 CURVE",
"10 1438 LINE",
"71 1331 OFFCURVE",
"163 1287 OFFCURVE",
"280 1287 CURVE SMOOTH"
);
},
{
closed = 1;
nodes = (
"429 -13 OFFCURVE",
"536 63 OFFCURVE",
"536 202 CURVE SMOOTH",
"536 364 OFFCURVE",
"390 398 OFFCURVE",
"308 424 CURVE SMOOTH",
"247 443 OFFCURVE",
"197 460 OFFCURVE",
"197 511 CURVE SMOOTH",
"197 557 OFFCURVE",
"238 587 OFFCURVE",
"294 587 CURVE SMOOTH",
"346 587 OFFCURVE",
"378 562 OFFCURVE",
"412 508 CURVE",
"532 582 LINE",
"480 664 OFFCURVE",
"410 712 OFFCURVE",
"301 712 CURVE SMOOTH",
"153 712 OFFCURVE",
"52 627 OFFCURVE",
"52 501 CURVE SMOOTH",
"52 393 OFFCURVE",
"123 332 OFFCURVE",
"231 304 CURVE SMOOTH",
"317 282 OFFCURVE",
"391 260 OFFCURVE",
"391 192 CURVE SMOOTH",
"391 144 OFFCURVE",
"351 112 OFFCURVE",
"286 112 CURVE SMOOTH",
"225 112 OFFCURVE",
"167 143 OFFCURVE",
"131 215 CURVE",
"10 138 LINE",
"71 31 OFFCURVE",
"167 -13 OFFCURVE",
"278 -13 CURVE SMOOTH"
);
}
);
};
layerId = "1B5AC656-48C3-4864-953F-2CD31E7BA751";
paths = (
{
closed = 1;
nodes = (
"437 -13 OFFCURVE",
"534 73 OFFCURVE",
"534 200 CURVE SMOOTH",
"534 360 OFFCURVE",
"390 396 OFFCURVE",
"308 422 CURVE SMOOTH",
"247 441 OFFCURVE",
"197 458 OFFCURVE",
"197 510 CURVE SMOOTH",
"197 557 OFFCURVE",
"238 587 OFFCURVE",
"294 587 CURVE SMOOTH",
"346 587 OFFCURVE",
"378 562 OFFCURVE",
"412 508 CURVE",
"532 582 LINE",
"480 664 OFFCURVE",
"410 712 OFFCURVE",
"301 712 CURVE SMOOTH",
"153 712 OFFCURVE",
"54 629 OFFCURVE",
"54 503 CURVE SMOOTH",
"54 397 OFFCURVE",
"123 334 OFFCURVE",
"231 306 CURVE SMOOTH",
"317 284 OFFCURVE",
"391 262 OFFCURVE",
"391 192 CURVE SMOOTH",
"391 144 OFFCURVE",
"351 112 OFFCURVE",
"286 112 CURVE SMOOTH",
"225 112 OFFCURVE",
"167 143 OFFCURVE",
"131 215 CURVE",
"10 138 LINE",
"71 31 OFFCURVE",
"167 -13 OFFCURVE",
"278 -13 CURVE SMOOTH"
);
}
);
width = 556;
}
);
leftKerningGroup = S;
rightKerningGroup = S;
unicode = 0053;
},
{
glyphname = Germandbls;
lastChange = "2021-10-31 18:47:51 +0000";
layers = (
{
background = {
paths = (
{
closed = 1;
nodes = (
"483 2194 OFFCURVE",
"570 2304 OFFCURVE",
"570 2429 CURVE SMOOTH",
"570 2530 OFFCURVE",
"509 2614 OFFCURVE",
"335 2614 CURVE",
"346 2585 LINE",
"457 2597 OFFCURVE",
"497 2680 OFFCURVE",
"497 2749 CURVE SMOOTH",
"497 2849 OFFCURVE",
"420 2942 OFFCURVE",
"266 2942 CURVE SMOOTH",
"122 2942 OFFCURVE",
"35 2849 OFFCURVE",
"35 2724 CURVE SMOOTH",
"35 2200 LINE",
"170 2200 LINE",
"170 2724 LINE SMOOTH",
"170 2786 OFFCURVE",
"207 2823 OFFCURVE",
"267 2823 CURVE SMOOTH",
"325 2823 OFFCURVE",
"363 2786 OFFCURVE",
"363 2734 CURVE SMOOTH",
"363 2661 OFFCURVE",
"315 2636 OFFCURVE",
"269 2636 CURVE",
"269 2535 LINE",
"377 2535 OFFCURVE",
"431 2489 OFFCURVE",
"431 2429 CURVE SMOOTH",
"431 2372 OFFCURVE",
"388 2321 OFFCURVE",
"262 2321 CURVE",
"262 2194 LINE"
);
},
{
closed = 1;
nodes = (
"132 1129 LINE",
"99 1146 OFFCURVE",
"71 1173 OFFCURVE",
"51 1215 CURVE",
"-70 1138 LINE",
"-31 1069 OFFCURVE",
"23 1026 OFFCURVE",
"86 1005 CURVE"
);
},
{
closed = 1;
nodes = (
"166 1005 LINE",
"201 993 OFFCURVE",
"239 987 OFFCURVE",
"278 987 CURVE SMOOTH",
"429 987 OFFCURVE",
"536 1063 OFFCURVE",
"536 1202 CURVE SMOOTH",
"536 1364 OFFCURVE",
"390 1398 OFFCURVE",
"308 1424 CURVE SMOOTH",
"247 1443 OFFCURVE",
"197 1460 OFFCURVE",
"197 1511 CURVE SMOOTH",
"197 1557 OFFCURVE",
"238 1587 OFFCURVE",
"294 1587 CURVE SMOOTH",
"346 1587 OFFCURVE",
"378 1562 OFFCURVE",
"412 1508 CURVE",
"532 1582 LINE",
"480 1664 OFFCURVE",
"410 1712 OFFCURVE",
"301 1712 CURVE SMOOTH",
"153 1712 OFFCURVE",
"52 1627 OFFCURVE",
"52 1501 CURVE SMOOTH",
"52 1393 OFFCURVE",
"123 1332 OFFCURVE",
"231 1304 CURVE SMOOTH",
"317 1282 OFFCURVE",
"391 1260 OFFCURVE",
"391 1192 CURVE SMOOTH",
"391 1144 OFFCURVE",
"351 1112 OFFCURVE",
"286 1112 CURVE SMOOTH",
"260 1112 OFFCURVE",
"235 1118 OFFCURVE",
"212 1129 CURVE"
);
},
{
closed = 1;
nodes = (
"517 -13 OFFCURVE",
"598 100 OFFCURVE",
"598 212 CURVE SMOOTH",
"598 309 OFFCURVE",
"527 425 OFFCURVE",
"335 425 CURVE",
"335 359 LINE",
"495 378 OFFCURVE",
"537 480 OFFCURVE",
"537 549 CURVE SMOOTH",
"537 649 OFFCURVE",
"452 743 OFFCURVE",
"318 743 CURVE SMOOTH",
"176 743 OFFCURVE",
"85 641 OFFCURVE",
"85 514 CURVE SMOOTH",
"85 0 LINE",
"220 0 LINE",
"220 514 LINE SMOOTH",
"220 584 OFFCURVE",
"261 620 OFFCURVE",
"314 620 CURVE SMOOTH",
"366 620 OFFCURVE",
"403 582 OFFCURVE",
"403 534 CURVE SMOOTH",
"403 461 OFFCURVE",
"352 435 OFFCURVE",
"292 435 CURVE",
"292 327 LINE",
"417 346 OFFCURVE",
"464 280 OFFCURVE",
"464 215 CURVE SMOOTH",
"464 140 OFFCURVE",
"409 108 OFFCURVE",
"363 108 CURVE SMOOTH",
"334 108 OFFCURVE",
"309 118 OFFCURVE",
"290 130 CURVE",
"239 14 LINE",
"269 -3 OFFCURVE",
"309 -13 OFFCURVE",
"367 -13 CURVE SMOOTH"
);
},
{
closed = 1;
nodes = (
"817 303 LINE",
"817 426 LINE",
"457 426 LINE",
"457 405 LINE",
"474 422 OFFCURVE",
"488 440 OFFCURVE",
"499 458 CURVE SMOOTH",
"817 988 LINE",
"817 1003 LINE",
"272 1003 LINE",
"272 880 LINE",
"613 880 LINE",
"613 901 LINE",
"596 884 OFFCURVE",
"582 866 OFFCURVE",
"571 848 CURVE SMOOTH",
"253 318 LINE",
"253 303 LINE"
);
}
);
};
layerId = "1B5AC656-48C3-4864-953F-2CD31E7BA751";
paths = (
{
closed = 1;
nodes = (
"524 -13 OFFCURVE",
"598 99 OFFCURVE",
"598 206 CURVE SMOOTH",
"598 291 OFFCURVE",
"556 407 OFFCURVE",
"369 407 CURVE",
"421 346 LINE",
"622 686 LINE",
"622 702 LINE",
"321 702 LINE SMOOTH",
"137 702 OFFCURVE",
"45 609 OFFCURVE",
"45 434 CURVE SMOOTH",
"45 0 LINE",
"184 0 LINE",
"184 424 LINE SMOOTH",
"184 536 OFFCURVE",
"222 577 OFFCURVE",
"322 577 CURVE SMOOTH",
"437 577 LINE",
"447 598 LINE",
"420 581 OFFCURVE",
"406 563 OFFCURVE",
"395 545 CURVE SMOOTH",
"259 319 LINE",
"259 306 LINE",
"348 306 LINE SMOOTH",
"421 306 OFFCURVE",
"464 269 OFFCURVE",
"464 207 CURVE SMOOTH",
"464 156 OFFCURVE",
"430 108 OFFCURVE",
"364 108 CURVE SMOOTH",
"327 108 OFFCURVE",
"305 119 OFFCURVE",
"286 136 CURVE",
"210 29 LINE",
"259 -4 OFFCURVE",
"303 -13 OFFCURVE",
"376 -13 CURVE SMOOTH"
);
}
);
width = 639;
}
);
leftKerningGroup = H;
leftMetricsKey = "=H-5";
rightKerningGroup = Germandbls;
unicode = 1E9E;
},
{
glyphname = T;
lastChange = "2021-10-27 22:33:38 +0000";
layers = (
{
anchors = (
{
name = bottom;
position = "{285, 0}";
},
{
name = center;
position = "{285, 323}";
},
{
name = ogonek;
position = "{355, 0}";
},
{
name = top;
position = "{285, 700}";
}
);
layerId = "1B5AC656-48C3-4864-953F-2CD31E7BA751";
paths = (
{
closed = 1;
nodes = (
"355 0 LINE",
"355 619 LINE",
"310 574 LINE",
"555 574 LINE",
"555 700 LINE",
"15 700 LINE",
"15 574 LINE",
"260 574 LINE",
"215 619 LINE",
"215 0 LINE"
);
}
);
width = 570;
}
);
leftKerningGroup = T;
rightKerningGroup = T;
unicode = 0054;
},
{
glyphname = U;
lastChange = "2021-10-27 22:33:47 +0000";
layers = (
{
anchors = (
{
name = bottom;
position = "{323, 0}";
},
{
name = ogonek;
position = "{352, 14}";
},
{
name = top;
position = "{323, 684}";
},
{
name = top_ring;
position = "{323, 647}";
},
{
name = topright;
position = "{614, 700}";
}
);
background = {
paths = (
{
closed = 1;
nodes = (
"180 0 LINE",
"180 700 LINE",
"40 700 LINE",
"40 0 LINE"
);
},
{
closed = 1;
nodes = (
"109 292 LINE",
"521 292 LINE",
"521 418 LINE",
"109 418 LINE"
);
},
{
closed = 1;
nodes = (
"630 0 LINE",
"630 700 LINE",
"490 700 LINE",
"490 0 LINE"
);
},
{
closed = 1;
nodes = (
"531 -13 OFFCURVE",
"687 149 OFFCURVE",
"687 349 CURVE SMOOTH",
"687 550 OFFCURVE",
"531 713 OFFCURVE",
"324 713 CURVE SMOOTH",
"116 713 OFFCURVE",
"-41 550 OFFCURVE",
"-41 349 CURVE SMOOTH",
"-41 149 OFFCURVE",
"116 -13 OFFCURVE",
"324 -13 CURVE SMOOTH"
);
},
{
closed = 1;
nodes = (
"192 116 OFFCURVE",
"108 222 OFFCURVE",
"108 349 CURVE SMOOTH",
"108 476 OFFCURVE",
"192 583 OFFCURVE",
"324 583 CURVE SMOOTH",
"455 583 OFFCURVE",
"538 476 OFFCURVE",
"538 349 CURVE SMOOTH",
"538 222 OFFCURVE",
"455 116 OFFCURVE",
"324 116 CURVE SMOOTH"
);
}
);
};
layerId = "1B5AC656-48C3-4864-953F-2CD31E7BA751";
paths = (
{
closed = 1;
nodes = (
"494 -13 OFFCURVE",
"606 99 OFFCURVE",
"606 259 CURVE SMOOTH",
"606 700 LINE",
"466 700 LINE",
"466 274 LINE SMOOTH",
"466 175 OFFCURVE",
"419 115 OFFCURVE",
"323 115 CURVE SMOOTH",
"227 115 OFFCURVE",
"180 175 OFFCURVE",
"180 274 CURVE SMOOTH",
"180 700 LINE",
"40 700 LINE",
"40 259 LINE SMOOTH",
"40 99 OFFCURVE",
"152 -13 OFFCURVE",
"323 -13 CURVE SMOOTH"
);
}
);
width = 646;
}
);
leftKerningGroup = U;
rightKerningGroup = U;
unicode = 0055;
},
{
glyphname = Uogonek;
lastChange = "2021-10-21 04:05:44 +0000";
layers = (
{
anchors = (
{
name = _ogonek;
position = "{418, 0}";
}
);
background = {
paths = (
{
closed = 1;
nodes = (
"349 -232 OFFCURVE",
"463 -206 CURVE",
"463 -121 LINE",
"410 -139 OFFCURVE",
"372 -110 OFFCURVE",
"372 -66 CURVE SMOOTH",
"372 -32 OFFCURVE",
"397 -6 OFFCURVE",
"425 2 CURVE",
"402 6 LINE",
"354 0 LINE",
"315 -9 OFFCURVE",
"279 -43 OFFCURVE",
"279 -106 CURVE SMOOTH",
"279 -163 OFFCURVE"
);
}
);
};
components = (
{
name = U;
},
{
name = ogonekcomb;
transform = "{1, 0, 0, 1.07, 352, 14}";
}
);
layerId = "1B5AC656-48C3-4864-953F-2CD31E7BA751";
width = 646;
}
);
leftKerningGroup = U;
rightKerningGroup = U;
unicode = 0172;
},
{
glyphname = V;
lastChange = "2021-10-31 17:36:36 +0000";
layers = (
{
anchors = (
{
name = bottom;
position = "{330, 0}";
},
{
name = ogonek;
position = "{407, 0}";
},
{
name = top;
position = "{330, 700}";
}
);
background = {
paths = (
{
closed = 1;
nodes = (
"390 0 LINE",
"667 700 LINE",
"515 700 LINE",
"455 534 LINE",
"442 493 LINE",
"355 255 LINE SMOOTH",
"339 211 OFFCURVE",
"326 163 OFFCURVE",
"320 119 CURVE",
"341 119 LINE",
"335 163 OFFCURVE",
"321 210 OFFCURVE",
"305 255 CURVE SMOOTH",
"218 493 LINE",
"205 534 LINE",
"145 700 LINE",
"-7 700 LINE",
"269 0 LINE"
);
}
);
};
layerId = "1B5AC656-48C3-4864-953F-2CD31E7BA751";
paths = (
{
closed = 1;
nodes = (
"397 0 LINE",
"674 700 LINE",
"515 700 LINE",
"355 255 LINE SMOOTH",
"339 211 OFFCURVE",
"328 163 OFFCURVE",
"322 119 CURVE",
"339 119 LINE",
"333 163 OFFCURVE",
"321 210 OFFCURVE",
"305 255 CURVE SMOOTH",
"145 700 LINE",
"-17 700 LINE",
"262 0 LINE"
);
}
);
width = 657;
}
);
leftMetricsKey = "=A+2";
rightMetricsKey = "=A+2";
unicode = 0056;
},
{
glyphname = W;
lastChange = "2021-10-27 22:34:11 +0000";
layers = (
{
anchors = (
{
name = bottom;
position = "{522, 0}";
},
{
name = ogonek;
position = "{819, 0}";
},
{
name = top;
position = "{528, 700}";
}
);
background = {
paths = (
{
closed = 0;
nodes = (
"318 1055 LINE SMOOTH",
"302 1011 OFFCURVE",
"291 963 OFFCURVE",
"285 919 CURVE",
"302 919 LINE",
"296 963 OFFCURVE",
"284 1010 OFFCURVE",
"268 1055 CURVE SMOOTH"
);
},
{
closed = 0;
nodes = (
"795 1055 LINE",
"779 1011 OFFCURVE",
"768 963 OFFCURVE",
"762 919 CURVE",
"779 919 LINE",
"773 963 OFFCURVE",
"761 1010 OFFCURVE",
"745 1055 CURVE"
);
},
{
closed = 0;
nodes = (
"508 1260 LINE",
"524 1304 OFFCURVE",
"535 1352 OFFCURVE",
"541 1396 CURVE",
"524 1396 LINE",
"530 1352 OFFCURVE",
"542 1305 OFFCURVE",
"558 1260 CURVE"
);
},
{
closed = 1;
nodes = (
"490 1248 LINE SMOOTH",
"502 1292 OFFCURVE",
"514 1340 OFFCURVE",
"520 1384 CURVE",
"515 1384 LINE",
"521 1340 OFFCURVE",
"533 1293 OFFCURVE",
"545 1248 CURVE SMOOTH",
"662 800 LINE",
"846 800 LINE",
"1053 1500 LINE",
"894 1500 LINE",
"781 1052 LINE SMOOTH",
"770 1008 OFFCURVE",
"758 960 OFFCURVE",
"753 916 CURVE",
"757 916 LINE",
"752 960 OFFCURVE",
"738 1007 OFFCURVE",
"726 1052 CURVE SMOOTH",
"610 1500 LINE",
"422 1500 LINE",
"305 1052 LINE SMOOTH",
"294 1008 OFFCURVE",
"280 960 OFFCURVE",
"275 916 CURVE",
"279 916 LINE",
"274 960 OFFCURVE",
"263 1007 OFFCURVE",
"252 1052 CURVE SMOOTH",
"138 1500 LINE",
"-22 1500 LINE",
"187 800 LINE",
"369 800 LINE"
);
},
{
closed = 0;
nodes = (
"-13 720 LINE",
"261 -117 LINE"
);
},
{
closed = 0;
nodes = (
"1058 720 LINE",
"784 -117 LINE"
);
},
{
closed = 0;
nodes = (
"146 720 LINE",
"383 -117 LINE"
);
},
{
closed = 1;
nodes = (
"1761 0 LINE",
"2038 700 LINE",
"1879 700 LINE",
"1719 255 LINE SMOOTH",
"1703 211 OFFCURVE",
"1692 163 OFFCURVE",
"1686 119 CURVE",
"1703 119 LINE",
"1697 163 OFFCURVE",
"1685 210 OFFCURVE",
"1669 255 CURVE SMOOTH",
"1509 700 LINE",
"1347 700 LINE",
"1626 0 LINE"
);
},
{
closed = 0;
nodes = (
"522 743 LINE",
"522 -200 LINE"
);
},
{
closed = 0;
nodes = (
"292 743 LINE",
"291 -200 LINE"
);
},
{
closed = 0;
nodes = (
"756 743 LINE",
"755 -200 LINE"
);
}
);
};
layerId = "1B5AC656-48C3-4864-953F-2CD31E7BA751";
paths = (
{
closed = 1;
nodes = (
"351 0 LINE",
"493 395 LINE SMOOTH",
"509 439 OFFCURVE",
"519 487 OFFCURVE",
"525 531 CURVE",
"519 531 LINE",
"524 487 OFFCURVE",
"535 439 OFFCURVE",
"551 395 CURVE SMOOTH",
"693 0 LINE",
"819 0 LINE",
"1053 700 LINE",
"893 700 LINE",
"781 304 LINE SMOOTH",
"768 259 OFFCURVE",
"758 212 OFFCURVE",
"753 168 CURVE",
"757 168 LINE",
"752 212 OFFCURVE",
"740 260 OFFCURVE",
"724 304 CURVE SMOOTH",
"585 700 LINE",
"459 700 LINE",
"320 304 LINE SMOOTH",
"304 260 OFFCURVE",
"294 212 OFFCURVE",
"289 168 CURVE",
"293 168 LINE",
"288 212 OFFCURVE",
"276 259 OFFCURVE",
"263 304 CURVE SMOOTH",
"151 700 LINE",
"-9 700 LINE",
"225 0 LINE"
);
}
);
width = 1044;
}
);
leftKerningGroup = W;
leftMetricsKey = "=A+10";
rightKerningGroup = W;
rightMetricsKey = "=A+10";
unicode = 0057;
},
{
glyphname = X;
lastChange = "2021-10-27 03:03:38 +0000";
layers = (
{
anchors = (
{
name = bottom;
position = "{308, 0}";
},
{
name = ogonek;
position = "{621, 0}";
},
{
name = top;
position = "{305, 700}";
}
);
layerId = "1B5AC656-48C3-4864-953F-2CD31E7BA751";
paths = (
{
closed = 1;
nodes = (
"156 0 LINE",
"308 236 LINE",
"304 236 LINE",
"452 0 LINE",
"621 0 LINE",
"356 401 LINE",
"370 314 LINE",
"610 700 LINE",
"447 700 LINE",
"304 466 LINE",
"307 466 LINE",
"168 700 LINE",
"1 700 LINE",
"243 314 LINE",
"253 401 LINE",
"-10 0 LINE"
);
}
);
width = 608;
}
);
unicode = 0058;
},
{
glyphname = Y;
lastChange = "2021-10-31 18:29:36 +0000";
layers = (
{
anchors = (
{
name = bottom;
position = "{284, 0}";
},
{
name = ogonek;
position = "{351, 0}";
},
{
name = top;
position = "{283, 700}";
}
);
layerId = "1B5AC656-48C3-4864-953F-2CD31E7BA751";
paths = (
{
closed = 1;
nodes = (
"351 0 LINE",
"351 331 LINE",
"333 246 LINE",
"588 700 LINE",
"435 700 LINE",
"330 499 LINE SMOOTH",
"311 463 OFFCURVE",
"291 424 OFFCURVE",
"283 387 CURVE",
"288 387 LINE",
"280 424 OFFCURVE",
"257 464 OFFCURVE",
"238 499 CURVE SMOOTH",
"128 700 LINE",
"-26 700 LINE",
"231 246 LINE",
"211 331 LINE",
"211 0 LINE"
);
}
);
width = 566;
}
);
leftKerningGroup = Y;
rightKerningGroup = Y;
unicode = 0059;
},
{
glyphname = Z;
lastChange = "2021-10-27 03:18:16 +0000";
layers = (
{
anchors = (
{
name = bottom;
position = "{305, 0}";
},
{
name = ogonek;
position = "{574, 0}";
},
{
name = top;
position = "{285, 700}";
}
);
background = {
paths = (
{
closed = 1;
nodes = (
"131 900 LINE",
"131 1600 LINE",
"-9 1600 LINE",
"-9 900 LINE"
);
},
{
closed = 1;
nodes = (
"60 1192 LINE",
"472 1192 LINE",
"472 1318 LINE",
"60 1318 LINE"
);
},
{
closed = 1;
nodes = (
"581 900 LINE",
"581 1600 LINE",
"441 1600 LINE",
"441 900 LINE"
);
},
{
closed = 1;
nodes = (
"169 922 LINE",
"531 1521 LINE",
"412 1593 LINE",
"49 994 LINE"
);
},
{
closed = 1;
nodes = (
"574 0 LINE",
"574 126 LINE",
"216 126 LINE",
"216 105 LINE",
"233 122 OFFCURVE",
"247 140 OFFCURVE",
"258 158 CURVE SMOOTH",
"574 685 LINE",
"574 700 LINE",
"29 700 LINE",
"29 574 LINE",
"368 574 LINE",
"368 595 LINE",
"351 578 OFFCURVE",
"337 560 OFFCURVE",
"326 542 CURVE SMOOTH",
"10 15 LINE",
"10 0 LINE"
);
}
);
};
layerId = "1B5AC656-48C3-4864-953F-2CD31E7BA751";
paths = (
{
closed = 1;
nodes = (
"574 0 LINE",
"574 123 LINE",
"214 123 LINE",
"214 102 LINE",
"231 119 OFFCURVE",
"245 137 OFFCURVE",
"256 155 CURVE SMOOTH",
"574 685 LINE",
"574 700 LINE",
"29 700 LINE",
"29 577 LINE",
"370 577 LINE",
"370 598 LINE",
"353 581 OFFCURVE",
"339 563 OFFCURVE",
"328 545 CURVE SMOOTH",
"10 15 LINE",
"10 0 LINE"
);
}
);
width = 588;
}
);
leftKerningGroup = Z;
rightKerningGroup = Z;
unicode = 005A;
},
{
glyphname = Saltillo;
lastChange = "2021-10-27 03:19:39 +0000";
layers = (
{
layerId = "1B5AC656-48C3-4864-953F-2CD31E7BA751";
paths = (
{
closed = 1;
nodes = (
"191 193 LINE",
"214 577 LINE",
"214 700 LINE",
"74 700 LINE",
"74 577 LINE",
"97 193 LINE"
);
}
);
width = 288;
}
);
unicode = A78B;
},
{
glyphname = C.ss01;
lastChange = "2021-10-31 23:33:24 +0000";
layers = (
{
anchors = (
{
name = bottom;
position = "{390, 0}";
},
{
name = ogonek;
position = "{499, 0}";
},
{
name = top;
position = "{380, 700}";
}
);
background = {
paths = (
{
closed = 1;
nodes = (
"182 -13 OFFCURVE",
"25 149 OFFCURVE",
"25 349 CURVE SMOOTH",
"25 550 OFFCURVE",
"174 713 OFFCURVE",
"390 713 CURVE SMOOTH",
"504 713 OFFCURVE",
"583 678 OFFCURVE",
"646 603 CURVE",
"547 517 LINE",
"505 561 OFFCURVE",
"453 583 OFFCURVE",
"390 583 CURVE SMOOTH",
"254 583 OFFCURVE",
"170 477 OFFCURVE",
"170 349 CURVE SMOOTH",
"170 221 OFFCURVE",
"255 116 OFFCURVE",
"393 116 CURVE SMOOTH",
"461 116 OFFCURVE",
"512 140 OFFCURVE",
"553 185 CURVE",
"655 98 LINE",
"602 34 OFFCURVE",
"512 -13 OFFCURVE",
"390 -13 CURVE SMOOTH"
);
},
{
closed = 1;
nodes = (
"180 -13 OFFCURVE",
"25 149 OFFCURVE",
"25 349 CURVE SMOOTH",
"25 550 OFFCURVE",
"172 713 OFFCURVE",
"388 713 CURVE SMOOTH",
"444 713 OFFCURVE",
"491 704 OFFCURVE",
"545 676 CURVE",
"545 518 LINE",
"502 561 OFFCURVE",
"450 583 OFFCURVE",
"388 583 CURVE SMOOTH",
"247 583 OFFCURVE",
"170 477 OFFCURVE",
"170 349 CURVE SMOOTH",
"170 221 OFFCURVE",
"255 117 OFFCURVE",
"388 117 CURVE SMOOTH",
"450 117 OFFCURVE",
"504 125 OFFCURVE",
"548 162 CURVE",
"536 14 LINE",
"491 -5 OFFCURVE",
"443 -13 OFFCURVE",
"388 -13 CURVE SMOOTH"
);
}
);
};
layerId = "1B5AC656-48C3-4864-953F-2CD31E7BA751";
paths = (
{
closed = 1;
nodes = (
"443 -13 OFFCURVE",
"491 -5 OFFCURVE",
"537 19 CURVE",
"548 171 LINE",
"504 134 OFFCURVE",
"452 118 OFFCURVE",
"390 118 CURVE SMOOTH",
"255 118 OFFCURVE",
"170 221 OFFCURVE",
"170 349 CURVE SMOOTH",
"170 475 OFFCURVE",
"249 583 OFFCURVE",
"388 583 CURVE SMOOTH",
"450 583 OFFCURVE",
"504 563 OFFCURVE",
"547 517 CURVE",
"547 673 LINE",
"507 699 OFFCURVE",
"449 713 OFFCURVE",
"388 713 CURVE SMOOTH",
"172 713 OFFCURVE",
"25 550 OFFCURVE",
"25 349 CURVE SMOOTH",
"25 149 OFFCURVE",
"180 -13 OFFCURVE",
"388 -13 CURVE SMOOTH"
);
}
);
width = 578;
}
);
leftKerningGroup = O;
leftMetricsKey = O;
rightKerningGroup = C.ss01;
},
{
glyphname = a;
lastChange = "2021-10-31 18:49:24 +0000";
layers = (
{
anchors = (
{
name = bottom;
position = "{302, 0}";
},
{
name = ogonek;
position = "{445, 0}";
},
{
name = top;
position = "{306, 520}";
}
);
background = {
anchors = (
{
name = bottom;
position = "{298, 0}";
},
{
name = center;
position = "{294, 265}";
},
{
name = ogonek;
position = "{385, 0}";
},
{
name = top;
position = "{297, 520}";
},
{
name = topright;
position = "{456, 520}";
}
);
};
backgroundImage = {
imagePath = "../Reference/IMG_5180.jpeg";
transform = "{0.20114, 0, 0, 0.20114, -13, 739}";
};
layerId = "1B5AC656-48C3-4864-953F-2CD31E7BA751";
paths = (
{
closed = 1;
nodes = (
"397 -13 OFFCURVE",
"440 52 OFFCURVE",
"465 140 CURVE",
"445 140 LINE",
"445 0 LINE",
"576 0 LINE",
"576 520 LINE",
"442 520 LINE",
"442 376 LINE",
"465 376 LINE",
"440 465 OFFCURVE",
"397 531 OFFCURVE",
"277 531 CURVE SMOOTH",
"134 531 OFFCURVE",
"20 408 OFFCURVE",
"20 258 CURVE SMOOTH",
"20 108 OFFCURVE",
"134 -13 OFFCURVE",
"277 -13 CURVE SMOOTH"
);
},
{
closed = 1;
nodes = (
"213 109 OFFCURVE",
"155 180 OFFCURVE",
"155 259 CURVE SMOOTH",
"155 340 OFFCURVE",
"213 409 OFFCURVE",
"299 409 CURVE SMOOTH",
"388 409 OFFCURVE",
"445 339 OFFCURVE",
"445 258 CURVE SMOOTH",
"445 177 OFFCURVE",
"388 109 OFFCURVE",
"299 109 CURVE SMOOTH"
);
}
);
width = 616;
}
);
leftKerningGroup = o;
leftMetricsKey = o;
rightKerningGroup = u;
unicode = 0061;
},
{
glyphname = abreve;
lastChange = "2021-10-31 18:03:35 +0000";
layers = (
{
background = {
paths = (
{
closed = 1;
nodes = (
"432 547 OFFCURVE",
"472 619 OFFCURVE",
"472 697 CURVE",
"381 697 LINE",
"381 671 OFFCURVE",
"378 638 OFFCURVE",
"348 638 CURVE SMOOTH",
"326 638 OFFCURVE",
"312 653 OFFCURVE",
"294 668 CURVE SMOOTH",
"274 684 OFFCURVE",
"250 701 OFFCURVE",
"205 701 CURVE SMOOTH",
"134 701 OFFCURVE",
"68 640 OFFCURVE",
"68 554 CURVE",
"158 554 LINE",
"158 582 OFFCURVE",
"180 611 OFFCURVE",
"205 611 CURVE SMOOTH",
"227 611 OFFCURVE",
"239 595 OFFCURVE",
"259 580 CURVE SMOOTH",
"279 563 OFFCURVE",
"306 547 OFFCURVE",
"347 547 CURVE SMOOTH"
);
}
);
};
components = (
{
name = a;
},
{
name = brevecomb;
transform = "{1, 0, 0, 1, 306, 0}";
}
);
layerId = "1B5AC656-48C3-4864-953F-2CD31E7BA751";
width = 616;
}
);
leftKerningGroup = o;
rightKerningGroup = u;
unicode = 0103;
},
{
glyphname = ae;
lastChange = "2021-10-31 18:21:45 +0000";
layers = (
{
anchors = (
{
name = top;
position = "{507, 520}";
}
);
background = {
paths = (
{
closed = 1;
nodes = (
"851 -12 OFFCURVE",
"938 33 OFFCURVE",
"980 98 CURVE",
"873 177 LINE",
"851 137 OFFCURVE",
"806 110 OFFCURVE",
"743 110 CURVE SMOOTH",
"663 110 OFFCURVE",
"618 159 OFFCURVE",
"609 229 CURVE",
"603 259 LINE",
"598 349 OFFCURVE",
"655 417 OFFCURVE",
"741 417 CURVE SMOOTH",
"832 417 OFFCURVE",
"888 338 OFFCURVE",
"880 259 CURVE",
"914 320 LINE",
"554 320 LINE",
"554 210 LINE",
"1008 210 LINE",
"1011 227 OFFCURVE",
"1012 244 OFFCURVE",
"1012 259 CURVE SMOOTH",
"1012 409 OFFCURVE",
"904 532 OFFCURVE",
"753 532 CURVE SMOOTH",
"573 532 OFFCURVE",
"557 399 OFFCURVE",
"529 259 CURVE",
"557 119 OFFCURVE",
"573 -12 OFFCURVE",
"753 -12 CURVE SMOOTH"
);
},
{
closed = 1;
nodes = (
"447 -13 OFFCURVE",
"463 118 OFFCURVE",
"491 258 CURVE",
"463 398 OFFCURVE",
"447 531 OFFCURVE",
"277 531 CURVE SMOOTH",
"134 531 OFFCURVE",
"20 408 OFFCURVE",
"20 258 CURVE SMOOTH",
"20 108 OFFCURVE",
"134 -13 OFFCURVE",
"277 -13 CURVE SMOOTH"
);
},
{
closed = 1;
nodes = (
"213 109 OFFCURVE",
"157 180 OFFCURVE",
"157 259 CURVE SMOOTH",
"157 340 OFFCURVE",
"213 409 OFFCURVE",
"299 409 CURVE SMOOTH",
"388 409 OFFCURVE",
"445 339 OFFCURVE",
"445 258 CURVE SMOOTH",
"445 177 OFFCURVE",
"388 109 OFFCURVE",
"299 109 CURVE SMOOTH"
);
},
{
closed = 1;
nodes = (
"576 0 LINE",
"576 520 LINE",
"441 520 LINE",
"441 371 LINE",
"451 258 LINE",
"445 133 LINE",
"445 0 LINE"
);
}
);
};
layerId = "1B5AC656-48C3-4864-953F-2CD31E7BA751";
paths = (
{
closed = 1;
nodes = (
"383 -13 OFFCURVE",
"450 38 OFFCURVE",
"476 112 CURVE",
"445 130 LINE",
"445 0 LINE",
"576 0 LINE",
"576 131 LINE",
"545 112 LINE",
"572 39 OFFCURVE",
"641 -12 OFFCURVE",
"753 -12 CURVE SMOOTH",
"851 -12 OFFCURVE",
"938 33 OFFCURVE",
"980 98 CURVE",
"873 177 LINE",
"851 137 OFFCURVE",
"806 110 OFFCURVE",
"743 110 CURVE SMOOTH",
"658 110 OFFCURVE",
"613 164 OFFCURVE",
"607 242 CURVE",
"587 210 LINE",
"1008 210 LINE",
"1011 227 OFFCURVE",
"1012 244 OFFCURVE",
"1012 259 CURVE SMOOTH",
"1012 409 OFFCURVE",
"904 532 OFFCURVE",
"753 532 CURVE SMOOTH",
"641 532 OFFCURVE",
"572 480 OFFCURVE",
"545 407 CURVE",
"576 388 LINE",
"576 520 LINE",
"441 520 LINE",
"441 395 LINE",
"472 414 LINE",
"446 483 OFFCURVE",
"379 531 OFFCURVE",
"277 531 CURVE SMOOTH",
"134 531 OFFCURVE",
"20 408 OFFCURVE",
"20 258 CURVE SMOOTH",
"20 108 OFFCURVE",
"134 -13 OFFCURVE",
"277 -13 CURVE SMOOTH"
);
},
{
closed = 1;
nodes = (
"213 109 OFFCURVE",
"157 180 OFFCURVE",
"157 259 CURVE SMOOTH",
"157 340 OFFCURVE",
"213 409 OFFCURVE",
"299 409 CURVE SMOOTH",
"388 409 OFFCURVE",
"445 339 OFFCURVE",
"445 258 CURVE SMOOTH",
"445 177 OFFCURVE",
"388 109 OFFCURVE",
"299 109 CURVE SMOOTH"
);
},
{
closed = 1;
nodes = (
"611 364 OFFCURVE",
"665 417 OFFCURVE",
"741 417 CURVE SMOOTH",
"819 417 OFFCURVE",
"872 358 OFFCURVE",
"881 292 CURVE",
"895 320 LINE",
"585 320 LINE",
"604 289 LINE"
);
}
);
width = 1031;
}
);
leftKerningGroup = o;
leftMetricsKey = a;
rightKerningGroup = e;
rightMetricsKey = e;
unicode = 00E6;
},
{
glyphname = b;
lastChange = "2021-10-27 03:10:44 +0000";
layers = (
{
anchors = (
{
name = bottom;
position = "{319, 1}";
},
{
name = ogonek;
position = "{418, 0}";
},
{
name = top;
position = "{106, 730}";
}
);
layerId = "1B5AC656-48C3-4864-953F-2CD31E7BA751";
paths = (
{
closed = 1;
nodes = (
"482 -13 OFFCURVE",
"596 108 OFFCURVE",
"596 258 CURVE SMOOTH",
"596 408 OFFCURVE",
"482 531 OFFCURVE",
"339 531 CURVE SMOOTH",
"219 531 OFFCURVE",
"176 465 OFFCURVE",
"151 376 CURVE",
"175 376 LINE",
"175 730 LINE",
"40 730 LINE",
"40 0 LINE",
"171 0 LINE",
"171 140 LINE",
"151 140 LINE",
"176 52 OFFCURVE",
"219 -13 OFFCURVE",
"339 -13 CURVE SMOOTH"
);
},
{
closed = 1;
nodes = (
"228 109 OFFCURVE",
"171 177 OFFCURVE",
"171 258 CURVE SMOOTH",
"171 339 OFFCURVE",
"228 409 OFFCURVE",
"317 409 CURVE SMOOTH",
"403 409 OFFCURVE",
"461 340 OFFCURVE",
"461 259 CURVE SMOOTH",
"461 180 OFFCURVE",
"403 109 OFFCURVE",
"317 109 CURVE SMOOTH"
);
}
);
width = 616;
}
);
leftKerningGroup = l;
leftMetricsKey = l;
rightKerningGroup = o;
rightMetricsKey = o;
unicode = 0062;
},
{
glyphname = c;
lastChange = "2021-10-31 18:40:29 +0000";
layers = (
{
anchors = (
{
name = bottom;
position = "{299, 0}";
},
{
name = ogonek;
position = "{388, 0}";
},
{
name = top;
position = "{299, 520}";
}
);
background = {
paths = (
{
closed = 1;
nodes = (
"458 -13 OFFCURVE",
"574 109 OFFCURVE",
"574 259 CURVE SMOOTH",
"574 409 OFFCURVE",
"458 532 OFFCURVE",
"297 532 CURVE SMOOTH",
"136 532 OFFCURVE",
"20 409 OFFCURVE",
"20 259 CURVE SMOOTH",
"20 109 OFFCURVE",
"136 -13 OFFCURVE",
"297 -13 CURVE SMOOTH"
);
},
{
closed = 1;
nodes = (
"211 110 OFFCURVE",
"155 178 OFFCURVE",
"155 259 CURVE SMOOTH",
"155 340 OFFCURVE",
"211 409 OFFCURVE",
"297 409 CURVE SMOOTH",
"383 409 OFFCURVE",
"439 340 OFFCURVE",
"439 259 CURVE SMOOTH",
"439 178 OFFCURVE",
"383 110 OFFCURVE",
"297 110 CURVE SMOOTH"
);
}
);
};
layerId = "1B5AC656-48C3-4864-953F-2CD31E7BA751";
paths = (
{
closed = 1;
nodes = (
"390 -13 OFFCURVE",
"462 24 OFFCURVE",
"511 87 CURVE",
"413 172 LINE",
"386 136 OFFCURVE",
"352 110 OFFCURVE",
"300 110 CURVE SMOOTH",
"214 110 OFFCURVE",
"155 179 OFFCURVE",
"155 260 CURVE SMOOTH",
"155 341 OFFCURVE",
"211 410 OFFCURVE",
"297 410 CURVE SMOOTH",
"343 410 OFFCURVE",
"383 387 OFFCURVE",
"407 351 CURVE",
"511 436 LINE",
"467 497 OFFCURVE",
"390 534 OFFCURVE",
"295 533 CURVE SMOOTH",
"136 532 OFFCURVE",
"20 411 OFFCURVE",
"20 260 CURVE SMOOTH",
"20 109 OFFCURVE",
"139 -13 OFFCURVE",
"288 -13 CURVE SMOOTH"
);
}
);
width = 524;
}
);
leftKerningGroup = o;
leftMetricsKey = o;
rightKerningGroup = c;
unicode = 0063;
},
{
glyphname = d;
lastChange = "2021-10-25 02:22:21 +0000";
layers = (
{
anchors = (
{
name = bottom;
position = "{279, 0}";
},
{
name = center;
position = "{289, 255}";
},
{
name = top;
position = "{487, 730}";
},
{
name = topright;
position = "{623, 730}";
}
);
layerId = "1B5AC656-48C3-4864-953F-2CD31E7BA751";
paths = (
{
closed = 1;
nodes = (
"397 -13 OFFCURVE",
"440 52 OFFCURVE",
"465 140 CURVE",
"445 140 LINE",
"445 0 LINE",
"576 0 LINE",
"576 730 LINE",
"441 730 LINE",
"441 376 LINE",
"465 376 LINE",
"440 465 OFFCURVE",
"397 531 OFFCURVE",
"277 531 CURVE SMOOTH",
"134 531 OFFCURVE",
"20 408 OFFCURVE",
"20 258 CURVE SMOOTH",
"20 108 OFFCURVE",
"134 -13 OFFCURVE",
"277 -13 CURVE SMOOTH"
);
},
{
closed = 1;
nodes = (
"213 109 OFFCURVE",
"155 180 OFFCURVE",
"155 259 CURVE SMOOTH",
"155 340 OFFCURVE",
"213 409 OFFCURVE",
"299 409 CURVE SMOOTH",
"388 409 OFFCURVE",
"445 339 OFFCURVE",
"445 258 CURVE SMOOTH",
"445 177 OFFCURVE",
"388 109 OFFCURVE",
"299 109 CURVE SMOOTH"
);
}
);
width = 616;
}
);
leftKerningGroup = o;
leftMetricsKey = o;
rightKerningGroup = l;
rightMetricsKey = l;
unicode = 0064;
},
{
glyphname = dcroat;
lastChange = "2021-10-07 05:40:39 +0000";
layers = (
{
anchors = (
{
name = _center;
position = "{289, 255}";
}
);
components = (
{
name = d;
}
);
layerId = "1B5AC656-48C3-4864-953F-2CD31E7BA751";
paths = (
{
closed = 1;
nodes = (
"641 571 LINE",
"641 671 LINE",
"300 671 LINE",
"300 571 LINE"
);
}
);
width = 616;
}
);
leftKerningGroup = o;
leftMetricsKey = d;
rightKerningGroup = l;
unicode = 0111;
},
{
glyphname = eth;
lastChange = "2021-10-31 18:21:55 +0000";
layers = (
{
background = {
paths = (
{
closed = 1;
nodes = (
"445 987 OFFCURVE",
"557 1094 OFFCURVE",
"557 1242 CURVE SMOOTH",
"557 1295 OFFCURVE",
"550 1343 OFFCURVE",
"497 1423 CURVE SMOOTH",
"296 1730 LINE",
"168 1662 LINE",
"304 1456 LINE",
"315 1479 LINE",
"132 1508 OFFCURVE",
"12 1404 OFFCURVE",
"12 1242 CURVE SMOOTH",
"12 1094 OFFCURVE",
"125 987 OFFCURVE",
"286 987 CURVE SMOOTH"
);
},
{
closed = 1;
nodes = (
"209 1124 OFFCURVE",
"166 1177 OFFCURVE",
"166 1242 CURVE SMOOTH",
"166 1305 OFFCURVE",
"209 1367 OFFCURVE",
"285 1367 CURVE SMOOTH",
"359 1367 OFFCURVE",
"404 1305 OFFCURVE",
"404 1242 CURVE SMOOTH",
"404 1177 OFFCURVE",
"359 1124 OFFCURVE",
"286 1124 CURVE SMOOTH"
);
},
{
closed = 1;
nodes = (
"489 1938 LINE",
"460 2029 LINE",
"302 1987 LINE",
"250 1952 LINE",
"129 1931 LINE",
"159 1846 LINE"
);
},
{
closed = 1;
nodes = (
"511 1584 LINE",
"481 1679 LINE",
"316 1634 LINE",
"261 1598 LINE",
"135 1576 LINE",
"166 1488 LINE"
);
},
{
closed = 1;
nodes = (
"432 -13 OFFCURVE",
"541 102 OFFCURVE",
"541 243 CURVE SMOOTH",
"541 384 OFFCURVE",
"432 499 OFFCURVE",
"281 499 CURVE SMOOTH",
"129 499 OFFCURVE",
"20 384 OFFCURVE",
"20 243 CURVE SMOOTH",
"20 102 OFFCURVE",
"129 -13 OFFCURVE",
"281 -13 CURVE SMOOTH"
);
},
{
closed = 1;
nodes = (
"200 103 OFFCURVE",
"147 167 OFFCURVE",
"147 243 CURVE SMOOTH",
"147 319 OFFCURVE",
"200 384 OFFCURVE",
"281 384 CURVE SMOOTH",
"361 384 OFFCURVE",
"414 319 OFFCURVE",
"414 243 CURVE SMOOTH",
"414 167 OFFCURVE",
"361 103 OFFCURVE",
"281 103 CURVE SMOOTH"
);
}
);
};
layerId = "1B5AC656-48C3-4864-953F-2CD31E7BA751";
paths = (
{
closed = 1;
nodes = (
"432 -13 OFFCURVE",
"540 89 OFFCURVE",
"540 263 CURVE SMOOTH",
"540 376 OFFCURVE",
"481 470 OFFCURVE",
"416 545 CURVE SMOOTH",
"244 743 LINE",
"133 657 LINE",
"280 509 LINE SMOOTH",
"319 469 OFFCURVE",
"356 449 OFFCURVE",
"378 372 CURVE",
"395 363 LINE",
"375 418 OFFCURVE",
"341 479 OFFCURVE",
"244 479 CURVE SMOOTH",
"143 479 OFFCURVE",
"20 393 OFFCURVE",
"20 241 CURVE SMOOTH",
"20 101 OFFCURVE",
"128 -13 OFFCURVE",
"283 -13 CURVE SMOOTH"
);
},
{
closed = 1;
nodes = (
"206 114 OFFCURVE",
"157 173 OFFCURVE",
"157 241 CURVE SMOOTH",
"157 311 OFFCURVE",
"206 369 OFFCURVE",
"283 369 CURVE SMOOTH",
"360 369 OFFCURVE",
"409 311 OFFCURVE",
"409 241 CURVE SMOOTH",
"409 171 OFFCURVE",
"361 114 OFFCURVE",
"283 114 CURVE SMOOTH"
);
},
{
closed = 1;
nodes = (
"380 681 LINE",
"323 746 LINE",
"130 578 LINE",
"188 513 LINE"
);
}
);
width = 560;
}
);
leftKerningGroup = o;
leftMetricsKey = o;
rightKerningGroup = o;
rightMetricsKey = o;
unicode = 00F0;
},
{
glyphname = e;
lastChange = "2021-10-31 18:40:03 +0000";
layers = (
{
anchors = (
{
name = bottom;
position = "{289, 0}";
},
{
name = ogonek;
position = "{340, 26}";
},
{
name = top;
position = "{286, 520}";
}
);
background = {
paths = (
{
closed = 1;
nodes = (
"397 -12 OFFCURVE",
"484 33 OFFCURVE",
"526 98 CURVE",
"419 177 LINE",
"397 137 OFFCURVE",
"352 110 OFFCURVE",
"289 110 CURVE SMOOTH",
"209 110 OFFCURVE",
"164 159 OFFCURVE",
"155 229 CURVE",
"149 259 LINE",
"144 349 OFFCURVE",
"201 417 OFFCURVE",
"287 417 CURVE SMOOTH",
"378 417 OFFCURVE",
"434 338 OFFCURVE",
"426 259 CURVE",
"460 320 LINE",
"100 320 LINE",
"100 210 LINE",
"554 210 LINE",
"557 227 OFFCURVE",
"558 244 OFFCURVE",
"558 259 CURVE SMOOTH",
"558 409 OFFCURVE",
"450 533 OFFCURVE",
"289 533 CURVE SMOOTH",
"128 533 OFFCURVE",
"15 409 OFFCURVE",
"15 259 CURVE SMOOTH",
"15 109 OFFCURVE",
"123 -12 OFFCURVE",
"289 -12 CURVE SMOOTH"
);
},
{
closed = 1;
nodes = (
"453 -13 OFFCURVE",
"569 109 OFFCURVE",
"569 259 CURVE SMOOTH",
"569 409 OFFCURVE",
"453 532 OFFCURVE",
"292 532 CURVE SMOOTH",
"131 532 OFFCURVE",
"15 409 OFFCURVE",
"15 259 CURVE SMOOTH",
"15 109 OFFCURVE",
"131 -13 OFFCURVE",
"292 -13 CURVE SMOOTH"
);
},
{
closed = 1;
nodes = (
"206 110 OFFCURVE",
"150 178 OFFCURVE",
"150 259 CURVE SMOOTH",
"150 340 OFFCURVE",
"206 409 OFFCURVE",
"292 409 CURVE SMOOTH",
"378 409 OFFCURVE",
"434 340 OFFCURVE",
"434 259 CURVE SMOOTH",
"434 178 OFFCURVE",
"378 110 OFFCURVE",
"292 110 CURVE SMOOTH"
);
}
);
};
layerId = "1B5AC656-48C3-4864-953F-2CD31E7BA751";
paths = (
{
closed = 1;
nodes = (
"392 -13 OFFCURVE",
"479 33 OFFCURVE",
"521 98 CURVE",
"416 177 LINE",
"392 137 OFFCURVE",
"347 107 OFFCURVE",
"289 107 CURVE SMOOTH",
"214 107 OFFCURVE",
"166 159 OFFCURVE",
"157 229 CURVE",
"156 259 LINE SMOOTH",
"151 349 OFFCURVE",
"206 417 OFFCURVE",
"287 417 CURVE SMOOTH",
"373 417 OFFCURVE",
"429 338 OFFCURVE",
"421 259 CURVE",
"455 312 LINE",
"105 312 LINE",
"105 211 LINE",
"549 211 LINE",
"552 228 OFFCURVE",
"553 244 OFFCURVE",
"553 259 CURVE SMOOTH",
"553 409 OFFCURVE",
"445 533 OFFCURVE",
"289 533 CURVE SMOOTH",
"133 533 OFFCURVE",
"20 409 OFFCURVE",
"20 259 CURVE SMOOTH",
"20 109 OFFCURVE",
"128 -13 OFFCURVE",
"289 -13 CURVE SMOOTH"
);
}
);
width = 572;
}
);
leftKerningGroup = o;
leftMetricsKey = o;
rightKerningGroup = e;
unicode = 0065;
},
{
glyphname = eogonek;
lastChange = "2025-02-13 14:19:10 +0000";
layers = (
{
background = {
paths = (
{
closed = 1;
nodes = (
"332 -232 OFFCURVE",
"446 -206 CURVE",
"446 -121 LINE",
"394 -138 OFFCURVE",
"355 -110 OFFCURVE",
"355 -61 CURVE SMOOTH",
"355 -33 OFFCURVE",
"365 -9 OFFCURVE",
"404 8 CURVE",
"385 20 LINE",
"337 14 LINE",
"298 -5 OFFCURVE",
"262 -39 OFFCURVE",
"262 -101 CURVE SMOOTH",
"262 -163 OFFCURVE"
);
}
);
};
components = (
{
name = e;
},
{
name = ogonekcomb;
transform = "{1, 0, 0, 1.1, 340, 26}";
}
);
layerId = "1B5AC656-48C3-4864-953F-2CD31E7BA751";
width = 572;
}
);
leftKerningGroup = o;
rightKerningGroup = e;
unicode = 0119;
},
{
glyphname = schwa;
lastChange = "2021-10-27 02:25:09 +0000";
layers = (
{
layerId = "1B5AC656-48C3-4864-953F-2CD31E7BA751";
paths = (
{
closed = 1;
nodes = (
"439 -17 OFFCURVE",
"550 107 OFFCURVE",
"550 257 CURVE SMOOTH",
"550 407 OFFCURVE",
"463 529 OFFCURVE",
"273 529 CURVE SMOOTH",
"180 529 OFFCURVE",
"93 485 OFFCURVE",
"51 420 CURVE",
"156 341 LINE",
"180 381 OFFCURVE",
"225 409 OFFCURVE",
"273 409 CURVE SMOOTH",
"364 409 OFFCURVE",
"404 357 OFFCURVE",
"413 287 CURVE",
"414 257 LINE SMOOTH",
"419 167 OFFCURVE",
"366 99 OFFCURVE",
"285 99 CURVE SMOOTH",
"199 99 OFFCURVE",
"143 178 OFFCURVE",
"151 257 CURVE",
"117 204 LINE",
"465 204 LINE",
"465 305 LINE",
"23 305 LINE",
"20 288 OFFCURVE",
"19 272 OFFCURVE",
"19 257 CURVE SMOOTH",
"19 107 OFFCURVE",
"127 -17 OFFCURVE",
"283 -17 CURVE SMOOTH"
);
}
);
width = 570;
}
);
leftKerningGroup = o;
leftMetricsKey = "=|e";
rightKerningGroup = o;
rightMetricsKey = "=|e";
unicode = 0259;
},
{
glyphname = f;
lastChange = "2021-10-25 02:35:01 +0000";
layers = (
{
anchors = (
{
name = bottom;
position = "{145, 0}";
},
{
name = ogonek;
position = "{213, 0}";
},
{
name = top;
position = "{208, 728}";
}
);
background = {
paths = (
{
closed = 1;
nodes = (
"213 0 LINE",
"213 567 LINE SMOOTH",
"213 600 OFFCURVE",
"229 615 OFFCURVE",
"255 615 CURVE SMOOTH",
"311 615 LINE",
"311 730 LINE",
"237 730 LINE SMOOTH",
"134 730 OFFCURVE",
"78 682 OFFCURVE",
"78 569 CURVE SMOOTH",
"78 0 LINE"
);
}
);
};
layerId = "1B5AC656-48C3-4864-953F-2CD31E7BA751";
paths = (
{
closed = 1;
nodes = (
"213 0 LINE",
"213 553 LINE SMOOTH",
"213 594 OFFCURVE",
"232 615 OFFCURVE",
"272 615 CURVE SMOOTH",
"307 615 LINE",
"307 730 LINE",
"251 730 LINE SMOOTH",
"146 730 OFFCURVE",
"78 660 OFFCURVE",
"78 555 CURVE SMOOTH",
"78 0 LINE"
);
},
{
closed = 1;
nodes = (
"319 405 LINE",
"319 520 LINE",
"5 520 LINE",
"5 405 LINE"
);
}
);
width = 324;
}
);
leftKerningGroup = f;
rightKerningGroup = f;
unicode = 0066;
},
{
glyphname = g;
lastChange = "2021-10-31 17:34:32 +0000";
layers = (
{
anchors = (
{
name = bottom;
position = "{293, -205}";
},
{
name = ogonek;
position = "{389, -200}";
},
{
name = top;
position = "{288, 520}";
}
);
layerId = "1B5AC656-48C3-4864-953F-2CD31E7BA751";
paths = (
{
closed = 1;
nodes = (
"452 -213 OFFCURVE",
"564 -114 OFFCURVE",
"564 46 CURVE SMOOTH",
"564 520 LINE",
"431 520 LINE",
"431 391 LINE",
"454 391 LINE",
"430 473 OFFCURVE",
"388 533 OFFCURVE",
"272 533 CURVE SMOOTH",
"129 533 OFFCURVE",
"20 415 OFFCURVE",
"20 265 CURVE SMOOTH",
"20 115 OFFCURVE",
"129 -3 OFFCURVE",
"272 -3 CURVE SMOOTH",
"388 -3 OFFCURVE",
"430 57 OFFCURVE",
"454 139 CURVE",
"429 139 LINE",
"429 54 LINE SMOOTH",
"429 -29 OFFCURVE",
"366 -88 OFFCURVE",
"294 -88 CURVE SMOOTH",
"229 -88 OFFCURVE",
"177 -72 OFFCURVE",
"128 -16 CURVE",
"44 -115 LINE",
"106 -188 OFFCURVE",
"188 -213 OFFCURVE",
"293 -213 CURVE SMOOTH"
);
},
{
closed = 1;
nodes = (
"206 120 OFFCURVE",
"155 186 OFFCURVE",
"155 265 CURVE SMOOTH",
"155 346 OFFCURVE",
"206 410 OFFCURVE",
"294 410 CURVE SMOOTH",
"383 410 OFFCURVE",
"435 346 OFFCURVE",
"435 265 CURVE SMOOTH",
"435 184 OFFCURVE",
"383 120 OFFCURVE",
"294 120 CURVE SMOOTH"
);
}
);
width = 604;
}
);
leftKerningGroup = o;
rightKerningGroup = g;
unicode = 0067;
},
{
glyphname = h;
lastChange = "2021-09-17 05:31:14 +0000";
layers = (
{
anchors = (
{
name = bottom;
position = "{290, 0}";
},
{
name = ogonek;
position = "{530, 0}";
},
{
name = top;
position = "{106, 730}";
}
);
layerId = "1B5AC656-48C3-4864-953F-2CD31E7BA751";
paths = (
{
closed = 1;
nodes = (
"175 0 LINE",
"175 285 LINE SMOOTH",
"175 375 OFFCURVE",
"226 414 OFFCURVE",
"283 414 CURVE SMOOTH",
"350 414 OFFCURVE",
"395 375 OFFCURVE",
"395 285 CURVE SMOOTH",
"395 0 LINE",
"530 0 LINE",
"530 318 LINE SMOOTH",
"530 449 OFFCURVE",
"444 532 OFFCURVE",
"332 532 CURVE SMOOTH",
"226 532 OFFCURVE",
"170 480 OFFCURVE",
"154 378 CURVE",
"175 401 LINE",
"175 730 LINE",
"40 730 LINE",
"40 0 LINE"
);
}
);
width = 565;
}
);
leftKerningGroup = l;
leftMetricsKey = l;
rightKerningGroup = n;
rightMetricsKey = n;
unicode = 0068;
},
{
glyphname = idotless;
lastChange = "2021-10-21 04:05:56 +0000";
layers = (
{
anchors = (
{
name = bottom;
position = "{106, 0}";
},
{
name = ogonek;
position = "{85, 0}";
},
{
name = top;
position = "{106, 520}";
}
);
layerId = "1B5AC656-48C3-4864-953F-2CD31E7BA751";
paths = (
{
closed = 1;
nodes = (
"175 0 LINE",
"175 520 LINE",
"40 520 LINE",
"40 0 LINE"
);
}
);
width = 215;
}
);
leftKerningGroup = n;
rightKerningGroup = u;
unicode = 0131;
},
{
glyphname = itilde;
lastChange = "2021-10-27 22:35:17 +0000";
layers = (
{
anchors = (
{
name = _top;
position = "{106, 520}";
},
{
name = top;
position = "{106, 706}";
}
);
background = {
paths = (
{
closed = 1;
nodes = (
"268 557 OFFCURVE",
"308 629 OFFCURVE",
"308 707 CURVE",
"221 707 LINE",
"221 681 OFFCURVE",
"218 644 OFFCURVE",
"184 644 CURVE SMOOTH",
"160 644 OFFCURVE",
"146 663 OFFCURVE",
"128 678 CURVE SMOOTH",
"108 694 OFFCURVE",
"84 711 OFFCURVE",
"41 711 CURVE SMOOTH",
"-30 711 OFFCURVE",
"-96 650 OFFCURVE",
"-96 564 CURVE",
"-10 564 LINE",
"-10 592 OFFCURVE",
"12 624 OFFCURVE",
"41 624 CURVE SMOOTH",
"67 624 OFFCURVE",
"79 605 OFFCURVE",
"99 590 CURVE SMOOTH",
"119 573 OFFCURVE",
"146 557 OFFCURVE",
"183 557 CURVE SMOOTH"
);
}
);
};
components = (
{
name = idotless;
}
);
layerId = "1B5AC656-48C3-4864-953F-2CD31E7BA751";
paths = (
{
closed = 1;
nodes = (
"248 557 OFFCURVE",
"288 629 OFFCURVE",
"288 700 CURVE",
"201 700 LINE",
"201 669 OFFCURVE",
"198 644 OFFCURVE",
"171 644 CURVE SMOOTH",
"133 644 OFFCURVE",
"137 711 OFFCURVE",
"41 711 CURVE SMOOTH",
"-20 711 OFFCURVE",
"-76 650 OFFCURVE",
"-76 568 CURVE",
"10 568 LINE",
"10 602 OFFCURVE",
"22 624 OFFCURVE",
"49 624 CURVE SMOOTH",
"84 624 OFFCURVE",
"91 557 OFFCURVE",
"179 557 CURVE SMOOTH"
);
}
);
width = 215;
}
);
leftKerningGroup = itilde;
rightKerningGroup = itilde;
unicode = 0129;
},
{
glyphname = jdotless;
lastChange = "2021-10-27 01:21:24 +0000";
layers = (
{
anchors = (
{
name = bottom;
position = "{16, -200}";
},
{
name = ogonek;
position = "{30, -200}";
},
{
name = top;
position = "{106, 520}";
}
);
layerId = "1B5AC656-48C3-4864-953F-2CD31E7BA751";
paths = (
{
closed = 1;
nodes = (
"16 -200 LINE SMOOTH",
"119 -200 OFFCURVE",
"175 -152 OFFCURVE",
"175 -39 CURVE SMOOTH",
"175 520 LINE",
"40 520 LINE",
"40 -32 LINE SMOOTH",
"40 -65 OFFCURVE",
"24 -80 OFFCURVE",
"-2 -80 CURVE SMOOTH",
"-28 -80 LINE",
"-28 -200 LINE"
);
}
);
width = 215;
}
);
leftKerningGroup = n;
rightKerningGroup = u;
unicode = 0237;
},
{
glyphname = k;
lastChange = "2021-09-17 05:31:17 +0000";
layers = (
{
anchors = (
{
name = bottom;
position = "{273, 0}";
},
{
name = top;
position = "{106, 730}";
}
);
layerId = "1B5AC656-48C3-4864-953F-2CD31E7BA751";
paths = (
{
closed = 1;
nodes = (
"563 0 LINE",
"256 347 LINE",
"275 236 LINE",
"562 520 LINE",
"370 520 LINE",
"77 205 LINE",
"93 344 LINE",
"384 0 LINE"
);
},
{
closed = 1;
nodes = (
"175 0 LINE",
"175 730 LINE",
"40 730 LINE",
"40 0 LINE"
);
}
);
width = 558;
}
);
leftKerningGroup = l;
rightKerningGroup = k;
unicode = 006B;
},
{
glyphname = kgreenlandic;
lastChange = "2021-10-26 23:52:34 +0000";
layers = (
{
anchors = (
{
name = bottom;
position = "{273, 0}";
},
{
name = top;
position = "{268, 520}";
}
);
layerId = "1B5AC656-48C3-4864-953F-2CD31E7BA751";
paths = (
{
closed = 1;
nodes = (
"563 0 LINE",
"256 344 LINE",
"275 233 LINE",
"562 520 LINE",
"370 520 LINE",
"77 202 LINE",
"93 341 LINE",
"384 0 LINE"
);
},
{
closed = 1;
nodes = (
"175 0 LINE",
"175 520 LINE",
"40 520 LINE",
"40 0 LINE"
);
}
);
width = 558;
}
);
leftKerningGroup = n;
leftMetricsKey = n;
rightKerningGroup = k;
rightMetricsKey = k;
unicode = 0138;
},
{
glyphname = l;
lastChange = "2021-10-31 18:20:07 +0000";
layers = (
{
anchors = (
{
name = bottom;
position = "{110, 0}";
},
{
name = center;
position = "{102, 393}";
},
{
name = ogonek;
position = "{175, 0}";
},
{
name = top;
position = "{103, 730}";
},
{
name = topright;
position = "{222, 730}";
}
);
layerId = "1B5AC656-48C3-4864-953F-2CD31E7BA751";
paths = (
{
closed = 1;
nodes = (
"175 0 LINE",
"175 730 LINE",
"40 730 LINE",
"40 0 LINE"
);
}
);
width = 215;
}
);
leftKerningGroup = l;
rightKerningGroup = l;
unicode = 006C;
},
{
glyphname = lslash;
lastChange = "2021-10-31 18:57:37 +0000";
layers = (
{
background = {
paths = (
{
closed = 1;
nodes = (
"268 415 LINE",
"218 486 LINE",
"-41 305 LINE",
"9 234 LINE"
);
},
{
closed = 0;
nodes = (
"108 448 LINE",
"108 279 LINE"
);
},
{
closed = 0;
nodes = (
"118 448 LINE",
"118 279 LINE"
);
},
{
closed = 1;
nodes = (
"274 405 LINE",
"274 520 LINE",
"-44 520 LINE",
"-44 405 LINE"
);
}
);
};
components = (
{
name = l;
transform = "{1, 0, 0, 1, 6, 0}";
}
);
layerId = "1B5AC656-48C3-4864-953F-2CD31E7BA751";
paths = (
{
closed = 1;
nodes = (
"108 283 LINE",
"118 283 LINE",
"247 373 LINE",
"247 499 LINE",
"118 397 LINE",
"108 409 LINE",
"-18 321 LINE",
"-18 195 LINE"
);
}
);
width = 227;
}
);
leftKerningGroup = lslash;
rightKerningGroup = lslash;
unicode = 0142;
},
{
glyphname = m;
lastChange = "2021-09-17 05:48:43 +0000";
layers = (
{
anchors = (
{
name = bottom;
position = "{461, 0}";
},
{
name = ogonek;
position = "{875, 0}";
},
{
name = top;
position = "{473, 520}";
}
);
layerId = "1B5AC656-48C3-4864-953F-2CD31E7BA751";
paths = (
{
closed = 1;
nodes = (
"175 0 LINE",
"175 285 LINE SMOOTH",
"175 375 OFFCURVE",
"226 414 OFFCURVE",
"283 414 CURVE SMOOTH",
"350 414 OFFCURVE",
"395 375 OFFCURVE",
"395 285 CURVE SMOOTH",
"395 0 LINE",
"530 0 LINE",
"530 285 LINE SMOOTH",
"530 385 OFFCURVE",
"573 414 OFFCURVE",
"636 414 CURVE SMOOTH",
"697 414 OFFCURVE",
"740 375 OFFCURVE",
"740 285 CURVE SMOOTH",
"740 0 LINE",
"875 0 LINE",
"875 318 LINE SMOOTH",
"875 449 OFFCURVE",
"789 532 OFFCURVE",
"677 532 CURVE SMOOTH",
"571 532 OFFCURVE",
"521 485 OFFCURVE",
"486 401 CURVE",
"516 401 LINE",
"486 485 OFFCURVE",
"417 532 OFFCURVE",
"332 532 CURVE SMOOTH",
"226 532 OFFCURVE",
"170 480 OFFCURVE",
"154 378 CURVE",
"173 401 LINE",
"173 520 LINE",
"40 520 LINE",
"40 0 LINE"
);
}
);
width = 910;
}
);
leftKerningGroup = n;
leftMetricsKey = n;
rightKerningGroup = n;
rightMetricsKey = n;
unicode = 006D;
},
{
glyphname = n;
lastChange = "2021-10-25 03:07:42 +0000";
layers = (
{
anchors = (
{
name = bottom;
position = "{288, 0}";
},
{
name = ogonek;
position = "{530, 0}";
},
{
name = top;
position = "{296, 525}";
}
);
layerId = "1B5AC656-48C3-4864-953F-2CD31E7BA751";
paths = (
{
closed = 1;
nodes = (
"175 0 LINE",
"175 285 LINE SMOOTH",
"175 375 OFFCURVE",
"226 414 OFFCURVE",
"283 414 CURVE SMOOTH",
"350 414 OFFCURVE",
"395 375 OFFCURVE",
"395 285 CURVE SMOOTH",
"395 0 LINE",
"530 0 LINE",
"530 318 LINE SMOOTH",
"530 449 OFFCURVE",
"444 532 OFFCURVE",
"332 532 CURVE SMOOTH",
"226 532 OFFCURVE",
"170 480 OFFCURVE",
"154 378 CURVE",
"173 401 LINE",
"173 520 LINE",
"40 520 LINE",
"40 0 LINE"
);
}
);
width = 565;
}
);
leftKerningGroup = n;
rightKerningGroup = n;
unicode = 006E;
},
{
glyphname = eng;
lastChange = "2021-10-31 18:37:15 +0000";
layers = (
{
components = (
{
name = n;
}
);
layerId = "1B5AC656-48C3-4864-953F-2CD31E7BA751";
paths = (
{
closed = 1;
nodes = (
"371 -200 LINE SMOOTH",
"474 -200 OFFCURVE",
"530 -152 OFFCURVE",
"530 -39 CURVE SMOOTH",
"530 124 LINE",
"395 120 LINE",
"395 -32 LINE SMOOTH",
"395 -65 OFFCURVE",
"379 -80 OFFCURVE",
"353 -80 CURVE SMOOTH",
"327 -80 LINE",
"327 -200 LINE"
);
}
);
width = 565;
}
);
leftKerningGroup = n;
rightKerningGroup = eng;
unicode = 014B;
},
{
glyphname = o;
lastChange = "2021-10-31 17:34:40 +0000";
layers = (
{
anchors = (
{
name = bottom;
position = "{298, 0}";
},
{
name = center;
position = "{294, 265}";
},
{
name = ogonek;
position = "{365, -5}";
},
{
name = top;
position = "{297, 520}";
},
{
name = topright;
position = "{462, 520}";
}
);
background = {
paths = (
{
closed = 1;
nodes = (
"8 700 LINE",
"156 700 LINE",
"156 1220 LINE",
"8 1220 LINE"
);
},
{
closed = 1;
nodes = (
"156 1086 OFFCURVE",
"211 1127 OFFCURVE",
"268 1127 CURVE SMOOTH",
"335 1127 OFFCURVE",
"366 1089 OFFCURVE",
"366 999 CURVE SMOOTH",
"366 700 LINE",
"514 700 LINE",
"514 1027 LINE SMOOTH",
"514 1176 OFFCURVE",
"430 1240 OFFCURVE",
"318 1240 CURVE SMOOTH",
"208 1240 OFFCURVE",
"147 1180 OFFCURVE",
"131 1078 CURVE",
"156 999 LINE"
);
},
{
closed = 1;
nodes = (
"429 -12 OFFCURVE",
"575 74 OFFCURVE",
"575 260 CURVE SMOOTH",
"575 446 OFFCURVE",
"429 532 OFFCURVE",
"287 532 CURVE SMOOTH",
"145 532 OFFCURVE",
"-1 446 OFFCURVE",
"-1 260 CURVE SMOOTH",
"-1 74 OFFCURVE",
"145 -12 OFFCURVE",
"287 -12 CURVE SMOOTH"
);
},
{
closed = 1;
nodes = (
"220 98 OFFCURVE",
"141 153 OFFCURVE",
"141 260 CURVE SMOOTH",
"141 367 OFFCURVE",
"219 422 OFFCURVE",
"287 422 CURVE SMOOTH",
"354 422 OFFCURVE",
"433 367 OFFCURVE",
"433 260 CURVE SMOOTH",
"433 153 OFFCURVE",
"355 98 OFFCURVE",
"287 98 CURVE SMOOTH"
);
}
);
};
layerId = "1B5AC656-48C3-4864-953F-2CD31E7BA751";
paths = (
{
closed = 1;
nodes = (
"458 -13 OFFCURVE",
"574 109 OFFCURVE",
"574 259 CURVE SMOOTH",
"574 409 OFFCURVE",
"458 532 OFFCURVE",
"297 532 CURVE SMOOTH",
"136 532 OFFCURVE",
"20 409 OFFCURVE",
"20 259 CURVE SMOOTH",
"20 109 OFFCURVE",
"136 -13 OFFCURVE",
"297 -13 CURVE SMOOTH"
);
},
{
closed = 1;
nodes = (
"211 110 OFFCURVE",
"155 178 OFFCURVE",
"155 259 CURVE SMOOTH",
"155 340 OFFCURVE",
"211 409 OFFCURVE",
"297 409 CURVE SMOOTH",
"383 409 OFFCURVE",
"439 340 OFFCURVE",
"439 259 CURVE SMOOTH",
"439 178 OFFCURVE",
"383 110 OFFCURVE",
"297 110 CURVE SMOOTH"
);
}
);
width = 594;
}
);
leftKerningGroup = o;
rightKerningGroup = o;
unicode = 006F;
},
{
glyphname = oe;
lastChange = "2021-09-19 21:30:13 +0000";
layers = (
{
anchors = (
{
name = bottom;
position = "{504, 0}";
},
{
name = top;
position = "{503, 520}";
}
);
background = {
components = (
{
alignment = -1;
name = o;
},
{
alignment = -1;
name = e;
transform = "{1, 0, 0, 1, 416, 0}";
}
);
};
layerId = "1B5AC656-48C3-4864-953F-2CD31E7BA751";
paths = (
{
closed = 1;
nodes = (
"448 -13 OFFCURVE",
"540 109 OFFCURVE",
"540 259 CURVE SMOOTH",
"540 409 OFFCURVE",
"448 532 OFFCURVE",
"297 532 CURVE SMOOTH",
"136 532 OFFCURVE",
"20 409 OFFCURVE",
"20 259 CURVE SMOOTH",
"20 109 OFFCURVE",
"136 -13 OFFCURVE",
"297 -13 CURVE SMOOTH"
);
},
{
closed = 1;
nodes = (
"211 110 OFFCURVE",
"155 178 OFFCURVE",
"155 259 CURVE SMOOTH",
"155 340 OFFCURVE",
"211 409 OFFCURVE",
"297 409 CURVE SMOOTH",
"383 409 OFFCURVE",
"439 340 OFFCURVE",
"439 259 CURVE SMOOTH",
"439 178 OFFCURVE",
"383 110 OFFCURVE",
"297 110 CURVE SMOOTH"
);
},
{
closed = 1;
nodes = (
"801 -13 OFFCURVE",
"888 33 OFFCURVE",
"930 98 CURVE",
"825 177 LINE",
"801 137 OFFCURVE",
"756 107 OFFCURVE",
"698 107 CURVE SMOOTH",
"623 107 OFFCURVE",
"575 159 OFFCURVE",
"566 229 CURVE",
"565 259 LINE SMOOTH",
"562 349 OFFCURVE",
"615 417 OFFCURVE",
"696 417 CURVE SMOOTH",
"782 417 OFFCURVE",
"838 338 OFFCURVE",
"830 259 CURVE",
"864 312 LINE",
"514 312 LINE",
"514 211 LINE",
"958 211 LINE",
"961 228 OFFCURVE",
"962 244 OFFCURVE",
"962 259 CURVE SMOOTH",
"962 409 OFFCURVE",
"854 533 OFFCURVE",
"698 533 CURVE SMOOTH",
"552 533 OFFCURVE",
"463 409 OFFCURVE",
"463 259 CURVE SMOOTH",
"463 109 OFFCURVE",
"547 -13 OFFCURVE",
"698 -13 CURVE SMOOTH"
);
}
);
width = 981;
}
);
leftKerningGroup = o;
leftMetricsKey = o;
rightKerningGroup = e;
rightMetricsKey = e;
unicode = 0153;
},
{
glyphname = p;
lastChange = "2021-10-25 02:25:31 +0000";
layers = (
{
anchors = (
{
name = bottom;
position = "{106, -200}";
},
{
name = ogonek;
position = "{419, 0}";
},
{
name = top;
position = "{318, 520}";
}
);
background = {
paths = (
{
closed = 1;
nodes = (
"482 -13 OFFCURVE",
"596 108 OFFCURVE",
"596 258 CURVE SMOOTH",
"596 408 OFFCURVE",
"482 530 OFFCURVE",
"339 530 CURVE SMOOTH",
"169 530 OFFCURVE",
"153 398 OFFCURVE",
"125 258 CURVE",
"153 118 OFFCURVE",
"169 -13 OFFCURVE",
"339 -13 CURVE SMOOTH"
);
},
{
closed = 1;
nodes = (
"175 -200 LINE",
"175 133 LINE",
"165 258 LINE",
"175 371 LINE",
"175 520 LINE",
"40 520 LINE",
"40 -200 LINE"
);
},
{
closed = 1;
nodes = (
"228 109 OFFCURVE",
"171 177 OFFCURVE",
"171 258 CURVE SMOOTH",
"171 339 OFFCURVE",
"228 408 OFFCURVE",
"317 408 CURVE SMOOTH",
"405 408 OFFCURVE",
"461 340 OFFCURVE",
"461 259 CURVE SMOOTH",
"461 180 OFFCURVE",
"405 109 OFFCURVE",
"317 109 CURVE SMOOTH"
);
}
);
};
layerId = "1B5AC656-48C3-4864-953F-2CD31E7BA751";
paths = (
{
closed = 1;
nodes = (
"175 -200 LINE",
"175 140 LINE",
"151 140 LINE",
"176 52 OFFCURVE",
"219 -13 OFFCURVE",
"339 -13 CURVE SMOOTH",
"482 -13 OFFCURVE",
"596 108 OFFCURVE",
"596 258 CURVE SMOOTH",
"596 408 OFFCURVE",
"482 531 OFFCURVE",
"339 531 CURVE SMOOTH",
"219 531 OFFCURVE",
"176 465 OFFCURVE",
"151 376 CURVE",
"173 376 LINE",
"173 520 LINE",
"40 520 LINE",
"40 -200 LINE"
);
},
{
closed = 1;
nodes = (
"228 109 OFFCURVE",
"171 177 OFFCURVE",
"171 258 CURVE SMOOTH",
"171 339 OFFCURVE",
"228 409 OFFCURVE",
"317 409 CURVE SMOOTH",
"403 409 OFFCURVE",
"461 340 OFFCURVE",
"461 259 CURVE SMOOTH",
"461 180 OFFCURVE",
"403 109 OFFCURVE",
"317 109 CURVE SMOOTH"
);
}
);
width = 616;
}
);
leftKerningGroup = p;
rightKerningGroup = o;
unicode = 0070;
},
{
glyphname = thorn;
lastChange = "2021-10-27 00:26:08 +0000";
layers = (
{
anchors = (
{
name = bottom;
position = "{106, -200}";
},
{
name = ogonek;
position = "{418, 0}";
},
{
name = top;
position = "{106, 730}";
}
);
layerId = "1B5AC656-48C3-4864-953F-2CD31E7BA751";
paths = (
{
closed = 1;
nodes = (
"175 -200 LINE",
"175 140 LINE",
"151 140 LINE",
"176 52 OFFCURVE",
"219 -13 OFFCURVE",
"339 -13 CURVE SMOOTH",
"482 -13 OFFCURVE",
"596 108 OFFCURVE",
"596 258 CURVE SMOOTH",
"596 408 OFFCURVE",
"482 531 OFFCURVE",
"339 531 CURVE SMOOTH",
"219 531 OFFCURVE",
"176 465 OFFCURVE",
"151 376 CURVE",
"175 376 LINE",
"175 730 LINE",
"40 730 LINE",
"40 -200 LINE"
);
},
{
closed = 1;
nodes = (
"228 109 OFFCURVE",
"171 177 OFFCURVE",
"171 258 CURVE SMOOTH",
"171 339 OFFCURVE",
"228 409 OFFCURVE",
"317 409 CURVE SMOOTH",
"403 409 OFFCURVE",
"461 340 OFFCURVE",
"461 259 CURVE SMOOTH",
"461 180 OFFCURVE",
"403 109 OFFCURVE",
"317 109 CURVE SMOOTH"
);
}
);
width = 616;
}
);
leftKerningGroup = l;
leftMetricsKey = l;
rightKerningGroup = o;
rightMetricsKey = o;
unicode = 00FE;
},
{
glyphname = q;
lastChange = "2021-09-13 09:11:43 +0000";
layers = (
{
anchors = (
{
name = bottom;
position = "{507, -200}";
},
{
name = ogonek;
position = "{356, 0}";
},
{
name = top;
position = "{287, 520}";
}
);
layerId = "1B5AC656-48C3-4864-953F-2CD31E7BA751";
paths = (
{
closed = 1;
nodes = (
"576 -200 LINE",
"576 520 LINE",
"443 520 LINE",
"443 376 LINE",
"465 376 LINE",
"440 465 OFFCURVE",
"397 531 OFFCURVE",
"277 531 CURVE SMOOTH",
"134 531 OFFCURVE",
"20 408 OFFCURVE",
"20 258 CURVE SMOOTH",
"20 108 OFFCURVE",
"134 -13 OFFCURVE",
"277 -13 CURVE SMOOTH",
"397 -13 OFFCURVE",
"440 52 OFFCURVE",
"465 140 CURVE",
"441 140 LINE",
"441 -200 LINE"
);
},
{
closed = 1;
nodes = (
"213 109 OFFCURVE",
"155 180 OFFCURVE",
"155 259 CURVE SMOOTH",
"155 340 OFFCURVE",
"213 409 OFFCURVE",
"299 409 CURVE SMOOTH",
"388 409 OFFCURVE",
"445 339 OFFCURVE",
"445 258 CURVE SMOOTH",
"445 177 OFFCURVE",
"388 109 OFFCURVE",
"299 109 CURVE SMOOTH"
);
}
);
width = 616;
}
);
leftKerningGroup = o;
rightKerningGroup = q;
unicode = 0071;
},
{
glyphname = r;
lastChange = "2021-10-31 18:37:01 +0000";
layers = (
{
anchors = (
{
name = bottom;
position = "{106, 0}";
},
{
name = ogonek;
position = "{175, 0}";
},
{
name = top;
position = "{207, 520}";
}
);
layerId = "1B5AC656-48C3-4864-953F-2CD31E7BA751";
paths = (
{
closed = 1;
nodes = (
"175 0 LINE",
"175 266 LINE SMOOTH",
"175 353 OFFCURVE",
"235 405 OFFCURVE",
"313 405 CURVE SMOOTH",
"332 405 LINE",
"332 532 LINE",
"226 538 OFFCURVE",
"171 480 OFFCURVE",
"165 378 CURVE",
"171 378 LINE",
"171 520 LINE",
"40 520 LINE",
"40 0 LINE"
);
}
);
width = 337;
}
);
leftKerningGroup = n;
leftMetricsKey = n;
rightKerningGroup = r;
unicode = 0072;
},
{
glyphname = s;
lastChange = "2021-10-31 18:41:31 +0000";
layers = (
{
anchors = (
{
name = bottom;
position = "{218, 0}";
},
{
name = ogonek;
position = "{311, 0}";
},
{
name = top;
position = "{226, 520}";
}
);
background = {
paths = (
{
closed = 1;
nodes = (
"-856 2384 OFFCURVE",
"-790 2453 OFFCURVE",
"-656 2453 CURVE SMOOTH",
"-543 2453 OFFCURVE",
"-491 2414 OFFCURVE",
"-445 2355 CURVE",
"-539 2272 LINE",
"-577 2316 OFFCURVE",
"-614 2334 OFFCURVE",
"-655 2334 CURVE SMOOTH",
"-690 2334 OFFCURVE",
"-707 2318 OFFCURVE",
"-707 2301 CURVE SMOOTH",
"-707 2266 OFFCURVE",
"-677 2266 OFFCURVE",
"-587 2241 CURVE SMOOTH",
"-494 2214 OFFCURVE",
"-442 2175 OFFCURVE",
"-442 2076 CURVE SMOOTH",
"-442 1989 OFFCURVE",
"-505 1907 OFFCURVE",
"-659 1907 CURVE SMOOTH",
"-754 1907 OFFCURVE",
"-833 1932 OFFCURVE",
"-890 2006 CURVE",
"-790 2101 LINE",
"-754 2057 OFFCURVE",
"-709 2032 OFFCURVE",
"-658 2032 CURVE SMOOTH",
"-614 2032 OFFCURVE",
"-591 2047 OFFCURVE",
"-591 2075 CURVE SMOOTH",
"-591 2116 OFFCURVE",
"-657 2117 OFFCURVE",
"-728 2138 CURVE SMOOTH",
"-795 2157 OFFCURVE",
"-856 2204 OFFCURVE",
"-856 2293 CURVE SMOOTH"
);
},
{
closed = 1;
nodes = (
"-855 1377 OFFCURVE",
"-768 1456 OFFCURVE",
"-768 1538 CURVE SMOOTH",
"-768 1755 OFFCURVE",
"-1051 1684 OFFCURVE",
"-1051 1770 CURVE SMOOTH",
"-1051 1791 OFFCURVE",
"-1033 1816 OFFCURVE",
"-985 1816 CURVE SMOOTH",
"-939 1816 OFFCURVE",
"-902 1798 OFFCURVE",
"-870 1748 CURVE",
"-778 1819 LINE",
"-819 1881 OFFCURVE",
"-875 1923 OFFCURVE",
"-988 1923 CURVE SMOOTH",
"-1122 1923 OFFCURVE",
"-1186 1848 OFFCURVE",
"-1186 1758 CURVE SMOOTH",
"-1186 1565 OFFCURVE",
"-905 1634 OFFCURVE",
"-905 1538 CURVE SMOOTH",
"-905 1509 OFFCURVE",
"-929 1487 OFFCURVE",
"-979 1487 CURVE SMOOTH",
"-1032 1487 OFFCURVE",
"-1093 1514 OFFCURVE",
"-1129 1570 CURVE",
"-1223 1492 LINE",
"-1175 1413 OFFCURVE",
"-1093 1377 OFFCURVE",
"-987 1377 CURVE SMOOTH"
);
},
{
closed = 1;
nodes = (
"360 1587 OFFCURVE",
"421 1662 OFFCURVE",
"421 1757 CURVE SMOOTH",
"421 1803 OFFCURVE",
"407 1828 OFFCURVE",
"388 1849 CURVE SMOOTH",
"359 1881 OFFCURVE",
"308 1905 OFFCURVE",
"225 1927 CURVE SMOOTH",
"185 1938 OFFCURVE",
"168 1953 OFFCURVE",
"168 1978 CURVE SMOOTH",
"168 2006 OFFCURVE",
"188 2025 OFFCURVE",
"229 2025 CURVE SMOOTH",
"272 2025 OFFCURVE",
"304 2005 OFFCURVE",
"341 1962 CURVE",
"425 2042 LINE",
"376 2099 OFFCURVE",
"321 2133 OFFCURVE",
"230 2133 CURVE SMOOTH",
"100 2133 OFFCURVE",
"35 2065 OFFCURVE",
"35 1970 CURVE SMOOTH",
"35 1928 OFFCURVE",
"48 1900 OFFCURVE",
"69 1877 CURVE SMOOTH",
"95 1849 OFFCURVE",
"137 1823 OFFCURVE",
"234 1798 CURVE SMOOTH",
"274 1788 OFFCURVE",
"292 1772 OFFCURVE",
"292 1745 CURVE SMOOTH",
"292 1714 OFFCURVE",
"269 1699 OFFCURVE",
"228 1699 CURVE SMOOTH",
"182 1699 OFFCURVE",
"134 1718 OFFCURVE",
"98 1770 CURVE",
"4 1697 LINE",
"51 1619 OFFCURVE",
"134 1587 OFFCURVE",
"223 1587 CURVE SMOOTH"
);
},
{
closed = 0;
nodes = (
"227 1926 LINE",
"270 1915 OFFCURVE",
"302 1904 OFFCURVE",
"327 1892 CURVE SMOOTH"
);
},
{
closed = 1;
nodes = (
"-40 1887 OFFCURVE",
"21 1967 OFFCURVE",
"21 2055 CURVE SMOOTH",
"21 2124 OFFCURVE",
"-17 2165 OFFCURVE",
"-73 2192 CURVE SMOOTH",
"-108 2209 OFFCURVE",
"-148 2216 OFFCURVE",
"-190 2232 CURVE SMOOTH",
"-222 2244 OFFCURVE",
"-232 2260 OFFCURVE",
"-232 2282 CURVE SMOOTH",
"-232 2305 OFFCURVE",
"-213 2325 OFFCURVE",
"-180 2325 CURVE SMOOTH",
"-128 2325 OFFCURVE",
"-96 2305 OFFCURVE",
"-59 2262 CURVE",
"25 2342 LINE",
"-24 2399 OFFCURVE",
"-79 2433 OFFCURVE",
"-170 2433 CURVE SMOOTH",
"-300 2433 OFFCURVE",
"-365 2365 OFFCURVE",
"-365 2270 CURVE SMOOTH",
"-365 2204 OFFCURVE",
"-328 2162 OFFCURVE",
"-266 2132 CURVE SMOOTH",
"-234 2117 OFFCURVE",
"-217 2112 OFFCURVE",
"-166 2098 CURVE SMOOTH",
"-134 2089 OFFCURVE",
"-108 2075 OFFCURVE",
"-108 2045 CURVE SMOOTH",
"-108 2014 OFFCURVE",
"-138 1999 OFFCURVE",
"-172 1999 CURVE SMOOTH",
"-218 1999 OFFCURVE",
"-266 2018 OFFCURVE",
"-302 2070 CURVE",
"-396 1997 LINE",
"-349 1919 OFFCURVE",
"-266 1887 OFFCURVE",
"-177 1887 CURVE SMOOTH"
);
},
{
closed = 1;
nodes = (
"308 787 OFFCURVE",
"396 850 OFFCURVE",
"396 946 CURVE SMOOTH",
"396 1017 OFFCURVE",
"353 1066 OFFCURVE",
"252 1099 CURVE SMOOTH",
"143 1135 OFFCURVE",
"134 1162 OFFCURVE",
"134 1201 CURVE SMOOTH",
"134 1248 OFFCURVE",
"168 1283 OFFCURVE",
"219 1283 CURVE SMOOTH",
"278 1283 OFFCURVE",
"299 1261 OFFCURVE",
"322 1218 CURVE",
"373 1244 LINE",
"343 1302 OFFCURVE",
"306 1333 OFFCURVE",
"218 1333 CURVE SMOOTH",
"135 1333 OFFCURVE",
"74 1272 OFFCURVE",
"74 1195 CURVE SMOOTH",
"74 1133 OFFCURVE",
"112 1087 OFFCURVE",
"204 1056 CURVE SMOOTH",
"330 1014 OFFCURVE",
"337 983 OFFCURVE",
"337 942 CURVE SMOOTH",
"337 876 OFFCURVE",
"285 837 OFFCURVE",
"223 837 CURVE SMOOTH",
"148 837 OFFCURVE",
"95 881 OFFCURVE",
"80 956 CURVE",
"24 941 LINE",
"41 849 OFFCURVE",
"123 787 OFFCURVE",
"221 787 CURVE SMOOTH"
);
},
{
closed = 1;
nodes = (
"-149 987 OFFCURVE",
"-78 1055 OFFCURVE",
"-78 1157 CURVE SMOOTH",
"-78 1225 OFFCURVE",
"-98 1287 OFFCURVE",
"-260 1329 CURVE SMOOTH",
"-316 1344 OFFCURVE",
"-322 1361 OFFCURVE",
"-322 1379 CURVE SMOOTH",
"-322 1410 OFFCURVE",
"-298 1428 OFFCURVE",
"-266 1428 CURVE SMOOTH",
"-214 1428 OFFCURVE",
"-186 1400 OFFCURVE",
"-158 1366 CURVE",
"-69 1448 LINE",
"-117 1506 OFFCURVE",
"-178 1533 OFFCURVE",
"-271 1533 CURVE SMOOTH",
"-381 1533 OFFCURVE",
"-457 1470 OFFCURVE",
"-457 1375 CURVE SMOOTH",
"-457 1328 OFFCURVE",
"-448 1254 OFFCURVE",
"-301 1216 CURVE SMOOTH",
"-219 1195 OFFCURVE",
"-213 1176 OFFCURVE",
"-213 1153 CURVE SMOOTH",
"-213 1115 OFFCURVE",
"-238 1094 OFFCURVE",
"-282 1094 CURVE SMOOTH",
"-327 1094 OFFCURVE",
"-365 1112 OFFCURVE",
"-406 1160 CURVE",
"-496 1077 LINE",
"-433 1009 OFFCURVE",
"-367 987 OFFCURVE",
"-286 987 CURVE SMOOTH"
);
},
{
closed = 1;
nodes = (
"333 -13 OFFCURVE",
"420 59 OFFCURVE",
"420 155 CURVE SMOOTH",
"420 233 OFFCURVE",
"385 289 OFFCURVE",
"234 328 CURVE SMOOTH",
"172 344 OFFCURVE",
"167 360 OFFCURVE",
"167 378 CURVE SMOOTH",
"167 405 OFFCURVE",
"189 424 OFFCURVE",
"231 424 CURVE SMOOTH",
"261 424 OFFCURVE",
"296 408 OFFCURVE",
"321 368 CURVE",
"419 443 LINE",
"366 512 OFFCURVE",
"310 533 OFFCURVE",
"226 533 CURVE SMOOTH",
"104 533 OFFCURVE",
"32 465 OFFCURVE",
"32 374 CURVE SMOOTH",
"32 308 OFFCURVE",
"53 245 OFFCURVE",
"192 212 CURVE SMOOTH",
"274 193 OFFCURVE",
"285 178 OFFCURVE",
"285 151 CURVE SMOOTH",
"285 120 OFFCURVE",
"261 97 OFFCURVE",
"215 97 CURVE SMOOTH",
"171 97 OFFCURVE",
"131 118 OFFCURVE",
"93 161 CURVE",
"2 78 LINE",
"59 17 OFFCURVE",
"130 -13 OFFCURVE",
"218 -13 CURVE SMOOTH"
);
}
);
};
layerId = "1B5AC656-48C3-4864-953F-2CD31E7BA751";
paths = (
{
closed = 1;
nodes = (
"333 -13 OFFCURVE",
"420 59 OFFCURVE",
"420 155 CURVE SMOOTH",
"420 233 OFFCURVE",
"385 289 OFFCURVE",
"234 328 CURVE SMOOTH",
"172 344 OFFCURVE",
"164 360 OFFCURVE",
"164 378 CURVE SMOOTH",
"164 410 OFFCURVE",
"192 424 OFFCURVE",
"229 424 CURVE SMOOTH",
"264 424 OFFCURVE",
"296 408 OFFCURVE",
"321 368 CURVE",
"419 443 LINE",
"366 512 OFFCURVE",
"310 533 OFFCURVE",
"226 533 CURVE SMOOTH",
"104 533 OFFCURVE",
"32 465 OFFCURVE",
"32 374 CURVE SMOOTH",
"32 308 OFFCURVE",
"53 245 OFFCURVE",
"192 212 CURVE SMOOTH",
"274 193 OFFCURVE",
"287 178 OFFCURVE",
"287 151 CURVE SMOOTH",
"287 120 OFFCURVE",
"261 97 OFFCURVE",
"215 97 CURVE SMOOTH",
"171 97 OFFCURVE",
"131 118 OFFCURVE",
"93 161 CURVE",
"2 78 LINE",
"59 17 OFFCURVE",
"130 -13 OFFCURVE",
"218 -13 CURVE SMOOTH"
);
}
);
width = 433;
}
);
leftKerningGroup = s;
rightKerningGroup = s;
unicode = 0073;
},
{
glyphname = germandbls;
lastChange = "2021-10-31 18:45:56 +0000";
layers = (
{
background = {
paths = (
{
closed = 1;
nodes = (
"-153 1213 LINE",
"-173 1223 OFFCURVE",
"-193 1239 OFFCURVE",
"-212 1261 CURVE",
"-303 1178 LINE",
"-273 1146 OFFCURVE",
"-240 1123 OFFCURVE",
"-203 1108 CURVE"
);
},
{
closed = 1;
nodes = (
"170 2200 LINE",
"170 2655 LINE SMOOTH",
"170 2774 OFFCURVE",
"201 2844 OFFCURVE",
"292 2844 CURVE SMOOTH",
"414 2844 OFFCURVE",
"426 2794 OFFCURVE",
"426 2699 CURVE",
"543 2667 LINE",
"543 2882 OFFCURVE",
"469 2943 OFFCURVE",
"291 2943 CURVE SMOOTH",
"117 2943 OFFCURVE",
"35 2816 OFFCURVE",
"35 2667 CURVE SMOOTH",
"35 2200 LINE"
);
},
{
closed = 1;
nodes = (
"1028 1087 OFFCURVE",
"1115 1159 OFFCURVE",
"1115 1255 CURVE SMOOTH",
"1115 1333 OFFCURVE",
"1080 1389 OFFCURVE",
"929 1428 CURVE SMOOTH",
"867 1444 OFFCURVE",
"862 1460 OFFCURVE",
"862 1478 CURVE SMOOTH",
"862 1505 OFFCURVE",
"884 1524 OFFCURVE",
"926 1524 CURVE SMOOTH",
"956 1524 OFFCURVE",
"991 1508 OFFCURVE",
"1016 1468 CURVE",
"1114 1543 LINE",
"1061 1612 OFFCURVE",
"1005 1633 OFFCURVE",
"921 1633 CURVE SMOOTH",
"799 1633 OFFCURVE",
"727 1565 OFFCURVE",
"727 1474 CURVE SMOOTH",
"727 1408 OFFCURVE",
"748 1345 OFFCURVE",
"887 1312 CURVE SMOOTH",
"969 1293 OFFCURVE",
"980 1278 OFFCURVE",
"980 1251 CURVE SMOOTH",
"980 1220 OFFCURVE",
"956 1197 OFFCURVE",
"910 1197 CURVE SMOOTH",
"866 1197 OFFCURVE",
"826 1218 OFFCURVE",
"788 1261 CURVE",
"697 1178 LINE",
"754 1117 OFFCURVE",
"825 1087 OFFCURVE",
"913 1087 CURVE SMOOTH"
);
},
{
closed = 1;
nodes = (
"97 1108 LINE",
"132 1094 OFFCURVE",
"171 1087 OFFCURVE",
"213 1087 CURVE SMOOTH",
"328 1087 OFFCURVE",
"415 1159 OFFCURVE",
"415 1255 CURVE SMOOTH",
"415 1333 OFFCURVE",
"380 1389 OFFCURVE",
"229 1428 CURVE SMOOTH",
"167 1444 OFFCURVE",
"162 1460 OFFCURVE",
"162 1478 CURVE SMOOTH",
"162 1505 OFFCURVE",
"184 1524 OFFCURVE",
"226 1524 CURVE SMOOTH",
"256 1524 OFFCURVE",
"291 1508 OFFCURVE",
"316 1468 CURVE",
"414 1543 LINE",
"361 1612 OFFCURVE",
"305 1633 OFFCURVE",
"221 1633 CURVE SMOOTH",
"99 1633 OFFCURVE",
"27 1565 OFFCURVE",
"27 1474 CURVE SMOOTH",
"27 1408 OFFCURVE",
"48 1345 OFFCURVE",
"187 1312 CURVE SMOOTH",
"269 1293 OFFCURVE",
"280 1278 OFFCURVE",
"280 1251 CURVE SMOOTH",
"280 1220 OFFCURVE",
"256 1197 OFFCURVE",
"210 1197 CURVE SMOOTH",
"188 1197 OFFCURVE",
"167 1202 OFFCURVE",
"147 1213 CURVE"
);
},
{
closed = 1;
nodes = (
"387 297 OFFCURVE",
"487 397 OFFCURVE",
"487 520 CURVE SMOOTH",
"487 642 OFFCURVE",
"387 742 OFFCURVE",
"265 742 CURVE SMOOTH",
"142 742 OFFCURVE",
"42 642 OFFCURVE",
"42 520 CURVE SMOOTH",
"42 397 OFFCURVE",
"142 297 OFFCURVE",
"265 297 CURVE SMOOTH"
);
},
{
closed = 1;
nodes = (
"446 -13 OFFCURVE",
"546 87 OFFCURVE",
"546 210 CURVE SMOOTH",
"546 332 OFFCURVE",
"446 432 OFFCURVE",
"324 432 CURVE SMOOTH",
"201 432 OFFCURVE",
"101 332 OFFCURVE",
"101 210 CURVE SMOOTH",
"101 87 OFFCURVE",
"201 -13 OFFCURVE",
"324 -13 CURVE SMOOTH"
);
},
{
closed = 1;
nodes = (
"314 436 OFFCURVE",
"355 477 OFFCURVE",
"355 529 CURVE SMOOTH",
"355 580 OFFCURVE",
"314 621 OFFCURVE",
"263 621 CURVE SMOOTH",
"211 621 OFFCURVE",
"170 580 OFFCURVE",
"170 529 CURVE SMOOTH",
"170 477 OFFCURVE",
"211 436 OFFCURVE",
"263 436 CURVE SMOOTH"
);
},
{
closed = 1;
nodes = (
"368 108 OFFCURVE",
"414 154 OFFCURVE",
"414 212 CURVE SMOOTH",
"414 269 OFFCURVE",
"368 315 OFFCURVE",
"311 315 CURVE SMOOTH",
"253 315 OFFCURVE",
"207 269 OFFCURVE",
"207 212 CURVE SMOOTH",
"207 154 OFFCURVE",
"253 108 OFFCURVE",
"311 108 CURVE SMOOTH"
);
}
);
};
layerId = "1B5AC656-48C3-4864-953F-2CD31E7BA751";
paths = (
{
closed = 1;
nodes = (
"467 -13 OFFCURVE",
"548 100 OFFCURVE",
"548 212 CURVE SMOOTH",
"548 309 OFFCURVE",
"477 425 OFFCURVE",
"285 425 CURVE",
"285 359 LINE",
"445 378 OFFCURVE",
"487 480 OFFCURVE",
"487 549 CURVE SMOOTH",
"487 649 OFFCURVE",
"402 743 OFFCURVE",
"268 743 CURVE SMOOTH",
"126 743 OFFCURVE",
"35 641 OFFCURVE",
"35 514 CURVE SMOOTH",
"35 0 LINE",
"170 0 LINE",
"170 514 LINE SMOOTH",
"170 584 OFFCURVE",
"211 620 OFFCURVE",
"264 620 CURVE SMOOTH",
"316 620 OFFCURVE",
"353 582 OFFCURVE",
"353 534 CURVE SMOOTH",
"353 461 OFFCURVE",
"302 435 OFFCURVE",
"242 435 CURVE",
"242 327 LINE",
"367 346 OFFCURVE",
"414 280 OFFCURVE",
"414 215 CURVE SMOOTH",
"414 140 OFFCURVE",
"359 108 OFFCURVE",
"313 108 CURVE SMOOTH",
"284 108 OFFCURVE",
"259 118 OFFCURVE",
"240 130 CURVE",
"189 14 LINE",
"219 -3 OFFCURVE",
"259 -13 OFFCURVE",
"317 -13 CURVE SMOOTH"
);
}
);
width = 568;
}
);
leftKerningGroup = l;
leftMetricsKey = "=l-5";
rightKerningGroup = germandbls;
unicode = 00DF;
},
{
glyphname = t;
lastChange = "2021-10-31 18:59:08 +0000";
layers = (
{
anchors = (
{
name = bottom;
position = "{197, 0}";
},
{
name = center;
position = "{165, 276}";
},
{
name = ogonek;
position = "{311, 0}";
},
{
name = top;
position = "{146, 632}";
},
{
name = topright;
position = "{270, 730}";
}
);
background = {
components = (
{
name = t.ss01;
}
);
};
layerId = "1B5AC656-48C3-4864-953F-2CD31E7BA751";
paths = (
{
closed = 1;
nodes = (
"311 0 LINE",
"311 120 LINE",
"255 120 LINE SMOOTH",
"229 120 OFFCURVE",
"213 135 OFFCURVE",
"213 168 CURVE SMOOTH",
"213 639 LINE",
"78 625 LINE",
"78 161 LINE SMOOTH",
"78 48 OFFCURVE",
"134 0 OFFCURVE",
"237 0 CURVE SMOOTH"
);
},
{
closed = 1;
nodes = (
"323 405 LINE",
"323 520 LINE",
"5 520 LINE",
"5 405 LINE"
);
}
);
width = 328;
}
);
leftKerningGroup = t;
rightKerningGroup = t;
unicode = 0074;
},
{
glyphname = u;
lastChange = "2021-10-27 02:47:19 +0000";
layers = (
{
anchors = (
{
name = bottom;
position = "{274, 0}";
},
{
name = ogonek;
position = "{386, 0}";
},
{
name = top;
position = "{273, 520}";
},
{
name = topright;
position = "{501, 520}";
}
);
layerId = "1B5AC656-48C3-4864-953F-2CD31E7BA751";
paths = (
{
closed = 1;
nodes = (
"339 -12 OFFCURVE",
"387 40 OFFCURVE",
"403 142 CURVE",
"386 119 LINE",
"386 0 LINE",
"517 0 LINE",
"517 520 LINE",
"382 520 LINE",
"382 235 LINE SMOOTH",
"382 145 OFFCURVE",
"331 106 OFFCURVE",
"274 106 CURVE SMOOTH",
"207 106 OFFCURVE",
"170 145 OFFCURVE",
"170 235 CURVE SMOOTH",
"170 520 LINE",
"35 520 LINE",
"35 202 LINE SMOOTH",
"35 71 OFFCURVE",
"121 -12 OFFCURVE",
"233 -12 CURVE SMOOTH"
);
}
);
width = 557;
}
);
leftKerningGroup = u;
leftMetricsKey = "=|n";
rightKerningGroup = u;
rightMetricsKey = "=|n";
unicode = 0075;
},
{
glyphname = v;
lastChange = "2021-10-31 18:23:06 +0000";
layers = (
{
anchors = (
{
name = bottom;
position = "{273, 0}";
},
{
name = ogonek;
position = "{338, 0}";
},
{
name = top;
position = "{274, 520}";
}
);
background = {
paths = (
{
closed = 1;
nodes = (
"544 0 LINE",
"690 0 LINE",
"862 520 LINE",
"705 520 LINE",
"633 225 LINE SMOOTH",
"626 195 OFFCURVE",
"619 165 OFFCURVE",
"615 135 CURVE",
"619 135 LINE",
"615 165 OFFCURVE",
"608 196 OFFCURVE",
"600 226 CURVE SMOOTH",
"519 520 LINE",
"364 520 LINE",
"288 226 LINE SMOOTH",
"280 196 OFFCURVE",
"273 165 OFFCURVE",
"269 135 CURVE",
"273 135 LINE",
"269 165 OFFCURVE",
"262 195 OFFCURVE",
"255 225 CURVE SMOOTH",
"188 520 LINE",
"20 520 LINE",
"192 0 LINE",
"347 0 LINE",
"425 296 LINE SMOOTH",
"433 326 OFFCURVE",
"439 356 OFFCURVE",
"443 386 CURVE",
"439 386 LINE",
"443 356 OFFCURVE",
"451 326 OFFCURVE",
"459 296 CURVE SMOOTH"
);
},
{
closed = 1;
nodes = (
"202 0 LINE",
"338 0 LINE",
"554 520 LINE",
"394 520 LINE",
"252 101 LINE",
"291 101 LINE",
"148 520 LINE",
"-15 520 LINE"
);
}
);
};
layerId = "1B5AC656-48C3-4864-953F-2CD31E7BA751";
paths = (
{
closed = 1;
nodes = (
"338 0 LINE",
"554 520 LINE",
"397 520 LINE",
"293 223 LINE SMOOTH",
"283 194 OFFCURVE",
"274 159 OFFCURVE",
"269 129 CURVE",
"273 129 LINE",
"268 159 OFFCURVE",
"259 194 OFFCURVE",
"249 223 CURVE SMOOTH",
"145 520 LINE",
"-15 520 LINE",
"202 0 LINE"
);
}
);
width = 539;
}
);
leftKerningGroup = v;
rightKerningGroup = v;
unicode = 0076;
},
{
glyphname = w;
lastChange = "2021-10-31 18:41:49 +0000";
layers = (
{
anchors = (
{
name = bottom;
position = "{398, 0}";
},
{
name = ogonek;
position = "{647, 0}";
},
{
name = top;
position = "{398, 520}";
}
);
background = {
paths = (
{
closed = 1;
nodes = (
"140 1300 LINE",
"276 1300 LINE",
"497 1820 LINE",
"337 1820 LINE",
"190 1401 LINE",
"229 1401 LINE",
"82 1820 LINE",
"-81 1820 LINE"
);
},
{
closed = 1;
nodes = (
"497 1300 LINE",
"633 1300 LINE",
"854 1820 LINE",
"694 1820 LINE",
"547 1401 LINE",
"586 1401 LINE",
"439 1820 LINE",
"276 1820 LINE"
);
},
{
closed = 0;
nodes = (
"166 1462 LINE",
"628 1462 LINE"
);
},
{
closed = 0;
nodes = (
"-62 1220 LINE",
"139 700 LINE"
);
},
{
closed = 0;
nodes = (
"831 1220 LINE",
"630 700 LINE"
);
},
{
closed = 0;
nodes = (
"473 1300 LINE",
"272 700 LINE"
);
},
{
closed = 0;
nodes = (
"294 1300 LINE",
"495 700 LINE"
);
},
{
closed = 0;
nodes = (
"111 1220 LINE",
"250 754 LINE"
);
},
{
closed = 0;
nodes = (
"452 1220 LINE",
"591 754 LINE"
);
},
{
closed = 0;
nodes = (
"340 1202 LINE",
"156 726 LINE"
);
},
{
closed = 0;
nodes = (
"683 1202 LINE",
"499 726 LINE"
);
},
{
closed = 0;
nodes = (
"146 865 LINE",
"628 865 LINE"
);
},
{
closed = 0;
nodes = (
"214 837 LINE",
"214 1225 LINE"
);
},
{
closed = 0;
nodes = (
"554 837 LINE",
"554 1225 LINE"
);
},
{
closed = 0;
nodes = (
"383 717 LINE",
"383 1105 LINE"
);
},
{
closed = 1;
nodes = (
"161 0 LINE",
"297 0 LINE",
"518 520 LINE",
"358 520 LINE",
"211 101 LINE",
"250 101 LINE",
"103 520 LINE",
"-60 520 LINE"
);
},
{
closed = 1;
nodes = (
"501 0 LINE",
"637 0 LINE",
"858 520 LINE",
"698 520 LINE",
"551 101 LINE",
"590 101 LINE",
"443 520 LINE",
"280 520 LINE"
);
},
{
closed = 1;
nodes = (
"251 0 LINE",
"285 0 LINE",
"285 172 LINE",
"251 172 LINE"
);
},
{
closed = 1;
nodes = (
"391 347 LINE",
"425 347 LINE",
"425 519 LINE",
"391 519 LINE"
);
}
);
};
layerId = "1B5AC656-48C3-4864-953F-2CD31E7BA751";
paths = (
{
closed = 1;
nodes = (
"304 0 LINE",
"382 296 LINE SMOOTH",
"390 326 OFFCURVE",
"396 358 OFFCURVE",
"400 388 CURVE",
"396 388 LINE",
"400 358 OFFCURVE",
"407 326 OFFCURVE",
"416 296 CURVE SMOOTH",
"501 0 LINE",
"647 0 LINE",
"809 520 LINE",
"662 520 LINE",
"590 225 LINE SMOOTH",
"583 195 OFFCURVE",
"576 162 OFFCURVE",
"572 132 CURVE",
"576 132 LINE",
"572 162 OFFCURVE",
"565 196 OFFCURVE",
"557 226 CURVE SMOOTH",
"476 520 LINE",
"321 520 LINE",
"245 226 LINE SMOOTH",
"237 196 OFFCURVE",
"230 162 OFFCURVE",
"226 132 CURVE",
"230 132 LINE",
"226 162 OFFCURVE",
"219 195 OFFCURVE",
"212 225 CURVE SMOOTH",
"145 520 LINE",
"-13 520 LINE",
"149 0 LINE"
);
}
);
width = 796;
}
);
leftKerningGroup = w;
rightKerningGroup = w;
unicode = 0077;
},
{
glyphname = x;
lastChange = "2021-10-26 23:49:57 +0000";
layers = (
{
anchors = (
{
name = bottom;
position = "{274, 0}";
},
{
name = ogonek;
position = "{545, 0}";
},
{
name = top;
position = "{268, 520}";
}
);
layerId = "1B5AC656-48C3-4864-953F-2CD31E7BA751";
paths = (
{
closed = 1;
nodes = (
"151 0 LINE",
"284 188 LINE",
"253 188 LINE",
"381 0 LINE",
"545 0 LINE",
"320 298 LINE",
"332 233 LINE",
"535 520 LINE",
"377 520 LINE",
"249 327 LINE",
"285 327 LINE",
"161 520 LINE",
"0 520 LINE",
"204 233 LINE",
"213 298 LINE",
"-10 0 LINE"
);
}
);
width = 535;
}
);
unicode = 0078;
},
{
glyphname = y;
lastChange = "2021-10-27 02:48:04 +0000";
layers = (
{
anchors = (
{
name = bottom;
position = "{414, 0}";
},
{
name = ogonek;
position = "{158, -200}";
},
{
name = top;
position = "{267, 520}";
},
{
name = top_hook;
position = "{268, 459}";
}
);
layerId = "1B5AC656-48C3-4864-953F-2CD31E7BA751";
paths = (
{
closed = 1;
nodes = (
"215 -209 OFFCURVE",
"280 -138 OFFCURVE",
"324 -33 CURVE SMOOTH",
"554 520 LINE",
"394 520 LINE",
"293 223 LINE SMOOTH",
"283 194 OFFCURVE",
"274 159 OFFCURVE",
"269 129 CURVE",
"273 129 LINE",
"268 159 OFFCURVE",
"259 194 OFFCURVE",
"249 223 CURVE SMOOTH",
"148 520 LINE",
"-15 520 LINE",
"214 -30 LINE",
"205 65 LINE",
"184 2 LINE SMOOTH",
"169 -44 OFFCURVE",
"136 -77 OFFCURVE",
"84 -77 CURVE SMOOTH",
"62 -77 OFFCURVE",
"43 -75 OFFCURVE",
"23 -70 CURVE",
"3 -199 LINE",
"30 -207 OFFCURVE",
"66 -209 OFFCURVE",
"93 -209 CURVE SMOOTH"
);
}
);
width = 539;
}
);
leftKerningGroup = y;
rightKerningGroup = v;
unicode = 0079;
},
{
glyphname = z;
lastChange = "2021-10-31 18:41:56 +0000";
layers = (
{
anchors = (
{
name = bottom;
position = "{250, 0}";
},
{
name = ogonek;
position = "{468, 0}";
},
{
name = top;
position = "{250, 520}";
}
);
background = {
paths = (
{
closed = 1;
nodes = (
"468 0 LINE",
"468 115 LINE",
"173 115 LINE",
"211 88 LINE",
"227 105 OFFCURVE",
"239 123 OFFCURVE",
"250 141 CURVE SMOOTH",
"473 505 LINE",
"473 520 LINE",
"25 520 LINE",
"25 405 LINE",
"362 405 LINE",
"274 426 LINE",
"258 409 OFFCURVE",
"246 391 OFFCURVE",
"235 373 CURVE SMOOTH",
"14 15 LINE",
"14 0 LINE"
);
}
);
};
layerId = "1B5AC656-48C3-4864-953F-2CD31E7BA751";
paths = (
{
closed = 1;
nodes = (
"468 0 LINE",
"468 112 LINE",
"166 112 LINE",
"199 85 LINE",
"216 102 OFFCURVE",
"232 120 OFFCURVE",
"243 138 CURVE SMOOTH",
"473 505 LINE",
"473 520 LINE",
"25 520 LINE",
"25 408 LINE",
"369 408 LINE",
"286 429 LINE",
"269 412 OFFCURVE",
"253 394 OFFCURVE",
"242 376 CURVE SMOOTH",
"14 15 LINE",
"14 0 LINE"
);
}
);
width = 491;
}
);
leftKerningGroup = z;
rightKerningGroup = z;
unicode = 007A;
},
{
glyphname = saltillo;
lastChange = "2021-10-27 03:19:39 +0000";
layers = (
{
layerId = "1B5AC656-48C3-4864-953F-2CD31E7BA751";
paths = (
{
closed = 1;
nodes = (
"191 263 LINE",
"214 577 LINE",
"214 700 LINE",
"74 700 LINE",
"74 577 LINE",
"97 263 LINE"
);
}
);
width = 288;
}
);
unicode = A78C;
},
{
glyphname = c.ss01;
lastChange = "2021-10-31 23:33:06 +0000";
layers = (
{
anchors = (
{
name = bottom;
position = "{299, 0}";
},
{
name = ogonek;
position = "{388, 0}";
},
{
name = top;
position = "{286, 520}";
}
);
layerId = "1B5AC656-48C3-4864-953F-2CD31E7BA751";
paths = (
{
closed = 1;
nodes = (
"340 -14 OFFCURVE",
"379 -6 OFFCURVE",
"413 8 CURVE",
"418 152 LINE",
"388 123 OFFCURVE",
"349 109 OFFCURVE",
"299 109 CURVE SMOOTH",
"213 109 OFFCURVE",
"157 177 OFFCURVE",
"157 258 CURVE SMOOTH",
"157 339 OFFCURVE",
"213 407 OFFCURVE",
"299 407 CURVE SMOOTH",
"349 407 OFFCURVE",
"392 389 OFFCURVE",
"413 371 CURVE",
"413 508 LINE",
"379 522 OFFCURVE",
"340 530 OFFCURVE",
"299 530 CURVE SMOOTH",
"138 530 OFFCURVE",
"20 408 OFFCURVE",
"20 258 CURVE SMOOTH",
"20 108 OFFCURVE",
"138 -14 OFFCURVE",
"299 -14 CURVE SMOOTH"
);
}
);
width = 440;
}
);
leftKerningGroup = o;
leftMetricsKey = o;
rightKerningGroup = c.ss01;
},
{
glyphname = j.ss01;
lastChange = "2021-09-03 18:10:14 +0000";
layers = (
{
background = {
paths = (
{
closed = 1;
nodes = (
"178 -200 LINE",
"178 520 LINE",
"43 520 LINE",
"43 -200 LINE"
);
}
);
};
components = (
{
name = jdotless.ss01;
},
{
alignment = -1;
name = tittle;
}
);
layerId = "1B5AC656-48C3-4864-953F-2CD31E7BA751";
width = 215;
}
);
leftKerningGroup = i;
rightKerningGroup = i;
},
{
glyphname = jdotless.ss01;
lastChange = "2021-10-07 04:56:31 +0000";
layers = (
{
anchors = (
{
name = bottom;
position = "{106, -200}";
},
{
name = ogonek;
position = "{175, -200}";
},
{
name = top;
position = "{107, 520}";
}
);
layerId = "1B5AC656-48C3-4864-953F-2CD31E7BA751";
paths = (
{
closed = 1;
nodes = (
"175 -200 LINE",
"175 520 LINE",
"40 520 LINE",
"40 -200 LINE"
);
}
);
width = 215;
}
);
leftKerningGroup = i;
leftMetricsKey = p;
rightKerningGroup = u;
rightMetricsKey = u;
},
{
glyphname = t.ss01;
lastChange = "2021-10-31 18:29:53 +0000";
layers = (
{
anchors = (
{
name = bottom;
position = "{156, 0}";
},
{
name = center;
position = "{223, 276}";
},
{
name = ogonek;
position = "{223, 0}";
},
{
name = top;
position = "{156, 640}";
},
{
name = topright;
position = "{275, 740}";
}
);
layerId = "1B5AC656-48C3-4864-953F-2CD31E7BA751";
paths = (
{
closed = 1;
nodes = (
"223 0 LINE",
"223 640 LINE",
"88 640 LINE",
"88 0 LINE"
);
},
{
closed = 1;
nodes = (
"323 405 LINE",
"323 520 LINE",
"5 520 LINE",
"5 405 LINE"
);
}
);
width = 328;
}
);
leftKerningGroup = f;
rightKerningGroup = t.ss01;
},
{
glyphname = u.ss01;
lastChange = "2025-02-13 13:51:28 +0000";
layers = (
{
anchors = (
{
name = bottom;
position = "{275, 0}";
},
{
name = ogonek;
position = "{313, 22}";
},
{
name = top;
position = "{270, 520}";
},
{
name = topright;
position = "{491, 520}";
}
);
background = {
paths = (
{
closed = 1;
nodes = (
"334 -12 OFFCURVE",
"384 40 OFFCURVE",
"400 142 CURVE",
"379 235 LINE",
"379 148 OFFCURVE",
"325 106 OFFCURVE",
"270 106 CURVE SMOOTH",
"203 106 OFFCURVE",
"167 145 OFFCURVE",
"167 235 CURVE SMOOTH",
"167 520 LINE",
"32 520 LINE",
"32 202 LINE SMOOTH",
"32 71 OFFCURVE",
"118 -12 OFFCURVE",
"230 -12 CURVE SMOOTH"
);
},
{
closed = 1;
nodes = (
"514 0 LINE",
"514 520 LINE",
"379 520 LINE",
"379 0 LINE"
);
}
);
};
layerId = "1B5AC656-48C3-4864-953F-2CD31E7BA751";
paths = (
{
closed = 1;
nodes = (
"428 -12 OFFCURVE",
"511 71 OFFCURVE",
"511 202 CURVE SMOOTH",
"511 520 LINE",
"376 520 LINE",
"376 235 LINE SMOOTH",
"376 145 OFFCURVE",
"346 106 OFFCURVE",
"277 106 CURVE SMOOTH",
"211 106 OFFCURVE",
"170 145 OFFCURVE",
"170 235 CURVE SMOOTH",
"170 520 LINE",
"35 520 LINE",
"35 202 LINE SMOOTH",
"35 71 OFFCURVE",
"124 -12 OFFCURVE",
"275 -12 CURVE SMOOTH"
);
}
);
width = 546;
}
);
leftKerningGroup = u;
leftMetricsKey = "=|n";
rightKerningGroup = u.ss01;
rightMetricsKey = n;
},
{
glyphname = uogonek.ss01;
lastChange = "2021-10-27 00:42:26 +0000";
layers = (
{
background = {
paths = (
{
closed = 1;
nodes = (
"245 -163 OFFCURVE",
"315 -232 OFFCURVE",
"429 -206 CURVE",
"429 -121 LINE",
"376 -139 OFFCURVE",
"338 -110 OFFCURVE",
"338 -66 CURVE SMOOTH",
"338 -33 OFFCURVE",
"349 -9 OFFCURVE",
"387 7 CURVE",
"365 19 LINE",
"327 5 LINE",
"281 -9 OFFCURVE",
"245 -43 OFFCURVE",
"245 -95 CURVE SMOOTH"
);
}
);
};
components = (
{
name = u.ss01;
},
{
name = ogonekcomb;
transform = "{1, 0, 0, 1.1, 313, 22}";
}
);
layerId = "1B5AC656-48C3-4864-953F-2CD31E7BA751";
width = 546;
}
);
leftKerningGroup = u;
rightKerningGroup = u.ss01;
},
{
export = 0;
glyphname = eth.alt2;
lastChange = "2021-10-25 03:15:28 +0000";
layers = (
{
background = {
paths = (
{
closed = 1;
nodes = (
"423 -13 OFFCURVE",
"529 98 OFFCURVE",
"529 235 CURVE SMOOTH",
"529 372 OFFCURVE",
"423 483 OFFCURVE",
"277 483 CURVE SMOOTH",
"130 483 OFFCURVE",
"24 372 OFFCURVE",
"24 235 CURVE SMOOTH",
"24 98 OFFCURVE",
"130 -13 OFFCURVE",
"277 -13 CURVE SMOOTH"
);
},
{
closed = 1;
nodes = (
"201 103 OFFCURVE",
"151 164 OFFCURVE",
"151 235 CURVE SMOOTH",
"151 307 OFFCURVE",
"201 368 OFFCURVE",
"277 368 CURVE SMOOTH",
"352 368 OFFCURVE",
"402 307 OFFCURVE",
"402 235 CURVE SMOOTH",
"402 164 OFFCURVE",
"353 103 OFFCURVE",
"277 103 CURVE SMOOTH"
);
}
);
};
layerId = "1B5AC656-48C3-4864-953F-2CD31E7BA751";
paths = (
{
closed = 1;
nodes = (
"427 -13 OFFCURVE",
"540 87 OFFCURVE",
"540 293 CURVE SMOOTH",
"539 558 OFFCURVE",
"376 694 OFFCURVE",
"138 744 CURVE",
"100 630 LINE",
"303 597 OFFCURVE",
"399 513 OFFCURVE",
"406 342 CURVE",
"408 375 LINE",
"389 429 OFFCURVE",
"339 476 OFFCURVE",
"242 476 CURVE SMOOTH",
"133 476 OFFCURVE",
"20 372 OFFCURVE",
"20 235 CURVE SMOOTH",
"20 98 OFFCURVE",
"126 -13 OFFCURVE",
"277 -13 CURVE SMOOTH"
);
},
{
closed = 1;
nodes = (
"206 118 OFFCURVE",
"161 172 OFFCURVE",
"161 235 CURVE SMOOTH",
"161 299 OFFCURVE",
"206 353 OFFCURVE",
"277 353 CURVE SMOOTH",
"347 353 OFFCURVE",
"392 299 OFFCURVE",
"392 235 CURVE SMOOTH",
"392 172 OFFCURVE",
"348 118 OFFCURVE",
"277 118 CURVE SMOOTH"
);
},
{
closed = 1;
nodes = (
"519 584 LINE",
"489 679 LINE",
"324 634 LINE",
"269 598 LINE",
"143 576 LINE",
"174 488 LINE"
);
}
);
width = 560;
}
);
leftKerningGroup = o;
leftMetricsKey = c;
rightKerningGroup = b;
rightMetricsKey = b;
},
{
export = 0;
glyphname = ae.ss02;
lastChange = "2021-10-27 02:25:20 +0000";
layers = (
{
background = {
paths = (
{
closed = 1;
nodes = (
"-550 988 OFFCURVE",
"-463 1033 OFFCURVE",
"-421 1098 CURVE",
"-528 1177 LINE",
"-550 1137 OFFCURVE",
"-595 1110 OFFCURVE",
"-658 1110 CURVE SMOOTH",
"-738 1110 OFFCURVE",
"-783 1159 OFFCURVE",
"-792 1229 CURVE",
"-798 1259 LINE",
"-803 1349 OFFCURVE",
"-746 1417 OFFCURVE",
"-660 1417 CURVE SMOOTH",
"-569 1417 OFFCURVE",
"-513 1338 OFFCURVE",
"-521 1259 CURVE",
"-487 1320 LINE",
"-847 1320 LINE",
"-847 1210 LINE",
"-393 1210 LINE",
"-390 1227 OFFCURVE",
"-389 1244 OFFCURVE",
"-389 1259 CURVE SMOOTH",
"-389 1409 OFFCURVE",
"-497 1532 OFFCURVE",
"-648 1532 CURVE SMOOTH",
"-828 1532 OFFCURVE",
"-844 1399 OFFCURVE",
"-872 1259 CURVE",
"-844 1119 OFFCURVE",
"-828 988 OFFCURVE",
"-648 988 CURVE SMOOTH"
);
},
{
closed = 1;
nodes = (
"-954 987 OFFCURVE",
"-938 1118 OFFCURVE",
"-910 1258 CURVE",
"-938 1398 OFFCURVE",
"-954 1531 OFFCURVE",
"-1124 1531 CURVE SMOOTH",
"-1267 1531 OFFCURVE",
"-1381 1408 OFFCURVE",
"-1381 1258 CURVE SMOOTH",
"-1381 1108 OFFCURVE",
"-1267 987 OFFCURVE",
"-1124 987 CURVE SMOOTH"
);
},
{
closed = 1;
nodes = (
"-1188 1109 OFFCURVE",
"-1244 1180 OFFCURVE",
"-1244 1259 CURVE SMOOTH",
"-1244 1340 OFFCURVE",
"-1188 1409 OFFCURVE",
"-1102 1409 CURVE SMOOTH",
"-1013 1409 OFFCURVE",
"-956 1339 OFFCURVE",
"-956 1258 CURVE SMOOTH",
"-956 1177 OFFCURVE",
"-1013 1109 OFFCURVE",
"-1102 1109 CURVE SMOOTH"
);
},
{
closed = 1;
nodes = (
"-825 1000 LINE",
"-825 1520 LINE",
"-960 1520 LINE",
"-960 1371 LINE",
"-950 1258 LINE",
"-956 1133 LINE",
"-956 1000 LINE"
);
},
{
closed = 1;
nodes = (
"-954 1687 OFFCURVE",
"-938 1818 OFFCURVE",
"-910 1958 CURVE",
"-938 2098 OFFCURVE",
"-954 2231 OFFCURVE",
"-1124 2231 CURVE SMOOTH",
"-1267 2231 OFFCURVE",
"-1381 2108 OFFCURVE",
"-1381 1958 CURVE SMOOTH",
"-1381 1808 OFFCURVE",
"-1267 1687 OFFCURVE",
"-1124 1687 CURVE SMOOTH"
);
},
{
closed = 1;
nodes = (
"-1188 1809 OFFCURVE",
"-1244 1880 OFFCURVE",
"-1244 1959 CURVE SMOOTH",
"-1244 2040 OFFCURVE",
"-1188 2109 OFFCURVE",
"-1102 2109 CURVE SMOOTH",
"-1013 2109 OFFCURVE",
"-956 2039 OFFCURVE",
"-956 1958 CURVE SMOOTH",
"-956 1877 OFFCURVE",
"-1013 1809 OFFCURVE",
"-1102 1809 CURVE SMOOTH"
);
},
{
closed = 1;
nodes = (
"-825 1700 LINE",
"-825 2220 LINE",
"-960 2220 LINE",
"-960 2071 LINE",
"-950 1958 LINE",
"-956 1833 LINE",
"-956 1700 LINE"
);
},
{
closed = 1;
nodes = (
"374 987 OFFCURVE",
"492 1109 OFFCURVE",
"492 1260 CURVE SMOOTH",
"492 1411 OFFCURVE",
"374 1533 OFFCURVE",
"213 1533 CURVE SMOOTH",
"126 1533 OFFCURVE",
"51 1497 OFFCURVE",
"1 1440 CURVE",
"104 1355 LINE",
"130 1387 OFFCURVE",
"165 1410 OFFCURVE",
"213 1410 CURVE SMOOTH",
"299 1410 OFFCURVE",
"357 1341 OFFCURVE",
"357 1260 CURVE SMOOTH",
"357 1179 OFFCURVE",
"299 1110 OFFCURVE",
"213 1110 CURVE SMOOTH",
"161 1110 OFFCURVE",
"125 1138 OFFCURVE",
"98 1174 CURVE",
"-3 1085 LINE",
"47 1025 OFFCURVE",
"123 987 OFFCURVE",
"213 987 CURVE SMOOTH"
);
},
{
closed = 1;
nodes = (
"714 987 OFFCURVE",
"801 1033 OFFCURVE",
"843 1098 CURVE",
"738 1177 LINE",
"714 1137 OFFCURVE",
"669 1107 OFFCURVE",
"611 1107 CURVE SMOOTH",
"536 1107 OFFCURVE",
"488 1159 OFFCURVE",
"479 1229 CURVE",
"478 1259 LINE",
"473 1349 OFFCURVE",
"528 1417 OFFCURVE",
"609 1417 CURVE SMOOTH",
"695 1417 OFFCURVE",
"751 1338 OFFCURVE",
"743 1259 CURVE",
"777 1312 LINE",
"427 1312 LINE",
"427 1211 LINE",
"871 1211 LINE",
"874 1228 OFFCURVE",
"875 1244 OFFCURVE",
"875 1259 CURVE SMOOTH",
"875 1409 OFFCURVE",
"767 1533 OFFCURVE",
"611 1533 CURVE SMOOTH",
"455 1533 OFFCURVE",
"342 1409 OFFCURVE",
"342 1259 CURVE SMOOTH",
"342 1109 OFFCURVE",
"450 987 OFFCURVE",
"611 987 CURVE SMOOTH"
);
},
{
closed = 1;
nodes = (
"380 987 OFFCURVE",
"488 1109 OFFCURVE",
"488 1259 CURVE SMOOTH",
"488 1409 OFFCURVE",
"375 1533 OFFCURVE",
"219 1533 CURVE SMOOTH",
"63 1533 OFFCURVE",
"-45 1409 OFFCURVE",
"-45 1259 CURVE SMOOTH",
"-45 1244 OFFCURVE",
"-44 1228 OFFCURVE",
"-41 1211 CURVE",
"403 1211 LINE",
"403 1312 LINE",
"53 1312 LINE",
"87 1259 LINE",
"79 1338 OFFCURVE",
"135 1417 OFFCURVE",
"221 1417 CURVE SMOOTH",
"302 1417 OFFCURVE",
"357 1349 OFFCURVE",
"352 1259 CURVE",
"351 1229 LINE",
"342 1159 OFFCURVE",
"294 1107 OFFCURVE",
"219 1107 CURVE SMOOTH",
"161 1107 OFFCURVE",
"116 1137 OFFCURVE",
"92 1177 CURVE",
"-13 1098 LINE",
"29 1033 OFFCURVE",
"116 987 OFFCURVE",
"219 987 CURVE SMOOTH"
);
},
{
closed = 1;
nodes = (
"355 367 OFFCURVE",
"312 417 OFFCURVE",
"231 417 CURVE SMOOTH",
"180 417 OFFCURVE",
"131 397 OFFCURVE",
"112 361 CURVE",
"20 439 LINE",
"68 495 OFFCURVE",
"129 532 OFFCURVE",
"222 532 CURVE SMOOTH",
"324 532 OFFCURVE",
"434 482 OFFCURVE",
"429 338 CURVE",
"428 132 LINE",
"405 26 OFFCURVE",
"301 -12 OFFCURVE",
"208 -13 CURVE SMOOTH",
"90 -15 OFFCURVE",
"11 43 OFFCURVE",
"11 149 CURVE SMOOTH",
"11 226 OFFCURVE",
"52 308 OFFCURVE",
"259 308 CURVE SMOOTH",
"779 308 LINE",
"745 259 LINE",
"752 343 OFFCURVE",
"697 417 OFFCURVE",
"601 417 CURVE SMOOTH",
"522 417 OFFCURVE",
"464 367 OFFCURVE",
"466 306 CURVE SMOOTH",
"469 210 LINE",
"474 159 OFFCURVE",
"528 110 OFFCURVE",
"608 110 CURVE SMOOTH",
"671 110 OFFCURVE",
"716 137 OFFCURVE",
"738 177 CURVE",
"845 98 LINE",
"803 33 OFFCURVE",
"716 -12 OFFCURVE",
"615 -12 CURVE SMOOTH",
"518 -12 OFFCURVE",
"419 26 OFFCURVE",
"387 132 CURVE",
"388 338 LINE",
"388 482 OFFCURVE",
"500 532 OFFCURVE",
"605 532 CURVE SMOOTH",
"769 532 OFFCURVE",
"877 411 OFFCURVE",
"877 261 CURVE SMOOTH",
"877 246 OFFCURVE",
"876 229 OFFCURVE",
"873 213 CURVE",
"251 213 LINE SMOOTH",
"158 213 OFFCURVE",
"140 178 OFFCURVE",
"140 150 CURVE SMOOTH",
"140 115 OFFCURVE",
"168 91 OFFCURVE",
"228 91 CURVE SMOOTH",
"303 91 OFFCURVE",
"355 129 OFFCURVE",
"355 208 CURVE SMOOTH",
"355 306 LINE SMOOTH"
);
}
);
};
layerId = "1B5AC656-48C3-4864-953F-2CD31E7BA751";
paths = (
{
closed = 1;
nodes = (
"314 -7 OFFCURVE",
"405 33 OFFCURVE",
"428 132 CURVE",
"426 359 LINE",
"431 483 OFFCURVE",
"324 532 OFFCURVE",
"222 532 CURVE SMOOTH",
"129 532 OFFCURVE",
"68 495 OFFCURVE",
"20 439 CURVE",
"112 361 LINE",
"131 397 OFFCURVE",
"180 417 OFFCURVE",
"231 417 CURVE SMOOTH",
"312 417 OFFCURVE",
"355 367 OFFCURVE",
"355 306 CURVE SMOOTH",
"355 214 LINE SMOOTH",
"355 131 OFFCURVE",
"298 91 OFFCURVE",
"234 91 CURVE SMOOTH",
"195 91 OFFCURVE",
"144 107 OFFCURVE",
"144 154 CURVE SMOOTH",
"144 181 OFFCURVE",
"162 213 OFFCURVE",
"222 213 CURVE SMOOTH",
"873 213 LINE",
"876 229 OFFCURVE",
"877 246 OFFCURVE",
"877 261 CURVE SMOOTH",
"877 411 OFFCURVE",
"769 532 OFFCURVE",
"605 532 CURVE SMOOTH",
"500 532 OFFCURVE",
"385 483 OFFCURVE",
"385 359 CURVE SMOOTH",
"387 132 LINE",
"419 26 OFFCURVE",
"518 -12 OFFCURVE",
"615 -12 CURVE SMOOTH",
"716 -12 OFFCURVE",
"803 33 OFFCURVE",
"845 98 CURVE",
"738 177 LINE",
"716 137 OFFCURVE",
"671 110 OFFCURVE",
"608 110 CURVE SMOOTH",
"528 110 OFFCURVE",
"474 159 OFFCURVE",
"469 214 CURVE",
"466 306 LINE SMOOTH",
"464 367 OFFCURVE",
"523 417 OFFCURVE",
"601 417 CURVE SMOOTH",
"697 417 OFFCURVE",
"752 343 OFFCURVE",
"745 259 CURVE",
"779 308 LINE",
"214 308 LINE SMOOTH",
"56 308 OFFCURVE",
"15 225 OFFCURVE",
"15 152 CURVE SMOOTH",
"15 23 OFFCURVE",
"141 -18 OFFCURVE",
"234 -12 CURVE SMOOTH"
);
}
);
width = 896;
}
);
leftKerningGroup = ae;
rightKerningGroup = e;
rightMetricsKey = e;
},
{
export = 0;
glyphname = a.ss09;
lastChange = "2021-09-18 23:32:28 +0000";
layers = (
{
background = {
paths = (
{
closed = 1;
nodes = (
"477 -13 OFFCURVE",
"520 52 OFFCURVE",
"545 140 CURVE",
"525 140 LINE",
"525 0 LINE",
"656 0 LINE",
"656 520 LINE",
"522 520 LINE",
"522 376 LINE",
"545 376 LINE",
"520 465 OFFCURVE",
"477 531 OFFCURVE",
"357 531 CURVE SMOOTH",
"214 531 OFFCURVE",
"100 408 OFFCURVE",
"100 258 CURVE SMOOTH",
"100 108 OFFCURVE",
"214 -13 OFFCURVE",
"357 -13 CURVE SMOOTH"
);
},
{
closed = 1;
nodes = (
"2104 -13 OFFCURVE",
"2147 52 OFFCURVE",
"2172 140 CURVE",
"2152 140 LINE",
"2152 0 LINE",
"2283 0 LINE",
"2283 520 LINE",
"2149 520 LINE",
"2149 376 LINE",
"2172 376 LINE",
"2147 465 OFFCURVE",
"2104 531 OFFCURVE",
"1984 531 CURVE SMOOTH",
"1841 531 OFFCURVE",
"1727 408 OFFCURVE",
"1727 258 CURVE SMOOTH",
"1727 108 OFFCURVE",
"1841 -13 OFFCURVE",
"1984 -13 CURVE SMOOTH"
);
},
{
closed = 1;
nodes = (
"1920 109 OFFCURVE",
"1862 180 OFFCURVE",
"1862 259 CURVE SMOOTH",
"1862 340 OFFCURVE",
"1920 409 OFFCURVE",
"2006 409 CURVE SMOOTH",
"2095 409 OFFCURVE",
"2152 339 OFFCURVE",
"2152 258 CURVE SMOOTH",
"2152 177 OFFCURVE",
"2095 109 OFFCURVE",
"2006 109 CURVE SMOOTH"
);
},
{
closed = 1;
nodes = (
"1269 -613 OFFCURVE",
"1331 -528 OFFCURVE",
"1345 -450 CURVE",
"1331 -450 LINE",
"1331 -600 LINE",
"1458 -600 LINE",
"1458 -80 LINE",
"1328 -80 LINE",
"1328 -254 LINE",
"1345 -234 LINE",
"1331 -155 OFFCURVE",
"1269 -69 OFFCURVE",
"1157 -69 CURVE SMOOTH",
"1014 -69 OFFCURVE",
"900 -192 OFFCURVE",
"900 -342 CURVE SMOOTH",
"900 -492 OFFCURVE",
"1014 -613 OFFCURVE",
"1157 -613 CURVE SMOOTH"
);
},
{
closed = 1;
nodes = (
"1090 -496 OFFCURVE",
"1031 -422 OFFCURVE",
"1031 -341 CURVE SMOOTH",
"1031 -258 OFFCURVE",
"1090 -186 OFFCURVE",
"1179 -186 CURVE SMOOTH",
"1271 -186 OFFCURVE",
"1332 -259 OFFCURVE",
"1332 -342 CURVE SMOOTH",
"1332 -425 OFFCURVE",
"1270 -496 OFFCURVE",
"1179 -496 CURVE SMOOTH"
);
},
{
closed = 1;
nodes = (
"512 -613 OFFCURVE",
"553 -513 OFFCURVE",
"565 -450 CURVE",
"567 -450 LINE",
"564 -600 LINE",
"609 -600 LINE",
"609 -100 LINE",
"561 -100 LINE",
"564 -254 LINE",
"562 -254 LINE",
"556 -190 OFFCURVE",
"512 -89 OFFCURVE",
"357 -89 CURVE SMOOTH",
"214 -89 OFFCURVE",
"96 -212 OFFCURVE",
"96 -352 CURVE SMOOTH",
"96 -492 OFFCURVE",
"214 -613 OFFCURVE",
"357 -613 CURVE SMOOTH"
);
},
{
closed = 1;
nodes = (
"229 -569 OFFCURVE",
"144 -461 OFFCURVE",
"144 -351 CURVE SMOOTH",
"144 -239 OFFCURVE",
"229 -133 OFFCURVE",
"360 -133 CURVE SMOOTH",
"494 -133 OFFCURVE",
"565 -240 OFFCURVE",
"565 -352 CURVE SMOOTH",
"565 -475 OFFCURVE",
"493 -569 OFFCURVE",
"360 -569 CURVE SMOOTH"
);
},
{
closed = 1;
nodes = (
"2081 -613 OFFCURVE",
"2130 -548 OFFCURVE",
"2155 -470 CURVE",
"2129 -450 LINE",
"2129 -600 LINE",
"2337 -600 LINE",
"2337 -60 LINE",
"2126 -60 LINE",
"2126 -254 LINE",
"2155 -194 LINE",
"2130 -115 OFFCURVE",
"2081 -49 OFFCURVE",
"1967 -49 CURVE SMOOTH",
"1824 -49 OFFCURVE",
"1720 -172 OFFCURVE",
"1720 -332 CURVE SMOOTH",
"1720 -482 OFFCURVE",
"1824 -613 OFFCURVE",
"1967 -613 CURVE SMOOTH"
);
},
{
closed = 1;
nodes = (
"1969 -437 OFFCURVE",
"1929 -385 OFFCURVE",
"1929 -331 CURVE SMOOTH",
"1929 -267 OFFCURVE",
"1969 -225 OFFCURVE",
"2028 -225 CURVE SMOOTH",
"2088 -225 OFFCURVE",
"2132 -268 OFFCURVE",
"2132 -332 CURVE SMOOTH",
"2132 -385 OFFCURVE",
"2088 -437 OFFCURVE",
"2028 -437 CURVE SMOOTH"
);
}
);
};
layerId = "1B5AC656-48C3-4864-953F-2CD31E7BA751";
paths = (
{
closed = 1;
nodes = (
"2071 -363 OFFCURVE",
"2120 -304 OFFCURVE",
"2134 -220 CURVE",
"2135 -220 LINE",
"2129 -350 LINE",
"2337 -350 LINE",
"2337 190 LINE",
"2126 190 LINE",
"2132 56 LINE",
"2131 56 LINE",
"2117 141 OFFCURVE",
"2069 201 OFFCURVE",
"1967 201 CURVE SMOOTH",
"1824 201 OFFCURVE",
"1720 78 OFFCURVE",
"1720 -82 CURVE SMOOTH",
"1720 -232 OFFCURVE",
"1824 -363 OFFCURVE",
"1967 -363 CURVE SMOOTH"
);
},
{
closed = 1;
nodes = (
"471 -363 OFFCURVE",
"547 -296 OFFCURVE",
"565 -200 CURVE",
"567 -200 LINE",
"564 -350 LINE",
"609 -350 LINE",
"609 150 LINE",
"561 150 LINE",
"564 -4 LINE",
"562 -4 LINE",
"553 93 OFFCURVE",
"478 161 OFFCURVE",
"357 161 CURVE SMOOTH",
"214 161 OFFCURVE",
"96 38 OFFCURVE",
"96 -102 CURVE SMOOTH",
"96 -242 OFFCURVE",
"214 -363 OFFCURVE",
"357 -363 CURVE SMOOTH"
);
},
{
closed = 1;
nodes = (
"229 -319 OFFCURVE",
"144 -211 OFFCURVE",
"144 -101 CURVE SMOOTH",
"144 11 OFFCURVE",
"229 117 OFFCURVE",
"360 117 CURVE SMOOTH",
"494 117 OFFCURVE",
"565 10 OFFCURVE",
"565 -102 CURVE SMOOTH",
"565 -225 OFFCURVE",
"493 -319 OFFCURVE",
"360 -319 CURVE SMOOTH"
);
},
{
closed = 1;
nodes = (
"492 277 OFFCURVE",
"564 357 OFFCURVE",
"589 445 CURVE",
"577 445 LINE",
"577 290 LINE",
"608 290 LINE",
"608 790 LINE",
"574 790 LINE",
"574 631 LINE",
"589 631 LINE",
"564 720 OFFCURVE",
"492 801 OFFCURVE",
"357 801 CURVE SMOOTH",
"214 801 OFFCURVE",
"96 678 OFFCURVE",
"96 538 CURVE SMOOTH",
"96 398 OFFCURVE",
"214 277 OFFCURVE",
"357 277 CURVE SMOOTH"
);
},
{
closed = 1;
nodes = (
"220 306 OFFCURVE",
"129 421 OFFCURVE",
"129 539 CURVE SMOOTH",
"129 659 OFFCURVE",
"220 772 OFFCURVE",
"360 772 CURVE SMOOTH",
"504 772 OFFCURVE",
"580 658 OFFCURVE",
"580 538 CURVE SMOOTH",
"580 407 OFFCURVE",
"504 306 OFFCURVE",
"360 306 CURVE SMOOTH"
);
},
{
closed = 1;
nodes = (
"1271 -363 OFFCURVE",
"1322 -296 OFFCURVE",
"1329 -200 CURVE",
"1335 -200 LINE",
"1331 -350 LINE",
"1458 -350 LINE",
"1458 170 LINE",
"1328 170 LINE",
"1332 16 LINE",
"1329 16 LINE",
"1322 113 OFFCURVE",
"1271 181 OFFCURVE",
"1157 181 CURVE SMOOTH",
"1014 181 OFFCURVE",
"900 58 OFFCURVE",
"900 -92 CURVE SMOOTH",
"900 -242 OFFCURVE",
"1014 -363 OFFCURVE",
"1157 -363 CURVE SMOOTH"
);
},
{
closed = 1;
nodes = (
"1090 -246 OFFCURVE",
"1031 -172 OFFCURVE",
"1031 -91 CURVE SMOOTH",
"1031 -8 OFFCURVE",
"1090 64 OFFCURVE",
"1179 64 CURVE SMOOTH",
"1271 64 OFFCURVE",
"1332 -9 OFFCURVE",
"1332 -92 CURVE SMOOTH",
"1332 -175 OFFCURVE",
"1270 -246 OFFCURVE",
"1179 -246 CURVE SMOOTH"
);
},
{
closed = 1;
nodes = (
"1277 277 OFFCURVE",
"1320 342 OFFCURVE",
"1345 430 CURVE",
"1325 430 LINE",
"1325 290 LINE",
"1456 290 LINE",
"1456 810 LINE",
"1322 810 LINE",
"1322 666 LINE",
"1345 666 LINE",
"1320 755 OFFCURVE",
"1277 821 OFFCURVE",
"1157 821 CURVE SMOOTH",
"1014 821 OFFCURVE",
"900 698 OFFCURVE",
"900 548 CURVE SMOOTH",
"900 398 OFFCURVE",
"1014 277 OFFCURVE",
"1157 277 CURVE SMOOTH"
);
},
{
closed = 1;
nodes = (
"1093 399 OFFCURVE",
"1035 470 OFFCURVE",
"1035 549 CURVE SMOOTH",
"1035 630 OFFCURVE",
"1093 699 OFFCURVE",
"1179 699 CURVE SMOOTH",
"1268 699 OFFCURVE",
"1325 629 OFFCURVE",
"1325 548 CURVE SMOOTH",
"1325 467 OFFCURVE",
"1268 399 OFFCURVE",
"1179 399 CURVE SMOOTH"
);
},
{
closed = 1;
nodes = (
"1969 -187 OFFCURVE",
"1929 -135 OFFCURVE",
"1929 -81 CURVE SMOOTH",
"1929 -17 OFFCURVE",
"1969 25 OFFCURVE",
"2028 25 CURVE SMOOTH",
"2088 25 OFFCURVE",
"2132 -18 OFFCURVE",
"2132 -82 CURVE SMOOTH",
"2132 -135 OFFCURVE",
"2088 -187 OFFCURVE",
"2028 -187 CURVE SMOOTH"
);
},
{
closed = 1;
nodes = (
"2070 277 OFFCURVE",
"2130 332 OFFCURVE",
"2155 420 CURVE",
"2115 430 LINE",
"2115 290 LINE",
"2346 290 LINE",
"2346 820 LINE",
"2112 820 LINE",
"2112 676 LINE",
"2155 686 LINE",
"2130 775 OFFCURVE",
"2070 831 OFFCURVE",
"1957 831 CURVE SMOOTH",
"1814 831 OFFCURVE",
"1720 708 OFFCURVE",
"1720 553 CURVE SMOOTH",
"1720 398 OFFCURVE",
"1814 277 OFFCURVE",
"1957 277 CURVE SMOOTH"
);
},
{
closed = 1;
nodes = (
"1989 469 OFFCURVE",
"1957 506 OFFCURVE",
"1957 554 CURVE SMOOTH",
"1957 603 OFFCURVE",
"1989 639 OFFCURVE",
"2036 639 CURVE SMOOTH",
"2083 639 OFFCURVE",
"2115 602 OFFCURVE",
"2115 553 CURVE SMOOTH",
"2115 505 OFFCURVE",
"2083 469 OFFCURVE",
"2036 469 CURVE SMOOTH"
);
},
{
closed = 1;
nodes = (
"3071 -363 OFFCURVE",
"3147 -296 OFFCURVE",
"3165 -200 CURVE",
"3167 -200 LINE",
"3164 -350 LINE",
"3209 -350 LINE",
"3209 150 LINE",
"3161 150 LINE",
"3164 -4 LINE",
"3162 -4 LINE",
"3153 93 OFFCURVE",
"3078 161 OFFCURVE",
"2957 161 CURVE SMOOTH",
"2814 161 OFFCURVE",
"2696 38 OFFCURVE",
"2696 -102 CURVE SMOOTH",
"2696 -242 OFFCURVE",
"2814 -363 OFFCURVE",
"2957 -363 CURVE SMOOTH"
);
},
{
closed = 1;
nodes = (
"2829 -319 OFFCURVE",
"2744 -211 OFFCURVE",
"2744 -101 CURVE SMOOTH",
"2744 11 OFFCURVE",
"2829 117 OFFCURVE",
"2960 117 CURVE SMOOTH",
"3094 117 OFFCURVE",
"3165 10 OFFCURVE",
"3165 -102 CURVE SMOOTH",
"3165 -225 OFFCURVE",
"3093 -319 OFFCURVE",
"2960 -319 CURVE SMOOTH"
);
},
{
closed = 1;
nodes = (
"3092 277 OFFCURVE",
"3164 357 OFFCURVE",
"3189 445 CURVE",
"3177 445 LINE",
"3177 290 LINE",
"3208 290 LINE",
"3208 790 LINE",
"3174 790 LINE",
"3174 631 LINE",
"3189 631 LINE",
"3164 720 OFFCURVE",
"3092 801 OFFCURVE",
"2957 801 CURVE SMOOTH",
"2814 801 OFFCURVE",
"2696 678 OFFCURVE",
"2696 538 CURVE SMOOTH",
"2696 398 OFFCURVE",
"2814 277 OFFCURVE",
"2957 277 CURVE SMOOTH"
);
},
{
closed = 1;
nodes = (
"2820 306 OFFCURVE",
"2729 421 OFFCURVE",
"2729 539 CURVE SMOOTH",
"2729 659 OFFCURVE",
"2820 772 OFFCURVE",
"2960 772 CURVE SMOOTH",
"3104 772 OFFCURVE",
"3180 658 OFFCURVE",
"3180 538 CURVE SMOOTH",
"3180 407 OFFCURVE",
"3104 306 OFFCURVE",
"2960 306 CURVE SMOOTH"
);
}
);
width = 2356;
}
);
},
{
glyphname = f_f.ss02;
lastChange = "2025-02-13 14:13:53 +0000";
layers = (
{
anchors = (
{
name = bottom_1;
position = "{150, 0}";
},
{
name = bottom_2;
position = "{450, 0}";
},
{
name = caret_1;
position = "{300, 0}";
},
{
name = top_1;
position = "{150, 730}";
},
{
name = top_2;
position = "{450, 730}";
}
);
background = {
paths = (
{
closed = 1;
nodes = (
"484 660 OFFCURVE",
"400 730 OFFCURVE",
"281 730 CURVE SMOOTH",
"162 730 OFFCURVE",
"78 661 OFFCURVE",
"78 540 CURVE SMOOTH",
"78 0 LINE",
"213 0 LINE",
"213 538 LINE SMOOTH",
"213 584 OFFCURVE",
"237 619 OFFCURVE",
"281 619 CURVE SMOOTH",
"326 619 OFFCURVE",
"349 584 OFFCURVE",
"349 538 CURVE",
"484 540 LINE"
);
},
{
closed = 1;
nodes = (
"484 0 LINE",
"484 553 LINE SMOOTH",
"484 594 OFFCURVE",
"503 615 OFFCURVE",
"543 615 CURVE SMOOTH",
"578 615 LINE",
"578 730 LINE",
"522 730 LINE SMOOTH",
"417 730 OFFCURVE",
"349 660 OFFCURVE",
"349 555 CURVE SMOOTH",
"349 0 LINE"
);
}
);
};
layerId = "1B5AC656-48C3-4864-953F-2CD31E7BA751";
paths = (
{
closed = 1;
nodes = (
"213 0 LINE",
"213 538 LINE SMOOTH",
"213 584 OFFCURVE",
"237 619 OFFCURVE",
"281 619 CURVE SMOOTH",
"326 619 OFFCURVE",
"349 584 OFFCURVE",
"349 538 CURVE",
"448 628 LINE",
"411 708 OFFCURVE",
"356 730 OFFCURVE",
"271 730 CURVE SMOOTH",
"162 730 OFFCURVE",
"78 661 OFFCURVE",
"78 540 CURVE SMOOTH",
"78 0 LINE"
);
},
{
closed = 1;
nodes = (
"590 405 LINE",
"590 520 LINE",
"5 520 LINE",
"5 405 LINE"
);
},
{
closed = 1;
nodes = (
"484 0 LINE",
"484 553 LINE SMOOTH",
"484 594 OFFCURVE",
"503 615 OFFCURVE",
"543 615 CURVE SMOOTH",
"578 615 LINE",
"578 730 LINE",
"532 730 LINE SMOOTH",
"453 730 OFFCURVE",
"419 700 OFFCURVE",
"399 639 CURVE",
"349 602 LINE",
"349 0 LINE"
);
}
);
width = 600;
}
);
leftKerningGroup = f;
rightKerningGroup = f;
},
{
glyphname = f_f_l.ss02;
lastChange = "2025-02-13 14:13:53 +0000";
layers = (
{
anchors = (
{
name = bottom_1;
position = "{133, 0}";
},
{
name = bottom_2;
position = "{398, 0}";
},
{
name = bottom_3;
position = "{663, 0}";
},
{
name = caret_1;
position = "{265, 0}";
},
{
name = caret_2;
position = "{530, 0}";
},
{
name = top_1;
position = "{133, 730}";
},
{
name = top_2;
position = "{398, 730}";
},
{
name = top_3;
position = "{663, 730}";
}
);
background = {
paths = (
{
closed = 1;
nodes = (
"590 405 LINE",
"590 520 LINE",
"5 520 LINE",
"5 405 LINE"
);
},
{
closed = 1;
nodes = (
"484 0 LINE",
"484 553 LINE SMOOTH",
"484 594 OFFCURVE",
"503 615 OFFCURVE",
"543 615 CURVE SMOOTH",
"578 615 LINE",
"578 730 LINE",
"532 730 LINE SMOOTH",
"453 730 OFFCURVE",
"419 700 OFFCURVE",
"399 639 CURVE",
"349 602 LINE",
"349 0 LINE"
);
},
{
closed = 1;
nodes = (
"448 628 LINE",
"411 708 OFFCURVE",
"356 730 OFFCURVE",
"271 730 CURVE SMOOTH",
"162 730 OFFCURVE",
"78 661 OFFCURVE",
"78 540 CURVE SMOOTH",
"78 0 LINE",
"213 0 LINE",
"213 538 LINE SMOOTH",
"213 584 OFFCURVE",
"237 619 OFFCURVE",
"281 619 CURVE SMOOTH",
"326 619 OFFCURVE",
"349 584 OFFCURVE",
"349 538 CURVE"
);
},
{
closed = 1;
nodes = (
"754 1460 OFFCURVE",
"670 1530 OFFCURVE",
"551 1530 CURVE SMOOTH",
"432 1530 OFFCURVE",
"348 1461 OFFCURVE",
"348 1340 CURVE SMOOTH",
"348 800 LINE",
"483 800 LINE",
"483 1338 LINE SMOOTH",
"483 1384 OFFCURVE",
"507 1419 OFFCURVE",
"551 1419 CURVE SMOOTH",
"596 1419 OFFCURVE",
"619 1384 OFFCURVE",
"619 1338 CURVE SMOOTH",
"619 800 LINE",
"754 800 LINE",
"754 1340 LINE SMOOTH"
);
}
);
};
layerId = "1B5AC656-48C3-4864-953F-2CD31E7BA751";
paths = (
{
closed = 1;
nodes = (
"484 0 LINE",
"484 538 LINE SMOOTH",
"484 584 OFFCURVE",
"508 619 OFFCURVE",
"552 619 CURVE SMOOTH",
"597 619 OFFCURVE",
"620 584 OFFCURVE",
"620 538 CURVE SMOOTH",
"620 0 LINE",
"755 0 LINE",
"755 540 LINE SMOOTH",
"755 660 OFFCURVE",
"671 730 OFFCURVE",
"552 730 CURVE SMOOTH",
"467 730 OFFCURVE",
"419 695 OFFCURVE",
"396 590 CURVE",
"349 623 LINE",
"349 0 LINE"
);
},
{
closed = 1;
nodes = (
"213 0 LINE",
"213 538 LINE SMOOTH",
"213 584 OFFCURVE",
"237 619 OFFCURVE",
"281 619 CURVE SMOOTH",
"326 619 OFFCURVE",
"349 584 OFFCURVE",
"349 538 CURVE",
"444 614 LINE",
"415 688 OFFCURVE",
"350 730 OFFCURVE",
"271 730 CURVE SMOOTH",
"162 730 OFFCURVE",
"78 661 OFFCURVE",
"78 540 CURVE SMOOTH",
"78 0 LINE"
);
},
{
closed = 1;
nodes = (
"590 405 LINE",
"590 520 LINE",
"5 520 LINE",
"5 405 LINE"
);
}
);
width = 795;
}
);
leftKerningGroup = f;
leftMetricsKey = f;
rightKerningGroup = fl.ss02;
rightMetricsKey = l;
},
{
glyphname = f_t.ss02;
lastChange = "2025-02-13 14:13:53 +0000";
layers = (
{
anchors = (
{
name = bottom_1;
position = "{150, 0}";
},
{
name = bottom_2;
position = "{449, 0}";
},
{
name = caret_1;
position = "{299.5, 0}";
},
{
name = top_1;
position = "{150, 730}";
},
{
name = top_2;
position = "{449, 730}";
}
);
layerId = "1B5AC656-48C3-4864-953F-2CD31E7BA751";
paths = (
{
closed = 1;
nodes = (
"213 0 LINE",
"213 538 LINE SMOOTH",
"213 584 OFFCURVE",
"237 619 OFFCURVE",
"281 619 CURVE SMOOTH",
"326 619 OFFCURVE",
"349 584 OFFCURVE",
"349 538 CURVE SMOOTH",
"349 0 LINE",
"484 0 LINE",
"484 540 LINE SMOOTH",
"484 660 OFFCURVE",
"400 730 OFFCURVE",
"281 730 CURVE SMOOTH",
"162 730 OFFCURVE",
"78 661 OFFCURVE",
"78 540 CURVE SMOOTH",
"78 0 LINE"
);
},
{
closed = 1;
nodes = (
"594 405 LINE",
"594 520 LINE",
"5 520 LINE",
"5 405 LINE"
);
}
);
width = 599;
}
);
leftKerningGroup = f;
leftMetricsKey = f;
rightKerningGroup = t.ss01;
rightMetricsKey = t.ss01;
},
{
glyphname = fi.ss02;
lastChange = "2025-02-13 14:13:53 +0000";
layers = (
{
anchors = (
{
name = caret_1;
position = "{262, 0}";
}
);
background = {
paths = (
{
closed = 0;
nodes = (
"217 538 LINE SMOOTH",
"217 584 OFFCURVE",
"241 615 OFFCURVE",
"285 615 CURVE SMOOTH",
"330 615 OFFCURVE",
"353 584 OFFCURVE",
"353 540 CURVE SMOOTH"
);
},
{
closed = 0;
nodes = (
"82 540 LINE SMOOTH",
"82 660 OFFCURVE",
"166 730 OFFCURVE",
"285 730 CURVE SMOOTH",
"404 730 OFFCURVE",
"488 660 OFFCURVE",
"488 542 CURVE SMOOTH"
);
}
);
};
components = (
{
name = idotless;
transform = "{1, 0, 0, 1, 309, 0}";
}
);
layerId = "1B5AC656-48C3-4864-953F-2CD31E7BA751";
paths = (
{
closed = 1;
nodes = (
"213 0 LINE",
"213 538 LINE SMOOTH",
"213 584 OFFCURVE",
"237 619 OFFCURVE",
"281 619 CURVE SMOOTH",
"326 619 OFFCURVE",
"349 584 OFFCURVE",
"349 540 CURVE",
"484 540 LINE",
"484 660 OFFCURVE",
"400 730 OFFCURVE",
"281 730 CURVE SMOOTH",
"162 730 OFFCURVE",
"78 661 OFFCURVE",
"78 540 CURVE SMOOTH",
"78 0 LINE"
);
},
{
closed = 1;
nodes = (
"323 405 LINE",
"323 520 LINE",
"5 520 LINE",
"5 405 LINE"
);
}
);
width = 524;
}
);
leftKerningGroup = f;
leftMetricsKey = f;
rightKerningGroup = fl.ss02;
},
{
glyphname = fl.ss02;
lastChange = "2025-02-13 14:13:53 +0000";
layers = (
{
anchors = (
{
name = caret_1;
position = "{262, 0}";
}
);
layerId = "1B5AC656-48C3-4864-953F-2CD31E7BA751";
paths = (
{
closed = 1;
nodes = (
"213 0 LINE",
"213 538 LINE SMOOTH",
"213 584 OFFCURVE",
"237 619 OFFCURVE",
"281 619 CURVE SMOOTH",
"326 619 OFFCURVE",
"349 584 OFFCURVE",
"349 538 CURVE SMOOTH",
"349 0 LINE",
"484 0 LINE",
"484 540 LINE SMOOTH",
"484 660 OFFCURVE",
"400 730 OFFCURVE",
"281 730 CURVE SMOOTH",
"162 730 OFFCURVE",
"78 661 OFFCURVE",
"78 540 CURVE SMOOTH",
"78 0 LINE"
);
},
{
closed = 1;
nodes = (
"323 405 LINE",
"323 520 LINE",
"5 520 LINE",
"5 405 LINE"
);
}
);
width = 524;
}
);
leftKerningGroup = f;
leftMetricsKey = f;
rightKerningGroup = fl.ss02;
rightMetricsKey = l;
},
{
glyphname = ordfeminine;
lastChange = "2021-10-07 05:40:35 +0000";
layers = (
{
background = {
components = (
{
name = a;
transform = "{0.58542, 0, 0, 0.58542, 374, -242}";
}
);
paths = (
{
closed = 1;
nodes = (
"344 312 OFFCURVE",
"430 401 OFFCURVE",
"430 512 CURVE SMOOTH",
"430 624 OFFCURVE",
"344 713 OFFCURVE",
"224 713 CURVE SMOOTH",
"104 713 OFFCURVE",
"18 624 OFFCURVE",
"18 512 CURVE SMOOTH",
"18 401 OFFCURVE",
"104 312 OFFCURVE",
"224 312 CURVE SMOOTH"
);
},
{
closed = 1;
nodes = (
"168 416 OFFCURVE",
"132 460 OFFCURVE",
"132 512 CURVE SMOOTH",
"132 564 OFFCURVE",
"168 609 OFFCURVE",
"224 609 CURVE SMOOTH",
"279 609 OFFCURVE",
"315 564 OFFCURVE",
"315 512 CURVE SMOOTH",
"315 460 OFFCURVE",
"279 416 OFFCURVE",
"224 416 CURVE SMOOTH"
);
}
);
};
layerId = "1B5AC656-48C3-4864-953F-2CD31E7BA751";
paths = (
{
closed = 1;
nodes = (
"290 311 OFFCURVE",
"331 358 OFFCURVE",
"349 423 CURVE",
"323 423 LINE",
"323 320 LINE",
"432 320 LINE",
"432 705 LINE",
"321 705 LINE",
"321 599 LINE",
"349 599 LINE",
"331 664 OFFCURVE",
"290 713 OFFCURVE",
"211 713 CURVE SMOOTH",
"104 713 OFFCURVE",
"19 622 OFFCURVE",
"19 511 CURVE SMOOTH",
"19 399 OFFCURVE",
"104 311 OFFCURVE",
"211 311 CURVE SMOOTH"
);
},
{
closed = 1;
nodes = (
"433 157 LINE",
"433 256 LINE",
"37 256 LINE",
"37 157 LINE"
);
},
{
closed = 1;
nodes = (
"178 414 OFFCURVE",
"142 460 OFFCURVE",
"142 512 CURVE SMOOTH",
"142 564 OFFCURVE",
"178 609 OFFCURVE",
"236 609 CURVE SMOOTH",
"292 609 OFFCURVE",
"330 564 OFFCURVE",
"330 511 CURVE SMOOTH",
"330 458 OFFCURVE",
"292 414 OFFCURVE",
"236 414 CURVE SMOOTH"
);
}
);
width = 454;
}
);
unicode = 00AA;
},
{
glyphname = ordmasculine;
lastChange = "2021-10-07 05:40:35 +0000";
layers = (
{
background = {
components = (
{
name = o;
transform = "{0.7376, 0, 0, 0.7376, 6, 321}";
}
);
};
layerId = "1B5AC656-48C3-4864-953F-2CD31E7BA751";
paths = (
{
closed = 1;
nodes = (
"345 312 OFFCURVE",
"431 401 OFFCURVE",
"431 512 CURVE SMOOTH",
"431 624 OFFCURVE",
"345 713 OFFCURVE",
"225 713 CURVE SMOOTH",
"105 713 OFFCURVE",
"19 624 OFFCURVE",
"19 512 CURVE SMOOTH",
"19 401 OFFCURVE",
"105 312 OFFCURVE",
"225 312 CURVE SMOOTH"
);
},
{
closed = 1;
nodes = (
"413 157 LINE",
"413 256 LINE",
"37 256 LINE",
"37 157 LINE"
);
},
{
closed = 1;
nodes = (
"169 416 OFFCURVE",
"133 460 OFFCURVE",
"133 512 CURVE SMOOTH",
"133 564 OFFCURVE",
"169 609 OFFCURVE",
"225 609 CURVE SMOOTH",
"280 609 OFFCURVE",
"316 564 OFFCURVE",
"316 512 CURVE SMOOTH",
"316 460 OFFCURVE",
"280 416 OFFCURVE",
"225 416 CURVE SMOOTH"
);
}
);
width = 450;
}
);
unicode = 00BA;
},
{
glyphname = pi;
lastChange = "2021-10-26 23:50:13 +0000";
layers = (
{
background = {
paths = (
{
closed = 0;
nodes = (
"333 161 LINE SMOOTH",
"333 48 OFFCURVE",
"389 0 OFFCURVE",
"492 0 CURVE SMOOTH",
"566 0 LINE",
"566 120 LINE",
"510 120 LINE SMOOTH",
"484 120 OFFCURVE",
"468 135 OFFCURVE",
"468 168 CURVE SMOOTH"
);
}
);
};
layerId = "1B5AC656-48C3-4864-953F-2CD31E7BA751";
paths = (
{
closed = 1;
nodes = (
"220 0 LINE",
"220 430 LINE",
"195 405 LINE",
"358 405 LINE",
"333 430 LINE",
"333 142 LINE SMOOTH",
"333 34 OFFCURVE",
"402 0 OFFCURVE",
"482 0 CURVE SMOOTH",
"527 0 LINE",
"527 118 LINE",
"513 118 LINE SMOOTH",
"484 118 OFFCURVE",
"468 129 OFFCURVE",
"468 158 CURVE SMOOTH",
"468 430 LINE",
"443 405 LINE",
"526 405 LINE",
"526 520 LINE",
"11 520 LINE",
"11 405 LINE",
"110 405 LINE",
"85 430 LINE",
"85 0 LINE"
);
}
);
width = 541;
}
);
leftKerningGroup = f;
rightKerningGroup = t;
unicode = 03C0;
},
{
glyphname = pi.ss01;
lastChange = "2021-10-31 18:27:14 +0000";
layers = (
{
layerId = "1B5AC656-48C3-4864-953F-2CD31E7BA751";
paths = (
{
closed = 1;
nodes = (
"215 0 LINE",
"215 430 LINE",
"190 405 LINE",
"373 405 LINE",
"348 430 LINE",
"348 0 LINE",
"483 0 LINE",
"483 430 LINE",
"458 405 LINE",
"552 405 LINE",
"552 520 LINE",
"11 520 LINE",
"11 405 LINE",
"105 405 LINE",
"80 430 LINE",
"80 0 LINE"
);
}
);
width = 563;
}
);
leftKerningGroup = f;
rightKerningGroup = t.ss01;
},
{
glyphname = zero;
lastChange = "2021-10-31 18:33:43 +0000";
layers = (
{
background = {
paths = (
{
closed = 1;
nodes = (
"443 -13 OFFCURVE",
"554 110 OFFCURVE",
"554 348 CURVE SMOOTH",
"554 582 OFFCURVE",
"451 711 OFFCURVE",
"292 711 CURVE SMOOTH",
"134 711 OFFCURVE",
"30 585 OFFCURVE",
"30 348 CURVE SMOOTH",
"30 109 OFFCURVE",
"141 -13 OFFCURVE",
"292 -13 CURVE SMOOTH"
);
},
{
closed = 1;
nodes = (
"221 117 OFFCURVE",
"175 177 OFFCURVE",
"175 348 CURVE SMOOTH",
"175 530 OFFCURVE",
"221 581 OFFCURVE",
"292 581 CURVE SMOOTH",
"363 581 OFFCURVE",
"409 530 OFFCURVE",
"409 348 CURVE SMOOTH",
"409 177 OFFCURVE",
"363 117 OFFCURVE",
"292 117 CURVE SMOOTH"
);
}
);
};
layerId = "1B5AC656-48C3-4864-953F-2CD31E7BA751";
paths = (
{
closed = 1;
nodes = (
"468 -13 OFFCURVE",
"579 109 OFFCURVE",
"579 259 CURVE SMOOTH",
"579 439 LINE SMOOTH",
"579 589 OFFCURVE",
"468 711 OFFCURVE",
"307 711 CURVE SMOOTH",
"146 711 OFFCURVE",
"35 589 OFFCURVE",
"35 439 CURVE SMOOTH",
"35 259 LINE SMOOTH",
"35 109 OFFCURVE",
"146 -13 OFFCURVE",
"307 -13 CURVE SMOOTH"
);
},
{
closed = 1;
nodes = (
"221 117 OFFCURVE",
"180 184 OFFCURVE",
"180 275 CURVE SMOOTH",
"180 422 LINE SMOOTH",
"180 523 OFFCURVE",
"221 581 OFFCURVE",
"307 581 CURVE SMOOTH",
"393 581 OFFCURVE",
"434 523 OFFCURVE",
"434 422 CURVE SMOOTH",
"434 275 LINE SMOOTH",
"434 184 OFFCURVE",
"393 117 OFFCURVE",
"307 117 CURVE SMOOTH"
);
}
);
width = 614;
}
);
unicode = 0030;
},
{
glyphname = one;
lastChange = "2021-10-31 18:33:54 +0000";
layers = (
{
background = {
paths = (
{
closed = 0;
nodes = (
"197 914 LINE SMOOTH",
"-18 556 LINE",
"-18 541 LINE",
"426 541 LINE"
);
}
);
};
layerId = "1B5AC656-48C3-4864-953F-2CD31E7BA751";
paths = (
{
closed = 1;
nodes = (
"240 0 LINE",
"240 700 LINE",
"100 700 LINE",
"-21 559 LINE",
"-21 544 LINE",
"100 544 LINE",
"100 0 LINE"
);
}
);
width = 293;
}
);
leftKerningGroup = one;
rightKerningGroup = l;
unicode = 0031;
},
{
glyphname = two;
lastChange = "2021-10-26 23:44:58 +0000";
layers = (
{
background = {
paths = (
{
closed = 1;
nodes = (
"281 119 OFFCURVE",
"294 137 OFFCURVE",
"303 155 CURVE SMOOTH",
"571 700 LINE",
"431 700 LINE",
"91 15 LINE",
"93 0 LINE",
"618 0 LINE",
"618 123 LINE",
"265 123 LINE",
"265 102 LINE"
);
}
);
};
layerId = "1B5AC656-48C3-4864-953F-2CD31E7BA751";
paths = (
{
closed = 1;
nodes = (
"516 0 LINE",
"516 123 LINE",
"234 123 LINE",
"246 104 LINE",
"287 120 OFFCURVE",
"317 155 OFFCURVE",
"342 187 CURVE SMOOTH",
"451 329 LINE SMOOTH",
"497 388 OFFCURVE",
"512 434 OFFCURVE",
"512 490 CURVE SMOOTH",
"512 614 OFFCURVE",
"411 713 OFFCURVE",
"266 713 CURVE SMOOTH",
"122 713 OFFCURVE",
"17 614 OFFCURVE",
"17 470 CURVE",
"162 470 LINE",
"162 542 OFFCURVE",
"199 583 OFFCURVE",
"264 583 CURVE SMOOTH",
"329 583 OFFCURVE",
"367 542 OFFCURVE",
"367 482 CURVE SMOOTH",
"367 439 OFFCURVE",
"339 395 OFFCURVE",
"297 346 CURVE SMOOTH",
"17 16 LINE",
"17 0 LINE"
);
}
);
width = 551;
}
);
unicode = 0032;
},
{
glyphname = three;
lastChange = "2025-02-13 14:20:29 +0000";
layers = (
{
background = {
paths = (
{
closed = 0;
nodes = (
"257 -13 LINE SMOOTH",
"408 -13 OFFCURVE",
"494 75 OFFCURVE",
"494 188 CURVE SMOOTH",
"494 286 OFFCURVE",
"433 337 OFFCURVE",
"352 362 CURVE",
"340 339 LINE",
"433 364 OFFCURVE",
"485 414 OFFCURVE",
"485 511 CURVE SMOOTH"
);
}
);
};
layerId = "1B5AC656-48C3-4864-953F-2CD31E7BA751";
paths = (
{
closed = 1;
nodes = (
"408 -13 OFFCURVE",
"494 75 OFFCURVE",
"494 188 CURVE SMOOTH",
"494 322 OFFCURVE",
"414 386 OFFCURVE",
"288 391 CURVE",
"288 336 LINE",
"431 345 OFFCURVE",
"485 414 OFFCURVE",
"485 511 CURVE SMOOTH",
"485 624 OFFCURVE",
"402 713 OFFCURVE",
"257 713 CURVE SMOOTH",
"113 713 OFFCURVE",
"19 634 OFFCURVE",
"19 500 CURVE",
"154 500 LINE",
"154 562 OFFCURVE",
"194 592 OFFCURVE",
"257 592 CURVE SMOOTH",
"321 592 OFFCURVE",
"350 553 OFFCURVE",
"350 505 CURVE SMOOTH",
"350 446 OFFCURVE",
"306 416 OFFCURVE",
"238 416 CURVE SMOOTH",
"167 416 LINE",
"167 302 LINE",
"238 302 LINE SMOOTH",
"307 302 OFFCURVE",
"355 265 OFFCURVE",
"355 195 CURVE SMOOTH",
"355 148 OFFCURVE",
"323 108 OFFCURVE",
"257 108 CURVE SMOOTH",
"190 108 OFFCURVE",
"150 138 OFFCURVE",
"150 209 CURVE",
"10 209 LINE",
"10 65 OFFCURVE",
"107 -13 OFFCURVE",
"257 -13 CURVE SMOOTH"
);
}
);
width = 522;
}
);
rightKerningGroup = eight;
unicode = 0033;
},
{
glyphname = four;
lastChange = "2021-10-31 18:32:47 +0000";
layers = (
{
background = {
paths = (
{
closed = 0;
nodes = (
"494 685 LINE",
"135 209 LINE"
);
}
);
};
layerId = "1B5AC656-48C3-4864-953F-2CD31E7BA751";
paths = (
{
closed = 1;
nodes = (
"488 0 LINE",
"488 700 LINE",
"369 700 LINE",
"10 224 LINE",
"10 179 LINE",
"348 179 LINE",
"348 0 LINE"
);
},
{
closed = 1;
nodes = (
"311 439 LINE SMOOTH",
"329 463 OFFCURVE",
"347 489 OFFCURVE",
"363 521 CURVE",
"356 522 LINE",
"349 488 OFFCURVE",
"349 415 OFFCURVE",
"349 385 CURVE SMOOTH",
"349 291 LINE",
"112 291 LINE",
"153 234 LINE"
);
},
{
closed = 1;
nodes = (
"568 179 LINE",
"568 291 LINE",
"379 291 LINE",
"379 179 LINE"
);
}
);
width = 573;
}
);
unicode = 0034;
},
{
glyphname = five;
lastChange = "2021-10-27 02:35:39 +0000";
layers = (
{
background = {
paths = (
{
closed = 1;
nodes = (
"508 1377 LINE",
"508 1500 LINE",
"9 1500 LINE",
"9 1484 LINE",
"289 1154 LINE SMOOTH",
"331 1105 OFFCURVE",
"359 1061 OFFCURVE",
"359 1018 CURVE SMOOTH",
"359 958 OFFCURVE",
"321 917 OFFCURVE",
"256 917 CURVE SMOOTH",
"191 917 OFFCURVE",
"154 958 OFFCURVE",
"154 1030 CURVE",
"9 1030 LINE",
"9 886 OFFCURVE",
"114 787 OFFCURVE",
"258 787 CURVE SMOOTH",
"403 787 OFFCURVE",
"504 886 OFFCURVE",
"504 1010 CURVE SMOOTH",
"504 1066 OFFCURVE",
"489 1112 OFFCURVE",
"443 1171 CURVE SMOOTH",
"334 1313 LINE SMOOTH",
"309 1345 OFFCURVE",
"279 1380 OFFCURVE",
"238 1396 CURVE",
"226 1377 LINE"
);
},
{
closed = 1;
nodes = (
"506 1180 OFFCURVE",
"393 1278 OFFCURVE",
"221 1251 CURVE",
"231 1229 LINE",
"410 1500 LINE",
"247 1500 LINE",
"48 1198 LINE SMOOTH",
"-1 1124 OFFCURVE",
"-8 1078 OFFCURVE",
"-8 1027 CURVE SMOOTH",
"-8 888 OFFCURVE",
"97 787 OFFCURVE",
"248 787 CURVE SMOOTH",
"399 787 OFFCURVE",
"506 888 OFFCURVE",
"506 1027 CURVE SMOOTH"
);
},
{
closed = 1;
nodes = (
"361 967 OFFCURVE",
"320 917 OFFCURVE",
"248 917 CURVE SMOOTH",
"178 917 OFFCURVE",
"137 967 OFFCURVE",
"137 1027 CURVE SMOOTH",
"137 1087 OFFCURVE",
"178 1145 OFFCURVE",
"249 1145 CURVE SMOOTH",
"320 1145 OFFCURVE",
"361 1087 OFFCURVE",
"361 1027 CURVE SMOOTH"
);
},
{
closed = 1;
nodes = (
"137 167 OFFCURVE",
"178 117 OFFCURVE",
"248 117 CURVE SMOOTH",
"320 117 OFFCURVE",
"361 167 OFFCURVE",
"361 227 CURVE SMOOTH",
"361 287 OFFCURVE",
"323 345 OFFCURVE",
"238 345 CURVE SMOOTH",
"202 345 OFFCURVE",
"173 336 OFFCURVE",
"142 302 CURVE",
"16 336 LINE",
"81 700 LINE",
"450 700 LINE",
"450 577 LINE",
"108 577 LINE",
"196 618 LINE",
"150 363 LINE",
"95 381 LINE",
"153 458 OFFCURVE",
"220 468 OFFCURVE",
"267 468 CURVE SMOOTH",
"434 468 OFFCURVE",
"506 348 OFFCURVE",
"506 227 CURVE SMOOTH",
"506 88 OFFCURVE",
"399 -13 OFFCURVE",
"248 -13 CURVE SMOOTH",
"97 -13 OFFCURVE",
"-8 88 OFFCURVE",
"-8 227 CURVE",
"137 227 LINE"
);
}
);
};
layerId = "1B5AC656-48C3-4864-953F-2CD31E7BA751";
paths = (
{
closed = 1;
nodes = (
"396 -13 OFFCURVE",
"506 88 OFFCURVE",
"506 227 CURVE SMOOTH",
"506 348 OFFCURVE",
"434 460 OFFCURVE",
"267 460 CURVE SMOOTH",
"220 460 OFFCURVE",
"179 458 OFFCURVE",
"121 381 CURVE",
"194 363 LINE",
"233 618 LINE",
"134 577 LINE",
"450 577 LINE",
"450 700 LINE",
"118 700 LINE",
"53 298 LINE",
"106 326 OFFCURVE",
"157 342 OFFCURVE",
"215 342 CURVE SMOOTH",
"322 342 OFFCURVE",
"361 294 OFFCURVE",
"361 227 CURVE SMOOTH",
"361 160 OFFCURVE",
"317 117 OFFCURVE",
"225 117 CURVE SMOOTH",
"163 117 OFFCURVE",
"110 137 OFFCURVE",
"66 163 CURVE",
"15 41 LINE",
"92 -2 OFFCURVE",
"157 -13 OFFCURVE",
"235 -13 CURVE SMOOTH"
);
}
);
width = 530;
}
);
unicode = 0035;
},
{
glyphname = six;
lastChange = "2021-10-31 18:33:23 +0000";
layers = (
{
layerId = "1B5AC656-48C3-4864-953F-2CD31E7BA751";
paths = (
{
closed = 1;
nodes = (
"427 -13 OFFCURVE",
"534 88 OFFCURVE",
"534 227 CURVE SMOOTH",
"534 380 OFFCURVE",
"421 478 OFFCURVE",
"249 451 CURVE",
"259 429 LINE",
"438 700 LINE",
"275 700 LINE",
"76 398 LINE SMOOTH",
"27 324 OFFCURVE",
"20 278 OFFCURVE",
"20 227 CURVE SMOOTH",
"20 88 OFFCURVE",
"125 -13 OFFCURVE",
"276 -13 CURVE SMOOTH"
);
},
{
closed = 1;
nodes = (
"206 117 OFFCURVE",
"165 167 OFFCURVE",
"165 227 CURVE SMOOTH",
"165 287 OFFCURVE",
"206 345 OFFCURVE",
"277 345 CURVE SMOOTH",
"348 345 OFFCURVE",
"389 287 OFFCURVE",
"389 227 CURVE SMOOTH",
"389 167 OFFCURVE",
"348 117 OFFCURVE",
"276 117 CURVE SMOOTH"
);
}
);
width = 548;
}
);
unicode = 0036;
},
{
glyphname = seven;
lastChange = "2021-10-27 02:36:37 +0000";
layers = (
{
background = {
paths = (
{
closed = 1;
nodes = (
"482 700 LINE",
"482 0 LINE",
"622 0 LINE",
"622 700 LINE"
);
},
{
closed = 1;
nodes = (
"262 703 LINE",
"79 703 LINE",
"386 331 LINE",
"375 401 LINE",
"61 0 LINE",
"234 0 LINE",
"518 363 LINE"
);
},
{
closed = 1;
nodes = (
"312 578 OFFCURVE",
"298 560 OFFCURVE",
"287 542 CURVE SMOOTH",
"-29 15 LINE",
"-29 0 LINE",
"124 0 LINE",
"535 685 LINE",
"535 700 LINE",
"-10 700 LINE",
"-10 574 LINE",
"329 574 LINE",
"329 595 LINE"
);
}
);
};
layerId = "1B5AC656-48C3-4864-953F-2CD31E7BA751";
paths = (
{
closed = 1;
nodes = (
"187 0 LINE",
"517 685 LINE",
"515 700 LINE",
"-10 700 LINE",
"-10 577 LINE",
"333 577 LINE",
"333 598 LINE",
"317 581 OFFCURVE",
"303 563 OFFCURVE",
"295 545 CURVE SMOOTH",
"37 0 LINE"
);
}
);
width = 501;
}
);
unicode = 0037;
},
{
color = 0;
glyphname = eight;
lastChange = "2021-10-31 18:33:27 +0000";
layers = (
{
background = {
paths = (
{
closed = 1;
nodes = (
"405 -13 OFFCURVE",
"490 75 OFFCURVE",
"490 186 CURVE SMOOTH",
"490 273 OFFCURVE",
"435 330 OFFCURVE",
"356 355 CURVE",
"355 332 LINE",
"434 357 OFFCURVE",
"486 415 OFFCURVE",
"486 501 CURVE SMOOTH",
"486 612 OFFCURVE",
"401 700 OFFCURVE",
"262 700 CURVE SMOOTH",
"123 700 OFFCURVE",
"38 612 OFFCURVE",
"38 501 CURVE SMOOTH",
"38 415 OFFCURVE",
"90 357 OFFCURVE",
"169 332 CURVE",
"168 355 LINE",
"89 330 OFFCURVE",
"34 273 OFFCURVE",
"34 186 CURVE SMOOTH",
"34 75 OFFCURVE",
"119 -13 OFFCURVE",
"262 -13 CURVE SMOOTH"
);
},
{
closed = 1;
nodes = (
"191 94 OFFCURVE",
"155 136 OFFCURVE",
"155 186 CURVE SMOOTH",
"155 243 OFFCURVE",
"200 285 OFFCURVE",
"262 285 CURVE SMOOTH",
"325 285 OFFCURVE",
"369 243 OFFCURVE",
"369 186 CURVE SMOOTH",
"369 136 OFFCURVE",
"333 94 OFFCURVE",
"262 94 CURVE SMOOTH"
);
},
{
closed = 1;
nodes = (
"200 402 OFFCURVE",
"159 444 OFFCURVE",
"159 501 CURVE SMOOTH",
"159 551 OFFCURVE",
"195 593 OFFCURVE",
"262 593 CURVE SMOOTH",
"329 593 OFFCURVE",
"365 551 OFFCURVE",
"365 501 CURVE SMOOTH",
"365 444 OFFCURVE",
"324 402 OFFCURVE",
"262 402 CURVE SMOOTH"
);
}
);
};
layerId = "1B5AC656-48C3-4864-953F-2CD31E7BA751";
paths = (
{
closed = 1;
nodes = (
"417 -13 OFFCURVE",
"508 75 OFFCURVE",
"508 188 CURVE SMOOTH",
"508 297 OFFCURVE",
"442 357 OFFCURVE",
"361 383 CURVE",
"361 345 LINE",
"442 370 OFFCURVE",
"488 429 OFFCURVE",
"488 514 CURVE SMOOTH",
"488 627 OFFCURVE",
"411 713 OFFCURVE",
"266 713 CURVE SMOOTH",
"122 713 OFFCURVE",
"44 627 OFFCURVE",
"44 514 CURVE SMOOTH",
"44 429 OFFCURVE",
"91 370 OFFCURVE",
"171 345 CURVE",
"171 383 LINE",
"90 358 OFFCURVE",
"24 297 OFFCURVE",
"24 188 CURVE SMOOTH",
"24 75 OFFCURVE",
"116 -13 OFFCURVE",
"266 -13 CURVE SMOOTH"
);
},
{
closed = 1;
nodes = (
"206 107 OFFCURVE",
"162 153 OFFCURVE",
"162 206 CURVE SMOOTH",
"162 264 OFFCURVE",
"206 307 OFFCURVE",
"266 307 CURVE SMOOTH",
"326 307 OFFCURVE",
"370 264 OFFCURVE",
"370 206 CURVE SMOOTH",
"370 153 OFFCURVE",
"326 107 OFFCURVE",
"266 107 CURVE SMOOTH"
);
},
{
closed = 1;
nodes = (
"214 418 OFFCURVE",
"178 456 OFFCURVE",
"178 508 CURVE SMOOTH",
"178 556 OFFCURVE",
"214 593 OFFCURVE",
"266 593 CURVE SMOOTH",
"320 593 OFFCURVE",
"356 556 OFFCURVE",
"355 508 CURVE SMOOTH",
"354 456 OFFCURVE",
"318 418 OFFCURVE",
"266 418 CURVE SMOOTH"
);
}
);
width = 532;
}
);
rightKerningGroup = eight;
unicode = 0038;
},
{
glyphname = nine;
lastChange = "2021-10-31 18:33:31 +0000";
layers = (
{
background = {
paths = (
{
closed = 1;
nodes = (
"14 320 OFFCURVE",
"127 222 OFFCURVE",
"299 249 CURVE",
"289 271 LINE",
"120 0 LINE",
"273 0 LINE",
"488 338 LINE SMOOTH",
"513 377 OFFCURVE",
"528 422 OFFCURVE",
"528 473 CURVE SMOOTH",
"528 612 OFFCURVE",
"422 713 OFFCURVE",
"271 713 CURVE SMOOTH",
"120 713 OFFCURVE",
"14 612 OFFCURVE",
"14 473 CURVE SMOOTH"
);
},
{
closed = 1;
nodes = (
"149 543 OFFCURVE",
"196 590 OFFCURVE",
"271 590 CURVE SMOOTH",
"346 590 OFFCURVE",
"393 543 OFFCURVE",
"393 473 CURVE SMOOTH",
"393 403 OFFCURVE",
"346 355 OFFCURVE",
"271 355 CURVE SMOOTH",
"196 355 OFFCURVE",
"149 403 OFFCURVE",
"149 473 CURVE SMOOTH"
);
}
);
};
layerId = "1B5AC656-48C3-4864-953F-2CD31E7BA751";
paths = (
{
closed = 1;
nodes = (
"273 0 LINE",
"473 302 LINE SMOOTH",
"522 376 OFFCURVE",
"529 422 OFFCURVE",
"529 473 CURVE SMOOTH",
"529 612 OFFCURVE",
"424 713 OFFCURVE",
"273 713 CURVE SMOOTH",
"122 713 OFFCURVE",
"15 612 OFFCURVE",
"15 473 CURVE SMOOTH",
"15 320 OFFCURVE",
"127 222 OFFCURVE",
"300 249 CURVE",
"290 271 LINE",
"110 0 LINE"
);
},
{
closed = 1;
nodes = (
"201 355 OFFCURVE",
"160 413 OFFCURVE",
"160 473 CURVE SMOOTH",
"160 533 OFFCURVE",
"201 583 OFFCURVE",
"273 583 CURVE SMOOTH",
"343 583 OFFCURVE",
"384 533 OFFCURVE",
"384 473 CURVE SMOOTH",
"384 413 OFFCURVE",
"343 355 OFFCURVE",
"272 355 CURVE SMOOTH"
);
}
);
width = 549;
}
);
unicode = 0039;
},
{
glyphname = zero.ss01;
lastChange = "2021-10-31 18:28:02 +0000";
layers = (
{
layerId = "1B5AC656-48C3-4864-953F-2CD31E7BA751";
paths = (
{
closed = 1;
nodes = (
"443 -13 OFFCURVE",
"554 110 OFFCURVE",
"554 348 CURVE SMOOTH",
"554 582 OFFCURVE",
"451 711 OFFCURVE",
"292 711 CURVE SMOOTH",
"134 711 OFFCURVE",
"30 585 OFFCURVE",
"30 348 CURVE SMOOTH",
"30 109 OFFCURVE",
"141 -13 OFFCURVE",
"292 -13 CURVE SMOOTH"
);
},
{
closed = 1;
nodes = (
"221 117 OFFCURVE",
"175 177 OFFCURVE",
"175 348 CURVE SMOOTH",
"175 530 OFFCURVE",
"221 581 OFFCURVE",
"292 581 CURVE SMOOTH",
"363 581 OFFCURVE",
"409 530 OFFCURVE",
"409 348 CURVE SMOOTH",
"409 177 OFFCURVE",
"363 117 OFFCURVE",
"292 117 CURVE SMOOTH"
);
}
);
width = 584;
}
);
},
{
glyphname = one.ss01;
lastChange = "2021-10-26 23:59:57 +0000";
layers = (
{
layerId = "1B5AC656-48C3-4864-953F-2CD31E7BA751";
paths = (
{
closed = 1;
nodes = (
"251 0 LINE",
"251 700 LINE",
"0 700 LINE",
"0 577 LINE",
"111 577 LINE",
"111 0 LINE"
);
}
);
width = 304;
}
);
leftKerningGroup = one;
rightKerningGroup = l;
},
{
glyphname = zero.tf;
lastChange = "2021-10-27 01:56:49 +0000";
layers = (
{
layerId = "1B5AC656-48C3-4864-953F-2CD31E7BA751";
paths = (
{
closed = 1;
nodes = (
"461 -13 OFFCURVE",
"556 106 OFFCURVE",
"556 246 CURVE SMOOTH",
"556 452 LINE SMOOTH",
"556 592 OFFCURVE",
"461 711 OFFCURVE",
"300 711 CURVE SMOOTH",
"139 711 OFFCURVE",
"44 592 OFFCURVE",
"44 452 CURVE SMOOTH",
"44 246 LINE SMOOTH",
"44 106 OFFCURVE",
"139 -13 OFFCURVE",
"300 -13 CURVE SMOOTH"
);
},
{
closed = 1;
nodes = (
"214 117 OFFCURVE",
"189 191 OFFCURVE",
"189 256 CURVE SMOOTH",
"189 441 LINE SMOOTH",
"189 516 OFFCURVE",
"214 581 OFFCURVE",
"300 581 CURVE SMOOTH",
"386 581 OFFCURVE",
"411 516 OFFCURVE",
"411 441 CURVE SMOOTH",
"411 256 LINE SMOOTH",
"411 191 OFFCURVE",
"386 117 OFFCURVE",
"300 117 CURVE SMOOTH"
);
}
);
width = 600;
}
);
},
{
glyphname = one.ss01.tf;
lastChange = "2021-10-27 02:00:30 +0000";
layers = (
{
background = {
paths = (
{
closed = 1;
nodes = (
"512 0 LINE",
"512 120 LINE",
"100 120 LINE",
"100 0 LINE"
);
}
);
};
components = (
{
alignment = -1;
name = one.ss01;
transform = "{1, 0, 0, 1, 137, 0}";
}
);
layerId = "1B5AC656-48C3-4864-953F-2CD31E7BA751";
width = 600;
}
);
},
{
glyphname = fraction;
lastChange = "2021-09-15 04:34:57 +0000";
layers = (
{
background = {
paths = (
{
closed = 1;
nodes = (
"132 0 LINE",
"629 700 LINE",
"520 700 LINE",
"22 0 LINE"
);
}
);
};
layerId = "1B5AC656-48C3-4864-953F-2CD31E7BA751";
paths = (
{
closed = 1;
nodes = (
"45 0 LINE",
"662 700 LINE",
"532 700 LINE",
"-85 0 LINE"
);
}
);
width = 577;
}
);
unicode = 2044;
},
{
glyphname = onequarter;
lastChange = "2021-09-19 23:55:51 +0000";
layers = (
{
background = {
components = (
{
name = one;
transform = "{0.6, 0, 0, 0.6, 113, 280}";
},
{
name = four;
transform = "{0.6, 0, 0, 0.6, 420, 0}";
}
);
};
components = (
{
name = onesuperior;
transform = "{1, 0, 0, 1, -19, 0}";
},
{
alignment = -1;
name = fraction;
transform = "{1, 0, 0, 1, 73, 0}";
}
);
layerId = "1B5AC656-48C3-4864-953F-2CD31E7BA751";
paths = (
{
closed = 1;
nodes = (
"685 0 LINE",
"685 117 LINE",
"660 97 LINE",
"723 97 LINE",
"723 185 LINE",
"660 185 LINE",
"685 165 LINE",
"685 420 LINE",
"582 420 LINE",
"378 144 LINE",
"378 97 LINE",
"577 97 LINE",
"577 0 LINE"
);
},
{
closed = 1;
nodes = (
"587 328 LINE",
"576 290 OFFCURVE",
"577 261 OFFCURVE",
"577 238 CURVE SMOOTH",
"577 182 LINE",
"466 182 LINE",
"473 171 LINE"
);
}
);
width = 723;
}
);
unicode = 00BC;
},
{
glyphname = threequarters;
lastChange = "2021-09-19 23:55:55 +0000";
layers = (
{
background = {
components = (
{
name = four;
transform = "{0.6, 0, 0, 0.6, 424, 0}";
},
{
name = three;
transform = "{0.57143, 0, 0, 0.57143, 12, 305}";
},
{
name = fraction;
transform = "{1, 0, 0, 1, 78, 0}";
},
{
name = fourinferior;
transform = "{1, 0, 0, 1, 350, 0}";
},
{
name = threesuperior;
transform = "{1, 0, 0, 1, -32, 0}";
}
);
paths = (
{
closed = 1;
nodes = (
"306 305 LINE",
"306 394 LINE",
"149 394 LINE",
"154 375 LINE",
"192 400 OFFCURVE",
"220 429 OFFCURVE",
"236 453 CURVE SMOOTH",
"264 495 LINE SMOOTH",
"288 531 OFFCURVE",
"296 555 OFFCURVE",
"296 585 CURVE SMOOTH",
"296 655 OFFCURVE",
"229 712 OFFCURVE",
"147 712 CURVE SMOOTH",
"64 712 OFFCURVE",
"-5 655 OFFCURVE",
"-5 574 CURVE",
"105 574 LINE",
"105 607 OFFCURVE",
"118 622 OFFCURVE",
"149 622 CURVE SMOOTH",
"173 622 OFFCURVE",
"187 605 OFFCURVE",
"187 583 CURVE SMOOTH",
"187 564 OFFCURVE",
"183 548 OFFCURVE",
"166 526 CURVE SMOOTH",
"-4 315 LINE",
"-4 305 LINE"
);
}
);
};
components = (
{
alignment = -1;
name = fraction;
transform = "{1, 0, 0, 1, 78, 0}";
},
{
alignment = -1;
name = fourinferior;
transform = "{1, 0, 0, 1, 349, 0}";
},
{
alignment = -1;
name = threesuperior;
transform = "{1, 0, 0, 1, -32, 0}";
}
);
layerId = "1B5AC656-48C3-4864-953F-2CD31E7BA751";
width = 728;
}
);
unicode = 00BE;
},
{
glyphname = onehalf.ss01;
lastChange = "2021-09-19 23:53:45 +0000";
layers = (
{
background = {
paths = (
{
closed = 1;
nodes = (
"787 0 LINE",
"787 74 LINE",
"617 74 LINE",
"625 62 LINE",
"649 72 OFFCURVE",
"667 93 OFFCURVE",
"682 112 CURVE SMOOTH",
"748 197 LINE SMOOTH",
"776 233 OFFCURVE",
"784 260 OFFCURVE",
"784 294 CURVE SMOOTH",
"784 368 OFFCURVE",
"724 428 OFFCURVE",
"637 428 CURVE SMOOTH",
"550 428 OFFCURVE",
"487 368 OFFCURVE",
"487 282 CURVE",
"574 282 LINE",
"574 325 OFFCURVE",
"596 350 OFFCURVE",
"635 350 CURVE SMOOTH",
"674 350 OFFCURVE",
"697 325 OFFCURVE",
"697 289 CURVE SMOOTH",
"697 263 OFFCURVE",
"680 237 OFFCURVE",
"655 208 CURVE SMOOTH",
"487 10 LINE",
"487 0 LINE"
);
},
{
closed = 1;
nodes = (
"480 0 LINE",
"480 420 LINE",
"299 420 LINE",
"299 326 LINE",
"366 326 LINE",
"366 0 LINE"
);
}
);
};
components = (
{
alignment = -1;
name = fraction;
transform = "{1, 0, 0, 1, 73, 0}";
},
{
name = onesuperior.ss01;
},
{
name = twosuperior;
transform = "{1, 0, 0, 1, 416, -306}";
}
);
layerId = "1B5AC656-48C3-4864-953F-2CD31E7BA751";
width = 745;
}
);
},
{
export = 0;
glyphname = oneinferior;
lastChange = "2021-09-19 23:48:53 +0000";
layers = (
{
layerId = "1B5AC656-48C3-4864-953F-2CD31E7BA751";
paths = (
{
closed = 1;
nodes = (
"223 0 LINE",
"223 400 LINE",
"115 400 LINE",
"42 331 LINE",
"42 308 LINE",
"115 308 LINE",
"115 0 LINE"
);
}
);
width = 293;
}
);
unicode = 2081;
},
{
export = 0;
glyphname = onesuperior;
lastChange = "2021-10-27 01:24:58 +0000";
layers = (
{
background = {
components = (
{
name = one;
transform = "{1, 0, 0, 1, 30, 0}";
}
);
};
layerId = "1B5AC656-48C3-4864-953F-2CD31E7BA751";
paths = (
{
closed = 1;
nodes = (
"223 300 LINE",
"223 700 LINE",
"115 700 LINE",
"42 631 LINE",
"42 608 LINE",
"115 608 LINE",
"115 300 LINE"
);
}
);
width = 293;
}
);
unicode = 00B9;
},
{
export = 0;
glyphname = twosuperior;
lastChange = "2021-10-27 01:24:58 +0000";
layers = (
{
background = {
components = (
{
name = two;
transform = "{1, 0, 0, 1, 23, 0}";
}
);
};
layerId = "1B5AC656-48C3-4864-953F-2CD31E7BA751";
paths = (
{
closed = 1;
nodes = (
"341 301 LINE",
"341 390 LINE",
"184 390 LINE",
"189 371 LINE",
"227 396 OFFCURVE",
"255 425 OFFCURVE",
"271 449 CURVE SMOOTH",
"299 491 LINE SMOOTH",
"323 527 OFFCURVE",
"331 551 OFFCURVE",
"331 581 CURVE SMOOTH",
"331 651 OFFCURVE",
"264 708 OFFCURVE",
"182 708 CURVE SMOOTH",
"99 708 OFFCURVE",
"30 651 OFFCURVE",
"30 570 CURVE",
"140 570 LINE",
"140 603 OFFCURVE",
"153 618 OFFCURVE",
"184 618 CURVE SMOOTH",
"208 618 OFFCURVE",
"222 601 OFFCURVE",
"222 579 CURVE SMOOTH",
"222 560 OFFCURVE",
"218 544 OFFCURVE",
"201 522 CURVE SMOOTH",
"31 311 LINE",
"31 301 LINE"
);
}
);
width = 386;
}
);
unicode = 00B2;
},
{
export = 0;
glyphname = threesuperior;
lastChange = "2021-10-27 01:24:58 +0000";
layers = (
{
background = {
components = (
{
name = three;
transform = "{1, 0, 0, 1, 47, 0}";
}
);
};
layerId = "1B5AC656-48C3-4864-953F-2CD31E7BA751";
paths = (
{
closed = 1;
nodes = (
"268 294 OFFCURVE",
"329 344 OFFCURVE",
"329 408 CURVE SMOOTH",
"329 492 OFFCURVE",
"272 522 OFFCURVE",
"200 524 CURVE",
"200 503 LINE",
"289 508 OFFCURVE",
"324 529 OFFCURVE",
"324 593 CURVE SMOOTH",
"324 658 OFFCURVE",
"265 708 OFFCURVE",
"182 708 CURVE SMOOTH",
"100 708 OFFCURVE",
"35 663 OFFCURVE",
"35 582 CURVE",
"133 582 LINE",
"133 613 OFFCURVE",
"154 628 OFFCURVE",
"181 628 CURVE SMOOTH",
"209 628 OFFCURVE",
"226 608 OFFCURVE",
"226 584 CURVE SMOOTH",
"226 555 OFFCURVE",
"203 540 OFFCURVE",
"173 540 CURVE SMOOTH",
"142 540 LINE",
"142 471 LINE",
"173 471 LINE SMOOTH",
"203 471 OFFCURVE",
"228 453 OFFCURVE",
"228 418 CURVE SMOOTH",
"228 395 OFFCURVE",
"210 376 OFFCURVE",
"181 376 CURVE SMOOTH",
"152 376 OFFCURVE",
"131 390 OFFCURVE",
"131 425 CURVE",
"30 425 LINE",
"30 338 OFFCURVE",
"96 294 OFFCURVE",
"182 294 CURVE SMOOTH"
);
}
);
width = 369;
}
);
unicode = 00B3;
},
{
export = 0;
glyphname = foursuperior;
lastChange = "2021-09-20 00:05:04 +0000";
layers = (
{
layerId = "1B5AC656-48C3-4864-953F-2CD31E7BA751";
paths = (
{
closed = 1;
nodes = (
"327 302 LINE",
"327 409 LINE",
"302 389 LINE",
"365 389 LINE",
"365 477 LINE",
"302 477 LINE",
"327 457 LINE",
"327 702 LINE",
"224 702 LINE",
"20 436 LINE",
"20 389 LINE",
"219 389 LINE",
"219 302 LINE"
);
},
{
closed = 1;
nodes = (
"260 646 LINE",
"244 642 LINE",
"217 583 OFFCURVE",
"219 542 OFFCURVE",
"219 511 CURVE SMOOTH",
"219 474 LINE",
"108 474 LINE",
"120 453 LINE"
);
}
);
width = 405;
}
);
unicode = 2074;
},
{
export = 0;
glyphname = fivesuperior;
lastChange = "2021-09-20 00:25:20 +0000";
layers = (
{
background = {
components = (
{
alignment = -1;
name = five;
transform = "{0.57, 0, 0, 0.57, 11, 300}";
}
);
};
layerId = "1B5AC656-48C3-4864-953F-2CD31E7BA751";
paths = (
{
closed = 1;
nodes = (
"240 293 OFFCURVE",
"302 350 OFFCURVE",
"302 429 CURVE SMOOTH",
"302 498 OFFCURVE",
"261 562 OFFCURVE",
"166 562 CURVE SMOOTH",
"139 562 OFFCURVE",
"110 561 OFFCURVE",
"77 517 CURVE",
"132 507 LINE",
"154 652 LINE",
"84 610 LINE",
"282 610 LINE",
"282 699 LINE",
"75 699 LINE",
"36 454 LINE",
"67 477 OFFCURVE",
"95 482 OFFCURVE",
"128 482 CURVE SMOOTH",
"184 482 OFFCURVE",
"202 460 OFFCURVE",
"202 429 CURVE SMOOTH",
"202 400 OFFCURVE",
"182 380 OFFCURVE",
"140 380 CURVE SMOOTH",
"106 380 OFFCURVE",
"83 389 OFFCURVE",
"51 406 CURVE",
"17 323 LINE",
"60 299 OFFCURVE",
"97 293 OFFCURVE",
"148 293 CURVE SMOOTH"
);
}
);
width = 339;
}
);
unicode = 2075;
},
{
export = 0;
glyphname = sevensuperior;
lastChange = "2021-09-20 00:25:58 +0000";
layers = (
{
background = {
components = (
{
name = onesuperior;
transform = "{1, 0, 0, 1, 5, 0}";
}
);
};
layerId = "1B5AC656-48C3-4864-953F-2CD31E7BA751";
paths = (
{
closed = 1;
nodes = (
"188 300 LINE",
"368 689 LINE",
"367 700 LINE",
"35 700 LINE",
"35 612 LINE",
"238 612 LINE",
"238 628 LINE",
"227 615 OFFCURVE",
"217 603 OFFCURVE",
"211 590 CURVE SMOOTH",
"80 300 LINE"
);
}
);
width = 393;
}
);
unicode = 2077;
},
{
export = 0;
glyphname = oneinferior.ss01;
lastChange = "2021-10-27 01:24:58 +0000";
layers = (
{
layerId = "1B5AC656-48C3-4864-953F-2CD31E7BA751";
paths = (
{
closed = 1;
nodes = (
"204 0 LINE",
"204 400 LINE",
"32 400 LINE",
"32 310 LINE",
"96 310 LINE",
"96 0 LINE"
);
}
);
width = 274;
}
);
},
{
export = 0;
glyphname = onesuperior.ss01;
lastChange = "2021-10-27 01:24:58 +0000";
layers = (
{
background = {
paths = (
{
closed = 1;
nodes = (
"86 300 LINE",
"194 300 LINE",
"194 700 LINE",
"86 700 LINE",
"13 631 LINE",
"13 608 LINE",
"86 608 LINE"
);
}
);
};
layerId = "1B5AC656-48C3-4864-953F-2CD31E7BA751";
paths = (
{
closed = 1;
nodes = (
"194 300 LINE",
"194 700 LINE",
"22 700 LINE",
"22 610 LINE",
"86 610 LINE",
"86 300 LINE"
);
}
);
width = 264;
}
);
},
{
glyphname = .notdef;
lastChange = "2021-10-27 01:27:41 +0000";
layers = (
{
layerId = "1B5AC656-48C3-4864-953F-2CD31E7BA751";
paths = (
{
closed = 1;
nodes = (
"535 0 LINE",
"535 700 LINE",
"65 700 LINE",
"65 0 LINE"
);
},
{
closed = 1;
nodes = (
"100 665 LINE",
"500 665 LINE",
"500 35 LINE",
"100 35 LINE"
);
}
);
width = 600;
}
);
},
{
glyphname = period;
lastChange = "2021-10-27 22:22:50 +0000";
layers = (
{
layerId = "1B5AC656-48C3-4864-953F-2CD31E7BA751";
paths = (
{
closed = 1;
nodes = (
"164 -13 OFFCURVE",
"201 27 OFFCURVE",
"201 75 CURVE SMOOTH",
"201 122 OFFCURVE",
"164 162 OFFCURVE",
"112 162 CURVE SMOOTH",
"60 162 OFFCURVE",
"22 122 OFFCURVE",
"22 75 CURVE SMOOTH",
"22 27 OFFCURVE",
"60 -13 OFFCURVE",
"112 -13 CURVE SMOOTH"
);
}
);
width = 223;
}
);
leftKerningGroup = period;
rightKerningGroup = period;
unicode = 002E;
},
{
glyphname = comma;
lastChange = "2021-10-27 22:23:30 +0000";
layers = (
{
background = {
paths = (
{
closed = 1;
nodes = (
"159 -11 OFFCURVE",
"193 25 OFFCURVE",
"193 69 CURVE SMOOTH",
"193 112 OFFCURVE",
"159 148 OFFCURVE",
"112 148 CURVE SMOOTH",
"65 148 OFFCURVE",
"30 112 OFFCURVE",
"30 69 CURVE SMOOTH",
"30 25 OFFCURVE",
"65 -11 OFFCURVE",
"112 -11 CURVE SMOOTH"
);
},
{
closed = 1;
nodes = (
"31 25 OFFCURVE",
"66 -6 OFFCURVE",
"113 -6 CURVE SMOOTH",
"131 -6 OFFCURVE",
"150 -3 OFFCURVE",
"168 6 CURVE",
"123 18 LINE",
"128 -8 OFFCURVE",
"120 -31 OFFCURVE",
"94 -51 CURVE SMOOTH",
"77 -64 OFFCURVE",
"56 -72 OFFCURVE",
"34 -75 CURVE",
"56 -142 LINE",
"136 -121 OFFCURVE",
"200 -58 OFFCURVE",
"200 36 CURVE SMOOTH",
"200 103 OFFCURVE",
"173 148 OFFCURVE",
"113 148 CURVE SMOOTH",
"66 148 OFFCURVE",
"31 112 OFFCURVE",
"31 69 CURVE SMOOTH"
);
}
);
};
layerId = "1B5AC656-48C3-4864-953F-2CD31E7BA751";
paths = (
{
closed = 1;
nodes = (
"88 -129 LINE SMOOTH",
"162 -103 OFFCURVE",
"212 -44 OFFCURVE",
"212 33 CURVE SMOOTH",
"212 105 OFFCURVE",
"172 149 OFFCURVE",
"112 149 CURVE SMOOTH",
"68 149 OFFCURVE",
"30 113 OFFCURVE",
"30 70 CURVE SMOOTH",
"30 26 OFFCURVE",
"68 -10 OFFCURVE",
"108 -10 CURVE SMOOTH",
"130 -10 OFFCURVE",
"149 -2 OFFCURVE",
"167 7 CURVE",
"135 31 LINE",
"135 -24 OFFCURVE",
"118 -42 OFFCURVE",
"61 -62 CURVE SMOOTH",
"33 -72 LINE",
"60 -139 LINE"
);
}
);
width = 232;
}
);
leftKerningGroup = period;
rightKerningGroup = comma;
unicode = 002C;
},
{
glyphname = colon;
lastChange = "2021-10-27 02:53:13 +0000";
layers = (
{
background = {
paths = (
{
closed = 1;
nodes = (
"159 -11 OFFCURVE",
"193 25 OFFCURVE",
"193 69 CURVE SMOOTH",
"193 112 OFFCURVE",
"159 148 OFFCURVE",
"112 148 CURVE SMOOTH",
"65 148 OFFCURVE",
"30 112 OFFCURVE",
"30 69 CURVE SMOOTH",
"30 25 OFFCURVE",
"65 -11 OFFCURVE",
"112 -11 CURVE SMOOTH"
);
}
);
};
components = (
{
name = period;
transform = "{1, 0, 0, 1, 0, 386}";
},
{
name = period;
}
);
layerId = "1B5AC656-48C3-4864-953F-2CD31E7BA751";
width = 223;
}
);
leftKerningGroup = colon;
rightKerningGroup = colon;
unicode = 003A;
},
{
glyphname = semicolon;
lastChange = "2021-10-27 02:53:08 +0000";
layers = (
{
background = {
paths = (
{
closed = 1;
nodes = (
"30 25 OFFCURVE",
"65 -6 OFFCURVE",
"112 -6 CURVE SMOOTH",
"130 -6 OFFCURVE",
"149 -3 OFFCURVE",
"167 6 CURVE",
"122 18 LINE",
"127 -8 OFFCURVE",
"119 -31 OFFCURVE",
"93 -51 CURVE SMOOTH",
"76 -64 OFFCURVE",
"55 -72 OFFCURVE",
"33 -75 CURVE",
"55 -142 LINE",
"135 -121 OFFCURVE",
"199 -58 OFFCURVE",
"199 36 CURVE SMOOTH",
"199 103 OFFCURVE",
"172 148 OFFCURVE",
"112 148 CURVE SMOOTH",
"65 148 OFFCURVE",
"30 112 OFFCURVE",
"30 69 CURVE SMOOTH"
);
}
);
};
components = (
{
name = comma;
},
{
name = period;
transform = "{1, 0, 0, 1, 0, 386}";
}
);
layerId = "1B5AC656-48C3-4864-953F-2CD31E7BA751";
width = 227;
}
);
leftKerningGroup = colon;
rightKerningGroup = semicolon;
unicode = 003B;
},
{
glyphname = exclam;
lastChange = "2025-02-13 14:18:22 +0000";
layers = (
{
components = (
{
name = period;
transform = "{1, 0, 0, 1, 10, 0}";
}
);
layerId = "1B5AC656-48C3-4864-953F-2CD31E7BA751";
paths = (
{
closed = 1;
nodes = (
"171 193 LINE",
"194 577 LINE",
"194 700 LINE",
"54 700 LINE",
"54 577 LINE",
"77 193 LINE"
);
}
);
width = 243;
}
);
unicode = 0021;
},
{
glyphname = question;
lastChange = "2021-10-31 18:33:02 +0000";
layers = (
{
background = {
paths = (
{
closed = 1;
nodes = (
"244 269 LINE",
"235 193 LINE",
"153 193 LINE",
"132 367 LINE",
"181 367 LINE SMOOTH",
"265 367 OFFCURVE",
"312 406 OFFCURVE",
"312 475 CURVE SMOOTH",
"312 544 OFFCURVE",
"274 583 OFFCURVE",
"207 583 CURVE SMOOTH",
"167 583 OFFCURVE",
"131 570 OFFCURVE",
"100 543 CURVE",
"20 647 LINE",
"60 688 OFFCURVE",
"128 713 OFFCURVE",
"214 713 CURVE SMOOTH",
"348 713 OFFCURVE",
"451 629 OFFCURVE",
"451 485 CURVE SMOOTH",
"451 332 OFFCURVE",
"341 250 OFFCURVE",
"195 250 CURVE"
);
},
{
closed = 1;
nodes = (
"293 193 LINE",
"316 437 LINE",
"316 700 LINE",
"176 700 LINE",
"176 437 LINE",
"199 193 LINE"
);
}
);
};
components = (
{
name = period;
transform = "{1, 0, 0, 1, 132, 0}";
}
);
layerId = "1B5AC656-48C3-4864-953F-2CD31E7BA751";
paths = (
{
closed = 1;
nodes = (
"293 193 LINE",
"305 328 LINE",
"244 298 LINE",
"431 298 OFFCURVE",
"480 419 OFFCURVE",
"480 506 CURVE SMOOTH",
"480 619 OFFCURVE",
"402 713 OFFCURVE",
"257 713 CURVE SMOOTH",
"113 713 OFFCURVE",
"24 634 OFFCURVE",
"24 500 CURVE",
"159 500 LINE",
"159 562 OFFCURVE",
"194 592 OFFCURVE",
"257 592 CURVE SMOOTH",
"316 592 OFFCURVE",
"345 548 OFFCURVE",
"345 500 CURVE SMOOTH",
"345 441 OFFCURVE",
"306 394 OFFCURVE",
"229 394 CURVE SMOOTH",
"209 394 OFFCURVE",
"191 397 OFFCURVE",
"179 403 CURVE",
"199 193 LINE"
);
}
);
width = 520;
}
);
leftKerningGroup = question;
rightKerningGroup = question;
unicode = 003F;
},
{
glyphname = asterisk;
lastChange = "2021-10-31 18:46:50 +0000";
layers = (
{
background = {
paths = (
{
closed = 1;
nodes = (
"155 556 LINE",
"127 714 LINE",
"227 714 LINE",
"195 556 LINE"
);
},
{
closed = 1;
nodes = (
"170 538 LINE",
"11 560 LINE",
"42 656 LINE",
"182 576 LINE"
);
},
{
closed = 1;
nodes = (
"170 576 LINE",
"311 651 LINE",
"342 556 LINE",
"182 538 LINE"
);
},
{
closed = 1;
nodes = (
"188 574 LINE",
"304 463 LINE",
"223 404 LINE",
"156 551 LINE"
);
},
{
closed = 1;
nodes = (
"192 550 LINE",
"122 405 LINE",
"41 464 LINE",
"160 573 LINE"
);
}
);
};
components = (
{
alignment = -1;
name = ast;
transform = "{1, 0, 0, 1, 107, 20}";
},
{
alignment = -1;
name = ast;
transform = "{0.30902, 0.95106, -0.95106, 0.30902, 665, 326}";
},
{
alignment = -1;
name = ast;
transform = "{0.30902, -0.95106, 0.95106, 0.30902, -357, 457}";
},
{
alignment = -1;
name = ast;
transform = "{-0.80902, -0.58779, 0.58779, -0.80902, -84, 1030}";
},
{
alignment = -1;
name = ast;
transform = "{-0.80902, 0.58779, -0.58779, -0.80902, 547, 949}";
}
);
layerId = "1B5AC656-48C3-4864-953F-2CD31E7BA751";
width = 352;
}
);
unicode = 002A;
},
{
glyphname = interrobang;
lastChange = "2021-10-27 02:34:54 +0000";
layers = (
{
background = {
components = (
{
name = question;
}
);
};
components = (
{
name = period;
transform = "{1, 0, 0, 1, 140, 0}";
}
);
layerId = "1B5AC656-48C3-4864-953F-2CD31E7BA751";
paths = (
{
closed = 1;
nodes = (
"431 298 OFFCURVE",
"480 419 OFFCURVE",
"480 506 CURVE SMOOTH",
"480 619 OFFCURVE",
"399 713 OFFCURVE",
"254 713 CURVE SMOOTH",
"110 713 OFFCURVE",
"24 634 OFFCURVE",
"24 500 CURVE",
"150 500 LINE",
"150 573 OFFCURVE",
"194 605 OFFCURVE",
"255 605 CURVE SMOOTH",
"324 605 OFFCURVE",
"355 559 OFFCURVE",
"355 500 CURVE SMOOTH",
"355 451 OFFCURVE",
"333 423 OFFCURVE",
"285 415 CURVE",
"244 298 LINE"
);
},
{
closed = 1;
nodes = (
"301 193 LINE",
"320 552 LINE",
"181 552 LINE",
"207 193 LINE"
);
}
);
width = 520;
}
);
leftKerningGroup = question;
leftMetricsKey = question;
rightKerningGroup = question;
rightMetricsKey = question;
unicode = 203D;
},
{
glyphname = numbersign;
lastChange = "2021-10-07 05:40:25 +0000";
layers = (
{
background = {
paths = (
{
closed = 1;
nodes = (
"68 258 LINE",
"596 258 LINE",
"596 492 LINE",
"68 492 LINE"
);
},
{
closed = 1;
nodes = (
"68 236 LINE",
"596 236 LINE",
"596 514 LINE",
"68 514 LINE"
);
}
);
};
layerId = "1B5AC656-48C3-4864-953F-2CD31E7BA751";
paths = (
{
closed = 1;
nodes = (
"429 0 LINE",
"488 235 LINE",
"492 258 LINE",
"551 492 LINE",
"559 515 LINE",
"613 730 LINE",
"493 730 LINE",
"440 515 LINE",
"439 492 LINE",
"380 257 LINE",
"370 236 LINE",
"311 0 LINE"
);
},
{
closed = 1;
nodes = (
"179 0 LINE",
"239 237 LINE",
"239 258 LINE",
"298 492 LINE",
"309 514 LINE",
"363 730 LINE",
"243 730 LINE",
"189 515 LINE",
"185 492 LINE",
"127 259 LINE",
"119 235 LINE",
"61 0 LINE"
);
},
{
closed = 1;
nodes = (
"640 191 LINE",
"640 298 LINE",
"28 298 LINE",
"28 191 LINE"
);
},
{
closed = 1;
nodes = (
"655 448 LINE",
"655 555 LINE",
"43 555 LINE",
"43 448 LINE"
);
}
);
width = 683;
}
);
unicode = 0023;
},
{
glyphname = slash;
lastChange = "2021-09-17 05:53:29 +0000";
layers = (
{
background = {
paths = (
{
closed = 1;
nodes = (
"423 676 LINE",
"306 728 LINE",
"-83 -146 LINE",
"33 -197 LINE"
);
}
);
};
layerId = "1B5AC656-48C3-4864-953F-2CD31E7BA751";
paths = (
{
closed = 1;
nodes = (
"173 0 LINE",
"657 730 LINE",
"507 730 LINE",
"25 0 LINE"
);
}
);
width = 682;
}
);
unicode = 002F;
},
{
glyphname = hyphen;
lastChange = "2021-09-13 05:03:29 +0000";
layers = (
{
layerId = "1B5AC656-48C3-4864-953F-2CD31E7BA751";
paths = (
{
closed = 1;
nodes = (
"306 210 LINE",
"306 341 LINE",
"20 341 LINE",
"20 210 LINE"
);
}
);
width = 326;
}
);
leftKerningGroup = hyphen;
rightKerningGroup = hyphen;
unicode = 002D;
},
{
glyphname = endash;
lastChange = "2021-10-21 01:01:02 +0000";
layers = (
{
background = {
paths = (
{
closed = 1;
nodes = (
"694 349 LINE",
"36 349 LINE",
"36 218 LINE",
"694 218 LINE"
);
}
);
};
components = (
{
name = hyphen;
transform = "{2, 0, 0, 1, -10, 0}";
}
);
layerId = "1B5AC656-48C3-4864-953F-2CD31E7BA751";
width = 632;
}
);
leftKerningGroup = hyphen;
leftMetricsKey = "=hyphen+10";
rightKerningGroup = hyphen;
rightMetricsKey = "=hyphen+10";
unicode = 2013;
},
{
glyphname = emdash;
lastChange = "2021-10-21 00:27:34 +0000";
layers = (
{
background = {
paths = (
{
closed = 1;
nodes = (
"686 349 LINE",
"6 349 LINE",
"6 218 LINE",
"686 218 LINE"
);
}
);
};
components = (
{
name = hyphen;
transform = "{2.7, 0, 0, 1, -24, 0}";
}
);
layerId = "1B5AC656-48C3-4864-953F-2CD31E7BA751";
width = 832;
}
);
leftKerningGroup = hyphen;
leftMetricsKey = "=hyphen+10";
rightKerningGroup = hyphen;
rightMetricsKey = "=hyphen+10";
unicode = 2014;
},
{
glyphname = underscore;
lastChange = "2021-09-17 05:56:54 +0000";
layers = (
{
layerId = "1B5AC656-48C3-4864-953F-2CD31E7BA751";
paths = (
{
closed = 1;
nodes = (
"496 -115 LINE",
"496 0 LINE",
"50 0 LINE",
"50 -115 LINE"
);
}
);
width = 546;
}
);
unicode = 005F;
},
{
glyphname = parenleft;
lastChange = "2021-10-20 04:39:28 +0000";
layers = (
{
background = {
paths = (
{
closed = 1;
nodes = (
"39 466 OFFCURVE",
"39 75 OFFCURVE",
"190 -200 CURVE",
"295 -200 LINE",
"180 75 OFFCURVE",
"180 465 OFFCURVE",
"295 730 CURVE",
"190 731 LINE"
);
},
{
closed = 1;
nodes = (
"345 -200 LINE",
"345 -93 LINE",
"326 -93 LINE SMOOTH",
"284 -93 OFFCURVE",
"261 -68 OFFCURVE",
"261 -35 CURVE SMOOTH",
"261 117 LINE SMOOTH",
"261 231 OFFCURVE",
"178 271 OFFCURVE",
"89 272 CURVE",
"89 259 LINE",
"178 260 OFFCURVE",
"261 300 OFFCURVE",
"261 414 CURVE SMOOTH",
"261 565 LINE SMOOTH",
"261 598 OFFCURVE",
"284 623 OFFCURVE",
"326 623 CURVE SMOOTH",
"345 623 LINE",
"345 730 LINE",
"270 730 LINE SMOOTH",
"182 730 OFFCURVE",
"132 666 OFFCURVE",
"132 573 CURVE SMOOTH",
"132 418 LINE SMOOTH",
"132 350 OFFCURVE",
"105 336 OFFCURVE",
"25 330 CURVE",
"25 200 LINE",
"102 194 OFFCURVE",
"132 182 OFFCURVE",
"132 112 CURVE SMOOTH",
"132 -43 LINE SMOOTH",
"132 -136 OFFCURVE",
"182 -200 OFFCURVE",
"270 -200 CURVE SMOOTH"
);
}
);
};
layerId = "1B5AC656-48C3-4864-953F-2CD31E7BA751";
paths = (
{
closed = 1;
nodes = (
"298 -151 LINE",
"139 141 OFFCURVE",
"133 428 OFFCURVE",
"298 679 CURVE",
"180 742 LINE",
"-6 484 OFFCURVE",
"-7 65 OFFCURVE",
"180 -214 CURVE"
);
}
);
width = 312;
}
);
unicode = 0028;
},
{
glyphname = braceleft;
lastChange = "2021-09-13 09:10:31 +0000";
layers = (
{
background = {
paths = (
{
closed = 1;
nodes = (
"-2 426 OFFCURVE",
"-2 115 OFFCURVE",
"149 -200 CURVE",
"231 -200 LINE",
"118 115 OFFCURVE",
"118 425 OFFCURVE",
"231 730 CURVE",
"149 731 LINE"
);
}
);
};
layerId = "1B5AC656-48C3-4864-953F-2CD31E7BA751";
paths = (
{
closed = 1;
nodes = (
"345 -200 LINE",
"345 -93 LINE",
"326 -93 LINE SMOOTH",
"284 -93 OFFCURVE",
"261 -68 OFFCURVE",
"261 -35 CURVE SMOOTH",
"261 117 LINE SMOOTH",
"261 231 OFFCURVE",
"178 271 OFFCURVE",
"89 272 CURVE",
"89 259 LINE",
"178 260 OFFCURVE",
"261 300 OFFCURVE",
"261 414 CURVE SMOOTH",
"261 565 LINE SMOOTH",
"261 598 OFFCURVE",
"284 623 OFFCURVE",
"326 623 CURVE SMOOTH",
"345 623 LINE",
"345 730 LINE",
"270 730 LINE SMOOTH",
"182 730 OFFCURVE",
"132 666 OFFCURVE",
"132 573 CURVE SMOOTH",
"132 418 LINE SMOOTH",
"132 350 OFFCURVE",
"105 336 OFFCURVE",
"25 330 CURVE",
"25 200 LINE",
"102 194 OFFCURVE",
"132 182 OFFCURVE",
"132 112 CURVE SMOOTH",
"132 -43 LINE SMOOTH",
"132 -136 OFFCURVE",
"182 -200 OFFCURVE",
"270 -200 CURVE SMOOTH"
);
}
);
width = 365;
}
);
unicode = 007B;
},
{
glyphname = bracketleft;
lastChange = "2021-09-13 09:10:46 +0000";
layers = (
{
layerId = "1B5AC656-48C3-4864-953F-2CD31E7BA751";
paths = (
{
closed = 1;
nodes = (
"258 -200 LINE",
"258 -93 LINE",
"173 -93 LINE",
"173 623 LINE",
"258 623 LINE",
"258 730 LINE",
"45 730 LINE",
"45 -200 LINE"
);
}
);
width = 278;
}
);
unicode = 005B;
},
{
glyphname = quoteleft;
lastChange = "2021-09-15 04:24:29 +0000";
layers = (
{
layerId = "1B5AC656-48C3-4864-953F-2CD31E7BA751";
paths = (
{
closed = 1;
nodes = (
"169 454 OFFCURVE",
"207 490 OFFCURVE",
"207 533 CURVE SMOOTH",
"207 577 OFFCURVE",
"169 613 OFFCURVE",
"129 613 CURVE SMOOTH",
"107 613 OFFCURVE",
"88 605 OFFCURVE",
"70 596 CURVE",
"102 572 LINE",
"102 627 OFFCURVE",
"119 645 OFFCURVE",
"176 665 CURVE SMOOTH",
"204 675 LINE",
"177 742 LINE",
"149 732 LINE SMOOTH",
"75 706 OFFCURVE",
"25 647 OFFCURVE",
"25 570 CURVE SMOOTH",
"25 498 OFFCURVE",
"65 454 OFFCURVE",
"125 454 CURVE SMOOTH"
);
}
);
width = 242;
}
);
leftKerningGroup = quoteleft;
rightKerningGroup = quoteleft;
unicode = 2018;
},
{
glyphname = quoteright;
lastChange = "2021-10-31 17:18:06 +0000";
layers = (
{
background = {
paths = (
{
closed = 1;
nodes = (
"80 743 OFFCURVE",
"49 715 OFFCURVE",
"57 665 CURVE SMOOTH",
"91 463 LINE",
"152 463 LINE",
"186 664 LINE SMOOTH",
"193 706 OFFCURVE",
"165 743 OFFCURVE",
"122 743 CURVE SMOOTH"
);
},
{
closed = 1;
nodes = (
"155 478 OFFCURVE",
"225 558 OFFCURVE",
"197 682 CURVE",
"137 627 LINE",
"141 578 OFFCURVE",
"96 531 OFFCURVE",
"39 520 CURVE",
"61 453 LINE"
);
},
{
closed = 1;
nodes = (
"165 584 OFFCURVE",
"199 620 OFFCURVE",
"199 664 CURVE SMOOTH",
"199 707 OFFCURVE",
"165 743 OFFCURVE",
"118 743 CURVE SMOOTH",
"71 743 OFFCURVE",
"36 707 OFFCURVE",
"36 664 CURVE SMOOTH",
"36 620 OFFCURVE",
"71 584 OFFCURVE",
"118 584 CURVE SMOOTH"
);
},
{
closed = 1;
nodes = (
"36 620 OFFCURVE",
"71 589 OFFCURVE",
"118 589 CURVE SMOOTH",
"136 589 OFFCURVE",
"155 592 OFFCURVE",
"173 601 CURVE",
"128 613 LINE",
"133 587 OFFCURVE",
"125 564 OFFCURVE",
"99 544 CURVE SMOOTH",
"82 531 OFFCURVE",
"61 523 OFFCURVE",
"39 520 CURVE",
"61 453 LINE",
"141 474 OFFCURVE",
"205 537 OFFCURVE",
"205 631 CURVE SMOOTH",
"205 698 OFFCURVE",
"178 743 OFFCURVE",
"118 743 CURVE SMOOTH",
"71 743 OFFCURVE",
"36 707 OFFCURVE",
"36 664 CURVE SMOOTH"
);
}
);
};
layerId = "1B5AC656-48C3-4864-953F-2CD31E7BA751";
paths = (
{
closed = 1;
nodes = (
"93 465 LINE SMOOTH",
"167 491 OFFCURVE",
"217 550 OFFCURVE",
"217 627 CURVE SMOOTH",
"217 699 OFFCURVE",
"177 743 OFFCURVE",
"117 743 CURVE SMOOTH",
"73 743 OFFCURVE",
"35 707 OFFCURVE",
"35 664 CURVE SMOOTH",
"35 620 OFFCURVE",
"73 584 OFFCURVE",
"113 584 CURVE SMOOTH",
"135 584 OFFCURVE",
"154 592 OFFCURVE",
"172 601 CURVE",
"140 625 LINE",
"140 570 OFFCURVE",
"123 552 OFFCURVE",
"66 532 CURVE SMOOTH",
"38 522 LINE",
"65 455 LINE"
);
}
);
width = 242;
}
);
leftKerningGroup = quoteright;
leftMetricsKey = "=|quoteleft";
rightKerningGroup = quoteright;
rightMetricsKey = "=|quoteleft";
unicode = 2019;
},
{
glyphname = guilsinglleft;
lastChange = "2021-10-31 18:21:25 +0000";
layers = (
{
layerId = "1B5AC656-48C3-4864-953F-2CD31E7BA751";
paths = (
{
closed = 1;
nodes = (
"299 48 LINE",
"145 306 LINE",
"143 230 LINE",
"299 477 LINE",
"156 477 LINE",
"30 263 LINE",
"158 48 LINE"
);
}
);
width = 319;
}
);
leftKerningGroup = guilsinglleft;
rightKerningGroup = guilsinglleft;
unicode = 2039;
},
{
glyphname = quotesingle;
lastChange = "2021-10-27 02:59:38 +0000";
layers = (
{
background = {
paths = (
{
closed = 1;
nodes = (
"129 614 OFFCURVE",
"157 643 OFFCURVE",
"157 679 CURVE SMOOTH",
"157 714 OFFCURVE",
"129 743 OFFCURVE",
"91 743 CURVE SMOOTH",
"53 743 OFFCURVE",
"24 714 OFFCURVE",
"24 679 CURVE SMOOTH",
"24 643 OFFCURVE",
"53 614 OFFCURVE",
"91 614 CURVE SMOOTH"
);
}
);
};
layerId = "1B5AC656-48C3-4864-953F-2CD31E7BA751";
paths = (
{
closed = 1;
nodes = (
"121 463 LINE",
"161 638 LINE SMOOTH",
"174 693 OFFCURVE",
"148 743 OFFCURVE",
"91 743 CURVE SMOOTH",
"36 743 OFFCURVE",
"5 705 OFFCURVE",
"20 639 CURVE SMOOTH",
"60 463 LINE"
);
}
);
width = 181;
}
);
leftKerningGroup = quotesingle;
rightKerningGroup = quotesingle;
unicode = 0027;
},
{
glyphname = florin;
lastChange = "2021-10-27 02:25:08 +0000";
layers = (
{
layerId = "1B5AC656-48C3-4864-953F-2CD31E7BA751";
paths = (
{
closed = 1;
nodes = (
"126 0 LINE SMOOTH",
"220 0 OFFCURVE",
"299 40 OFFCURVE",
"330 179 CURVE SMOOTH",
"403 504 LINE SMOOTH",
"417 567 OFFCURVE",
"447 583 OFFCURVE",
"501 583 CURVE SMOOTH",
"563 583 LINE",
"563 700 LINE",
"490 700 LINE SMOOTH",
"389 700 OFFCURVE",
"310 661 OFFCURVE",
"279 521 CURVE SMOOTH",
"206 196 LINE SMOOTH",
"192 133 OFFCURVE",
"161 116 OFFCURVE",
"115 116 CURVE SMOOTH",
"38 116 LINE",
"38 0 LINE"
);
},
{
closed = 1;
nodes = (
"533 315 LINE",
"533 425 LINE",
"68 425 LINE",
"68 315 LINE"
);
}
);
width = 600;
}
);
unicode = 0192;
},
{
glyphname = at;
lastChange = "2021-10-27 02:52:52 +0000";
layers = (
{
background = {
paths = (
{
closed = 1;
nodes = (
"-76 2886 OFFCURVE",
"98 3059 OFFCURVE",
"98 3281 CURVE SMOOTH",
"98 3501 OFFCURVE",
"-76 3676 OFFCURVE",
"-301 3676 CURVE SMOOTH",
"-528 3676 OFFCURVE",
"-700 3501 OFFCURVE",
"-700 3281 CURVE SMOOTH",
"-700 3059 OFFCURVE",
"-528 2886 OFFCURVE",
"-301 2886 CURVE SMOOTH"
);
},
{
closed = 1;
nodes = (
"-486 2965 OFFCURVE",
"-615 3106 OFFCURVE",
"-615 3281 CURVE SMOOTH",
"-615 3454 OFFCURVE",
"-486 3597 OFFCURVE",
"-301 3597 CURVE SMOOTH",
"-118 3597 OFFCURVE",
"13 3454 OFFCURVE",
"13 3281 CURVE SMOOTH",
"13 3106 OFFCURVE",
"-118 2965 OFFCURVE",
"-301 2965 CURVE SMOOTH"
);
},
{
closed = 1;
nodes = (
"466 -124 OFFCURVE",
"510 -117 OFFCURVE",
"551 -103 CURVE",
"523 -29 LINE",
"491 -39 OFFCURVE",
"457 -45 OFFCURVE",
"420 -45 CURVE SMOOTH",
"235 -45 OFFCURVE",
"106 96 OFFCURVE",
"106 271 CURVE SMOOTH",
"106 444 OFFCURVE",
"235 587 OFFCURVE",
"418 587 CURVE SMOOTH",
"602 587 OFFCURVE",
"734 442 OFFCURVE",
"734 278 CURVE SMOOTH",
"734 159 OFFCURVE",
"714 89 OFFCURVE",
"663 89 CURVE SMOOTH",
"616 89 OFFCURVE",
"603 128 OFFCURVE",
"603 175 CURVE SMOOTH",
"603 438 LINE",
"514 438 LINE",
"514 343 LINE",
"529 343 LINE",
"512 402 OFFCURVE",
"484 446 OFFCURVE",
"404 446 CURVE SMOOTH",
"309 446 OFFCURVE",
"233 365 OFFCURVE",
"233 264 CURVE SMOOTH",
"233 164 OFFCURVE",
"309 84 OFFCURVE",
"404 84 CURVE SMOOTH",
"484 84 OFFCURVE",
"512 128 OFFCURVE",
"529 186 CURVE",
"516 186 LINE",
"516 134 LINE SMOOTH",
"516 85 OFFCURVE",
"562 17 OFFCURVE",
"645 17 CURVE SMOOTH",
"757 17 OFFCURVE",
"819 95 OFFCURVE",
"819 264 CURVE SMOOTH",
"819 494 OFFCURVE",
"645 666 OFFCURVE",
"420 666 CURVE SMOOTH",
"193 666 OFFCURVE",
"21 491 OFFCURVE",
"21 271 CURVE SMOOTH",
"21 49 OFFCURVE",
"193 -124 OFFCURVE",
"420 -124 CURVE SMOOTH"
);
},
{
closed = 1;
nodes = (
"361 165 OFFCURVE",
"322 212 OFFCURVE",
"322 265 CURVE SMOOTH",
"322 319 OFFCURVE",
"361 365 OFFCURVE",
"419 365 CURVE SMOOTH",
"478 365 OFFCURVE",
"516 318 OFFCURVE",
"516 264 CURVE SMOOTH",
"516 211 OFFCURVE",
"478 165 OFFCURVE",
"419 165 CURVE SMOOTH"
);
},
{
closed = 0;
nodes = (
"-385 1060 LINE SMOOTH",
"-411 1060 OFFCURVE",
"-426 1080 OFFCURVE",
"-426 1106 CURVE SMOOTH",
"-426 1126 OFFCURVE",
"-423 1145 OFFCURVE",
"-421 1158 CURVE SMOOTH",
"-397 1348 LINE",
"-486 1348 LINE",
"-497 1253 LINE",
"-482 1253 LINE",
"-492 1312 OFFCURVE",
"-521 1356 OFFCURVE",
"-601 1356 CURVE SMOOTH",
"-705 1356 OFFCURVE",
"-789 1261 OFFCURVE",
"-789 1158 CURVE SMOOTH",
"-789 1062 OFFCURVE",
"-722 994 OFFCURVE",
"-628 994 CURVE SMOOTH",
"-537 994 OFFCURVE",
"-499 1062 OFFCURVE",
"-499 1102 CURVE",
"-512 1115 LINE",
"-511 1019 OFFCURVE",
"-460 982 OFFCURVE",
"-393 982 CURVE SMOOTH"
);
},
{
closed = 1;
nodes = (
"-667 1075 OFFCURVE",
"-700 1114 OFFCURVE",
"-700 1161 CURVE SMOOTH",
"-700 1221 OFFCURVE",
"-653 1275 OFFCURVE",
"-590 1275 CURVE SMOOTH",
"-536 1275 OFFCURVE",
"-504 1236 OFFCURVE",
"-504 1188 CURVE SMOOTH",
"-504 1129 OFFCURVE",
"-550 1075 OFFCURVE",
"-614 1075 CURVE SMOOTH"
);
},
{
closed = 1;
nodes = (
"-525 -108 OFFCURVE",
"-441 -81 OFFCURVE",
"-372 -21 CURVE",
"-423 38 LINE",
"-473 -7 OFFCURVE",
"-542 -29 OFFCURVE",
"-634 -29 CURVE SMOOTH",
"-791 -29 OFFCURVE",
"-899 90 OFFCURVE",
"-899 251 CURVE SMOOTH",
"-899 434 OFFCURVE",
"-750 581 OFFCURVE",
"-554 581 CURVE SMOOTH",
"-396 581 OFFCURVE",
"-285 479 OFFCURVE",
"-285 310 CURVE SMOOTH",
"-285 205 OFFCURVE",
"-341 166 OFFCURVE",
"-380 166 CURVE SMOOTH",
"-412 166 OFFCURVE",
"-424 186 OFFCURVE",
"-424 213 CURVE SMOOTH",
"-424 233 OFFCURVE",
"-421 252 OFFCURVE",
"-419 265 CURVE SMOOTH",
"-397 438 LINE",
"-486 438 LINE",
"-497 343 LINE",
"-482 343 LINE",
"-492 402 OFFCURVE",
"-521 446 OFFCURVE",
"-601 446 CURVE SMOOTH",
"-705 446 OFFCURVE",
"-789 351 OFFCURVE",
"-789 248 CURVE SMOOTH",
"-789 152 OFFCURVE",
"-722 84 OFFCURVE",
"-628 84 CURVE SMOOTH",
"-537 84 OFFCURVE",
"-499 152 OFFCURVE",
"-499 192 CURVE",
"-510 222 LINE",
"-506 126 OFFCURVE",
"-457 91 OFFCURVE",
"-393 91 CURVE SMOOTH",
"-301 91 OFFCURVE",
"-201 161 OFFCURVE",
"-201 312 CURVE SMOOTH",
"-201 526 OFFCURVE",
"-348 660 OFFCURVE",
"-558 660 CURVE SMOOTH",
"-793 660 OFFCURVE",
"-984 473 OFFCURVE",
"-984 248 CURVE SMOOTH",
"-984 33 OFFCURVE",
"-840 -108 OFFCURVE",
"-646 -108 CURVE SMOOTH"
);
},
{
closed = 1;
nodes = (
"-667 165 OFFCURVE",
"-700 204 OFFCURVE",
"-700 251 CURVE SMOOTH",
"-700 311 OFFCURVE",
"-653 365 OFFCURVE",
"-590 365 CURVE SMOOTH",
"-536 365 OFFCURVE",
"-504 326 OFFCURVE",
"-504 278 CURVE SMOOTH",
"-504 219 OFFCURVE",
"-550 165 OFFCURVE",
"-614 165 CURVE SMOOTH"
);
},
{
closed = 1;
nodes = (
"-1425 -108 OFFCURVE",
"-1341 -81 OFFCURVE",
"-1272 -21 CURVE",
"-1338 59 LINE",
"-1384 18 OFFCURVE",
"-1447 -2 OFFCURVE",
"-1531 -2 CURVE SMOOTH",
"-1673 -2 OFFCURVE",
"-1772 107 OFFCURVE",
"-1772 253 CURVE SMOOTH",
"-1772 420 OFFCURVE",
"-1636 554 OFFCURVE",
"-1457 554 CURVE SMOOTH",
"-1313 554 OFFCURVE",
"-1212 461 OFFCURVE",
"-1212 317 CURVE SMOOTH",
"-1212 219 OFFCURVE",
"-1256 188 OFFCURVE",
"-1284 188 CURVE SMOOTH",
"-1303 188 OFFCURVE",
"-1313 201 OFFCURVE",
"-1313 222 CURVE SMOOTH",
"-1313 242 OFFCURVE",
"-1311 252 OFFCURVE",
"-1309 265 CURVE SMOOTH",
"-1287 438 LINE",
"-1399 438 LINE",
"-1410 343 LINE",
"-1382 333 LINE",
"-1392 392 OFFCURVE",
"-1421 446 OFFCURVE",
"-1501 446 CURVE SMOOTH",
"-1605 446 OFFCURVE",
"-1689 351 OFFCURVE",
"-1689 248 CURVE SMOOTH",
"-1689 152 OFFCURVE",
"-1622 84 OFFCURVE",
"-1528 84 CURVE SMOOTH",
"-1445 84 OFFCURVE",
"-1412 158 OFFCURVE",
"-1409 199 CURVE",
"-1422 203 LINE",
"-1434 117 OFFCURVE",
"-1358 88 OFFCURVE",
"-1296 88 CURVE SMOOTH",
"-1188 88 OFFCURVE",
"-1101 171 OFFCURVE",
"-1101 312 CURVE SMOOTH",
"-1101 526 OFFCURVE",
"-1248 660 OFFCURVE",
"-1458 660 CURVE SMOOTH",
"-1693 660 OFFCURVE",
"-1884 473 OFFCURVE",
"-1884 248 CURVE SMOOTH",
"-1884 33 OFFCURVE",
"-1740 -108 OFFCURVE",
"-1546 -108 CURVE SMOOTH"
);
},
{
closed = 1;
nodes = (
"-1542 186 OFFCURVE",
"-1567 217 OFFCURVE",
"-1567 254 CURVE SMOOTH",
"-1567 302 OFFCURVE",
"-1530 344 OFFCURVE",
"-1482 344 CURVE SMOOTH",
"-1437 344 OFFCURVE",
"-1413 313 OFFCURVE",
"-1413 275 CURVE SMOOTH",
"-1413 228 OFFCURVE",
"-1449 186 OFFCURVE",
"-1498 186 CURVE SMOOTH"
);
}
);
};
layerId = "1B5AC656-48C3-4864-953F-2CD31E7BA751";
paths = (
{
closed = 1;
nodes = (
"466 -124 OFFCURVE",
"510 -117 OFFCURVE",
"551 -103 CURVE",
"514 -4 LINE",
"486 -13 OFFCURVE",
"453 -19 OFFCURVE",
"420 -19 CURVE SMOOTH",
"250 -19 OFFCURVE",
"132 110 OFFCURVE",
"132 271 CURVE SMOOTH",
"132 430 OFFCURVE",
"250 561 OFFCURVE",
"418 561 CURVE SMOOTH",
"588 561 OFFCURVE",
"688 428 OFFCURVE",
"688 317 CURVE SMOOTH",
"688 218 OFFCURVE",
"644 188 OFFCURVE",
"616 188 CURVE SMOOTH",
"597 188 OFFCURVE",
"587 201 OFFCURVE",
"587 222 CURVE SMOOTH",
"587 234 OFFCURVE",
"589 252 OFFCURVE",
"591 265 CURVE SMOOTH",
"613 438 LINE",
"501 438 LINE",
"490 343 LINE",
"518 333 LINE",
"508 392 OFFCURVE",
"479 446 OFFCURVE",
"399 446 CURVE SMOOTH",
"295 446 OFFCURVE",
"211 351 OFFCURVE",
"211 248 CURVE SMOOTH",
"211 152 OFFCURVE",
"278 84 OFFCURVE",
"372 84 CURVE SMOOTH",
"455 84 OFFCURVE",
"488 158 OFFCURVE",
"491 199 CURVE",
"478 203 LINE",
"466 117 OFFCURVE",
"542 88 OFFCURVE",
"604 88 CURVE SMOOTH",
"712 88 OFFCURVE",
"799 171 OFFCURVE",
"799 312 CURVE SMOOTH",
"799 494 OFFCURVE",
"645 666 OFFCURVE",
"420 666 CURVE SMOOTH",
"193 666 OFFCURVE",
"21 491 OFFCURVE",
"21 271 CURVE SMOOTH",
"21 49 OFFCURVE",
"193 -124 OFFCURVE",
"420 -124 CURVE SMOOTH"
);
},
{
closed = 1;
nodes = (
"358 186 OFFCURVE",
"333 217 OFFCURVE",
"333 254 CURVE SMOOTH",
"333 302 OFFCURVE",
"370 344 OFFCURVE",
"418 344 CURVE SMOOTH",
"463 344 OFFCURVE",
"487 313 OFFCURVE",
"487 275 CURVE SMOOTH",
"487 228 OFFCURVE",
"451 186 OFFCURVE",
"402 186 CURVE SMOOTH"
);
}
);
width = 815;
}
);
unicode = 0040;
},
{
glyphname = ampersand;
lastChange = "2021-10-21 01:11:09 +0000";
layers = (
{
background = {
paths = (
{
closed = 1;
nodes = (
"325 -13 OFFCURVE",
"392 20 OFFCURVE",
"419 43 CURVE SMOOTH",
"512 124 LINE",
"625 214 LINE",
"547 314 LINE",
"427 216 LINE",
"345 153 LINE SMOOTH",
"311 127 OFFCURVE",
"290 117 OFFCURVE",
"254 117 CURVE SMOOTH",
"204 117 OFFCURVE",
"175 158 OFFCURVE",
"175 201 CURVE SMOOTH",
"175 234 OFFCURVE",
"193 257 OFFCURVE",
"220 276 CURVE SMOOTH",
"386 395 LINE SMOOTH",
"458 446 OFFCURVE",
"473 489 OFFCURVE",
"473 544 CURVE SMOOTH",
"473 645 OFFCURVE",
"382 713 OFFCURVE",
"284 713 CURVE SMOOTH",
"179 713 OFFCURVE",
"93 645 OFFCURVE",
"93 544 CURVE SMOOTH",
"93 489 OFFCURVE",
"112 455 OFFCURVE",
"147 411 CURVE SMOOTH",
"413 78 LINE",
"431 70 LINE",
"482 0 LINE",
"645 0 LINE",
"255 491 LINE SMOOTH",
"236 515 OFFCURVE",
"232 527 OFFCURVE",
"232 544 CURVE SMOOTH",
"232 574 OFFCURVE",
"256 595 OFFCURVE",
"288 595 CURVE SMOOTH",
"316 595 OFFCURVE",
"339 574 OFFCURVE",
"339 544 CURVE SMOOTH",
"339 516 OFFCURVE",
"326 500 OFFCURVE",
"284 473 CURVE SMOOTH",
"146 385 LINE SMOOTH",
"84 346 OFFCURVE",
"30 284 OFFCURVE",
"30 194 CURVE SMOOTH",
"30 83 OFFCURVE",
"111 -13 OFFCURVE",
"255 -13 CURVE SMOOTH"
);
}
);
};
backgroundImage = {
imagePath = "../Reference/Screen Shot 2021-09-07 at 12.12.01 PM.png";
locked = "1";
transform = "{10.37534, 0, 0, 10.37534, -397, -366}";
};
layerId = "1B5AC656-48C3-4864-953F-2CD31E7BA751";
paths = (
{
closed = 1;
nodes = (
"325 -13 OFFCURVE",
"392 20 OFFCURVE",
"419 43 CURVE SMOOTH",
"512 124 LINE",
"625 214 LINE",
"552 307 LINE",
"432 209 LINE",
"353 149 LINE SMOOTH",
"316 121 OFFCURVE",
"293 110 OFFCURVE",
"253 110 CURVE SMOOTH",
"199 110 OFFCURVE",
"167 155 OFFCURVE",
"167 201 CURVE SMOOTH",
"167 237 OFFCURVE",
"186 263 OFFCURVE",
"216 283 CURVE SMOOTH",
"386 395 LINE SMOOTH",
"460 444 OFFCURVE",
"473 489 OFFCURVE",
"473 544 CURVE SMOOTH",
"473 645 OFFCURVE",
"382 713 OFFCURVE",
"284 713 CURVE SMOOTH",
"179 713 OFFCURVE",
"93 645 OFFCURVE",
"93 544 CURVE SMOOTH",
"93 489 OFFCURVE",
"111 454 OFFCURVE",
"147 411 CURVE SMOOTH",
"422 78 LINE",
"440 70 LINE",
"491 0 LINE",
"645 0 LINE",
"251 485 LINE SMOOTH",
"229 512 OFFCURVE",
"225 526 OFFCURVE",
"225 545 CURVE SMOOTH",
"225 579 OFFCURVE",
"252 603 OFFCURVE",
"288 603 CURVE SMOOTH",
"320 603 OFFCURVE",
"346 579 OFFCURVE",
"346 545 CURVE SMOOTH",
"346 514 OFFCURVE",
"333 493 OFFCURVE",
"284 465 CURVE SMOOTH",
"146 385 LINE SMOOTH",
"83 348 OFFCURVE",
"30 284 OFFCURVE",
"30 194 CURVE SMOOTH",
"30 83 OFFCURVE",
"111 -13 OFFCURVE",
"255 -13 CURVE SMOOTH"
);
}
);
width = 630;
}
);
unicode = 0026;
},
{
glyphname = paragraph;
lastChange = "2021-10-31 18:43:41 +0000";
layers = (
{
layerId = "1B5AC656-48C3-4864-953F-2CD31E7BA751";
paths = (
{
closed = 1;
nodes = (
"330 0 LINE",
"330 600 LINE",
"400 600 LINE",
"400 0 LINE",
"475 0 LINE",
"475 700 LINE",
"225 700 LINE SMOOTH",
"91 700 OFFCURVE",
"9 636 OFFCURVE",
"9 510 CURVE SMOOTH",
"9 384 OFFCURVE",
"91 318 OFFCURVE",
"225 318 CURVE SMOOTH",
"255 318 LINE",
"255 0 LINE"
);
}
);
width = 525;
}
);
rightMetricsKey = H;
unicode = 00B6;
},
